<svg id="svg" version="1.1" xmlns="http://www.w3.org/2000/svg" xmlns:xlink="http://www.w3.org/1999/xlink" width="400" height="400" viewBox="0, 0, 400,400"><g id="svgg"><path id="path0" d="M107.840 195.500 C 107.945 196.325,108.199 197.900,108.404 199.000 C 108.610 200.100,108.881 201.630,109.007 202.400 C 109.133 203.170,109.402 204.700,109.604 205.800 C 109.806 206.900,110.159 208.880,110.387 210.200 C 110.616 211.520,110.967 213.500,111.167 214.600 C 111.368 215.700,111.718 217.680,111.946 219.000 C 112.174 220.320,112.549 222.435,112.780 223.700 C 113.011 224.965,113.389 227.035,113.620 228.300 C 113.851 229.565,114.202 231.590,114.400 232.800 C 114.598 234.010,114.949 236.035,115.180 237.300 C 116.331 243.605,118.402 255.407,118.812 258.000 C 119.003 259.210,119.349 261.235,119.580 262.500 C 119.811 263.765,120.189 265.835,120.420 267.100 C 120.651 268.365,121.026 270.480,121.254 271.800 C 121.482 273.120,121.831 275.100,122.030 276.200 C 122.229 277.300,122.576 279.280,122.800 280.600 C 123.024 281.920,123.371 283.900,123.570 285.000 C 123.769 286.100,124.112 288.119,124.333 289.486 C 124.554 290.853,124.850 292.158,124.991 292.386 C 125.397 293.043,341.855 292.958,342.262 292.300 C 342.431 292.026,342.725 290.721,342.914 289.400 C 343.248 287.072,343.568 285.177,344.400 280.600 C 344.620 279.390,344.980 277.410,345.200 276.200 C 345.420 274.990,345.763 273.055,345.963 271.900 C 346.163 270.745,346.539 268.630,346.800 267.200 C 347.061 265.770,347.421 263.700,347.600 262.600 C 347.904 260.735,348.405 257.915,349.200 253.600 C 349.382 252.610,349.712 250.720,349.933 249.400 C 350.527 245.855,353.074 231.292,354.026 226.000 C 354.481 223.470,355.037 220.320,355.261 219.000 C 355.485 217.680,355.831 215.700,356.030 214.600 C 356.229 213.500,356.576 211.520,356.800 210.200 C 357.024 208.880,357.371 206.900,357.570 205.800 C 357.769 204.700,358.111 202.720,358.330 201.400 C 358.549 200.080,358.819 198.730,358.930 198.400 C 359.041 198.070,359.234 196.945,359.358 195.900 L 359.585 194.000 233.617 194.000 L 107.650 194.000 107.840 195.500 " stroke="none" fill="#f3b3b3" fill-rule="evenodd"></path><path id="path1" d="M9.200 1.600 C 9.200 1.820,8.660 2.000,8.000 2.000 C 7.340 2.000,6.800 2.180,6.800 2.400 C 6.800 2.620,6.440 2.800,6.000 2.800 C 5.560 2.800,5.200 2.980,5.200 3.200 C 5.200 3.420,4.975 3.600,4.700 3.600 C 4.083 3.601,2.000 5.353,2.000 5.871 C 2.000 6.079,1.597 6.682,1.103 7.212 C 0.125 8.262,-0.401 14.731,0.178 18.595 C 0.484 20.632,4.508 25.200,5.997 25.200 C 6.439 25.200,6.800 25.380,6.800 25.600 C 6.800 25.820,7.700 26.000,8.800 26.000 C 9.900 26.000,10.800 26.180,10.800 26.400 C 10.800 26.661,17.743 26.800,30.829 26.800 C 53.288 26.800,52.000 26.619,52.000 29.771 C 52.000 30.777,52.180 31.600,52.400 31.600 C 52.620 31.600,52.800 32.579,52.800 33.776 C 52.800 34.973,52.980 36.064,53.200 36.200 C 53.420 36.336,53.600 37.236,53.600 38.200 C 53.600 39.164,53.780 40.064,54.000 40.200 C 54.220 40.336,54.400 41.427,54.400 42.624 C 54.400 43.821,54.580 44.800,54.800 44.800 C 55.020 44.800,55.200 45.700,55.200 46.800 C 55.200 47.900,55.380 48.800,55.600 48.800 C 55.822 48.800,56.000 49.867,56.000 51.200 C 56.000 52.533,56.178 53.600,56.400 53.600 C 56.620 53.600,56.800 54.399,56.800 55.376 C 56.800 56.353,56.980 57.264,57.200 57.400 C 57.420 57.536,57.600 58.627,57.600 59.824 C 57.600 61.021,57.754 62.000,57.942 62.000 C 58.130 62.000,58.407 63.305,58.558 64.900 C 58.851 68.004,58.907 68.405,59.596 72.400 C 59.842 73.830,60.142 75.810,60.261 76.800 C 60.380 77.790,60.640 78.771,60.839 78.980 C 61.037 79.189,61.200 80.213,61.200 81.256 C 61.200 82.299,61.380 83.264,61.600 83.400 C 61.820 83.536,62.000 84.526,62.000 85.600 C 62.000 86.674,62.180 87.664,62.400 87.800 C 62.620 87.936,62.800 88.926,62.800 90.000 C 62.800 91.074,62.980 92.064,63.200 92.200 C 63.420 92.336,63.600 93.337,63.600 94.424 C 63.600 95.511,63.780 96.400,64.000 96.400 C 64.220 96.400,64.400 97.379,64.400 98.576 C 64.400 99.773,64.580 100.864,64.800 101.000 C 65.020 101.136,65.200 102.137,65.200 103.224 C 65.200 104.311,65.380 105.200,65.600 105.200 C 65.820 105.200,66.000 106.190,66.000 107.400 C 66.000 108.610,66.180 109.600,66.400 109.600 C 66.620 109.600,66.800 110.500,66.800 111.600 C 66.800 112.700,66.980 113.600,67.200 113.600 C 67.422 113.600,67.600 114.667,67.600 116.000 C 67.600 117.333,67.778 118.400,68.000 118.400 C 68.220 118.400,68.400 119.300,68.400 120.400 C 68.400 121.500,68.580 122.400,68.800 122.400 C 69.020 122.400,69.200 123.390,69.200 124.600 C 69.200 125.810,69.380 126.800,69.600 126.800 C 69.820 126.800,70.000 127.689,70.000 128.776 C 70.000 129.863,70.180 130.864,70.400 131.000 C 70.620 131.136,70.800 132.227,70.800 133.424 C 70.800 134.621,70.980 135.600,71.200 135.600 C 71.420 135.600,71.600 136.489,71.600 137.576 C 71.600 138.663,71.780 139.664,72.000 139.800 C 72.220 139.936,72.400 140.937,72.400 142.024 C 72.400 143.111,72.580 144.000,72.800 144.000 C 73.020 144.000,73.200 144.979,73.200 146.176 C 73.200 147.373,73.380 148.464,73.600 148.600 C 73.820 148.736,74.000 149.737,74.000 150.824 C 74.000 151.911,74.180 152.800,74.400 152.800 C 74.620 152.800,74.800 153.790,74.800 155.000 C 74.800 156.227,74.980 157.200,75.208 157.200 C 75.440 157.200,75.510 157.620,75.370 158.179 C 75.234 158.717,75.312 159.752,75.542 160.479 C 75.773 161.205,76.071 162.700,76.205 163.800 C 76.339 164.900,76.545 166.610,76.663 167.600 C 76.781 168.590,77.040 169.571,77.239 169.780 C 77.437 169.989,77.600 171.013,77.600 172.056 C 77.600 173.099,77.780 174.064,78.000 174.200 C 78.220 174.336,78.400 175.337,78.400 176.424 C 78.400 177.511,78.580 178.400,78.800 178.400 C 79.020 178.400,79.200 179.379,79.200 180.576 C 79.200 181.773,79.380 182.864,79.600 183.000 C 79.820 183.136,80.000 184.137,80.000 185.224 C 80.000 186.311,80.180 187.200,80.400 187.200 C 80.620 187.200,80.800 188.190,80.800 189.400 C 80.800 190.610,80.980 191.600,81.200 191.600 C 81.420 191.600,81.600 192.500,81.600 193.600 C 81.600 194.700,81.780 195.600,82.000 195.600 C 82.222 195.600,82.400 196.667,82.400 198.000 C 82.400 199.333,82.578 200.400,82.800 200.400 C 83.020 200.400,83.200 201.300,83.200 202.400 C 83.200 203.500,83.380 204.400,83.600 204.400 C 83.820 204.400,84.000 205.390,84.000 206.600 C 84.000 207.810,84.180 208.800,84.400 208.800 C 84.620 208.800,84.800 209.779,84.800 210.976 C 84.800 212.173,84.980 213.264,85.200 213.400 C 85.420 213.536,85.600 214.537,85.600 215.624 C 85.600 216.711,85.780 217.600,86.000 217.600 C 86.220 217.600,86.400 218.590,86.400 219.800 C 86.400 221.010,86.580 222.000,86.800 222.000 C 87.020 222.000,87.200 222.900,87.200 224.000 C 87.200 225.100,87.380 226.000,87.600 226.000 C 87.822 226.000,88.000 227.067,88.000 228.400 C 88.000 229.733,88.178 230.800,88.400 230.800 C 88.620 230.800,88.800 231.700,88.800 232.800 C 88.800 233.900,88.980 234.800,89.200 234.800 C 89.420 234.800,89.600 235.790,89.600 237.000 C 89.600 238.210,89.780 239.200,90.000 239.200 C 90.220 239.200,90.400 240.100,90.400 241.200 C 90.400 242.300,90.580 243.200,90.800 243.200 C 91.020 243.200,91.200 244.055,91.200 245.100 C 91.201 246.145,91.460 248.260,91.777 249.800 C 92.424 252.941,92.770 255.212,93.070 258.300 C 93.182 259.455,93.437 260.400,93.637 260.400 C 93.837 260.400,94.000 261.379,94.000 262.576 C 94.000 263.773,94.180 264.864,94.400 265.000 C 94.620 265.136,94.800 266.137,94.800 267.224 C 94.800 268.311,94.980 269.200,95.200 269.200 C 95.420 269.200,95.600 270.190,95.600 271.400 C 95.600 272.610,95.780 273.600,96.000 273.600 C 96.220 273.600,96.400 274.489,96.400 275.576 C 96.400 276.663,96.580 277.664,96.800 277.800 C 97.020 277.936,97.200 279.027,97.200 280.224 C 97.200 281.421,97.380 282.400,97.600 282.400 C 97.820 282.400,98.000 283.289,98.000 284.376 C 98.000 285.463,98.180 286.464,98.400 286.600 C 98.620 286.736,98.800 287.737,98.800 288.824 C 98.800 289.911,98.980 290.800,99.200 290.800 C 99.420 290.800,99.600 291.779,99.600 292.976 C 99.600 294.173,99.780 295.264,100.000 295.400 C 100.220 295.536,100.400 296.537,100.400 297.624 C 100.400 298.711,100.580 299.600,100.800 299.600 C 101.020 299.600,101.200 300.579,101.200 301.776 C 101.200 302.973,101.380 304.064,101.600 304.200 C 101.820 304.336,102.000 305.247,102.000 306.224 C 102.000 307.201,102.180 308.000,102.400 308.000 C 102.620 308.000,102.800 308.540,102.800 309.200 C 102.800 309.860,102.980 310.400,103.200 310.400 C 103.420 310.400,103.600 310.688,103.600 311.040 C 103.600 311.391,104.140 312.183,104.800 312.800 C 105.460 313.417,106.000 314.209,106.000 314.560 C 106.000 314.924,106.331 315.200,106.767 315.200 C 107.188 315.200,107.593 315.335,107.667 315.500 C 107.740 315.665,108.582 316.205,109.538 316.700 L 111.276 317.600 139.438 317.600 C 157.946 317.600,167.600 317.737,167.600 318.000 C 167.600 318.229,168.800 318.400,170.400 318.400 C 172.000 318.400,173.200 318.571,173.200 318.800 C 173.200 319.020,173.652 319.200,174.205 319.200 C 174.758 319.200,175.523 319.360,175.905 319.556 C 176.287 319.752,177.500 320.337,178.600 320.856 C 179.700 321.375,180.660 321.935,180.733 322.100 C 180.807 322.265,181.134 322.400,181.460 322.400 C 181.786 322.400,182.716 323.028,183.527 323.797 C 184.337 324.565,185.238 325.195,185.529 325.197 C 186.181 325.201,187.200 326.181,187.200 326.803 C 187.200 327.056,187.920 327.954,188.800 328.800 C 189.680 329.646,190.400 330.621,190.400 330.969 C 190.400 331.316,190.580 331.600,190.800 331.600 C 191.020 331.600,191.200 331.960,191.200 332.400 C 191.200 332.840,191.380 333.200,191.600 333.200 C 191.820 333.200,192.001 333.515,192.002 333.900 C 192.004 334.285,192.274 335.116,192.602 335.746 C 192.931 336.376,193.200 337.220,193.200 337.622 C 193.200 338.024,193.380 338.464,193.600 338.600 C 193.820 338.736,194.000 339.816,194.000 341.000 C 194.000 342.184,194.180 343.264,194.400 343.400 C 194.899 343.709,194.929 347.304,194.437 347.820 C 194.237 348.029,193.977 349.100,193.858 350.200 C 193.499 353.531,193.131 355.200,192.756 355.200 C 192.560 355.200,192.400 355.469,192.400 355.797 C 192.400 356.631,191.077 359.600,190.706 359.600 C 190.538 359.600,190.400 359.870,190.400 360.200 C 190.400 360.530,190.220 360.800,190.000 360.800 C 189.780 360.800,189.600 360.989,189.600 361.221 C 189.600 361.885,182.896 368.400,182.213 368.400 C 181.876 368.400,181.600 368.580,181.600 368.800 C 181.600 369.020,181.364 369.200,181.075 369.200 C 180.787 369.200,180.164 369.560,179.692 370.000 C 179.220 370.440,178.556 370.800,178.217 370.800 C 177.878 370.800,177.600 370.980,177.600 371.200 C 177.600 371.420,177.161 371.600,176.624 371.600 C 176.087 371.600,175.536 371.780,175.400 372.000 C 175.264 372.220,174.533 372.400,173.776 372.400 C 173.019 372.400,172.400 372.580,172.400 372.800 C 172.400 373.048,170.267 373.200,166.800 373.200 C 163.333 373.200,161.200 373.048,161.200 372.800 C 161.200 372.580,160.660 372.400,160.000 372.400 C 159.340 372.400,158.800 372.220,158.800 372.000 C 158.800 371.780,158.476 371.600,158.080 371.600 C 157.186 371.600,155.207 370.706,155.203 370.300 C 155.201 370.135,154.840 370.000,154.400 370.000 C 153.960 370.000,153.600 369.820,153.600 369.600 C 153.600 369.380,153.330 369.200,153.000 369.200 C 152.671 369.200,151.659 368.480,150.752 367.600 C 149.845 366.720,148.937 366.000,148.734 366.000 C 148.273 366.000,146.400 364.156,146.400 363.702 C 146.400 363.518,145.680 362.572,144.800 361.600 C 143.920 360.628,143.200 359.600,143.200 359.316 C 143.200 359.032,143.020 358.800,142.800 358.800 C 142.580 358.800,142.400 358.530,142.400 358.200 C 142.400 357.870,142.236 357.600,142.035 357.600 C 141.834 357.600,141.544 356.835,141.390 355.900 C 141.236 354.965,140.973 354.020,140.805 353.800 C 140.308 353.147,139.929 350.819,139.730 347.200 C 139.628 345.330,139.376 343.629,139.172 343.420 C 138.967 343.211,138.800 342.446,138.800 341.720 C 138.800 340.994,138.620 340.400,138.400 340.400 C 138.180 340.400,138.000 340.118,138.000 339.774 C 138.000 338.537,132.818 334.000,131.405 334.000 C 131.072 334.000,130.800 333.820,130.800 333.600 C 130.800 333.359,129.133 333.200,126.600 333.200 C 124.067 333.200,122.400 333.359,122.400 333.600 C 122.400 333.820,122.040 334.000,121.600 334.000 C 121.160 334.000,120.800 334.180,120.800 334.400 C 120.800 334.620,120.526 334.800,120.191 334.800 C 119.413 334.800,115.200 338.993,115.200 339.768 C 115.200 340.089,115.020 340.464,114.800 340.600 C 114.580 340.736,114.400 341.546,114.400 342.400 C 114.400 343.254,114.220 344.064,114.000 344.200 C 113.479 344.522,113.479 347.878,114.000 348.200 C 114.220 348.336,114.400 349.956,114.400 351.800 C 114.400 353.644,114.580 355.264,114.800 355.400 C 115.020 355.536,115.200 356.357,115.200 357.224 C 115.200 358.091,115.380 358.800,115.600 358.800 C 115.820 358.800,116.000 359.520,116.000 360.400 C 116.000 361.280,116.180 362.000,116.400 362.000 C 116.620 362.000,116.800 362.439,116.800 362.976 C 116.800 363.513,116.980 364.064,117.200 364.200 C 117.420 364.336,117.600 364.797,117.600 365.224 C 117.600 365.651,117.780 366.000,118.000 366.000 C 118.220 366.000,118.400 366.450,118.400 367.000 C 118.400 367.550,118.580 368.000,118.800 368.000 C 119.020 368.000,119.200 368.265,119.200 368.588 C 119.200 369.167,120.652 372.011,121.147 372.400 C 121.287 372.510,121.671 373.140,122.001 373.800 C 122.330 374.460,123.095 375.477,123.700 376.060 C 124.305 376.644,124.802 377.364,124.804 377.660 C 124.807 377.957,125.887 379.361,127.204 380.780 C 128.522 382.199,129.600 383.504,129.600 383.680 C 129.600 383.856,129.792 384.000,130.026 384.000 C 130.260 384.000,131.329 384.900,132.400 386.000 C 133.471 387.100,134.548 388.000,134.792 388.000 C 135.036 388.000,135.672 388.436,136.205 388.969 C 136.738 389.502,137.540 390.054,137.987 390.196 C 138.434 390.338,138.800 390.622,138.800 390.827 C 138.800 391.032,139.147 391.200,139.571 391.200 C 139.996 391.200,140.613 391.470,140.943 391.800 C 141.273 392.130,141.811 392.400,142.138 392.400 C 142.465 392.400,142.793 392.535,142.867 392.700 C 143.088 393.199,146.422 394.800,147.238 394.800 C 147.657 394.800,148.000 394.980,148.000 395.200 C 148.000 395.420,148.540 395.600,149.200 395.600 C 149.860 395.600,150.400 395.780,150.400 396.000 C 150.400 396.220,150.940 396.400,151.600 396.400 C 152.260 396.400,152.800 396.580,152.800 396.800 C 152.800 397.020,153.520 397.200,154.400 397.200 C 155.280 397.200,156.000 397.380,156.000 397.600 C 156.000 397.829,157.200 398.000,158.800 398.000 C 160.400 398.000,161.600 398.171,161.600 398.400 C 161.600 398.937,172.268 398.937,172.600 398.400 C 172.736 398.180,173.917 398.000,175.224 398.000 C 176.541 398.000,177.600 397.822,177.600 397.600 C 177.600 397.380,178.320 397.200,179.200 397.200 C 180.080 397.200,180.800 397.020,180.800 396.800 C 180.800 396.580,181.520 396.400,182.400 396.400 C 183.280 396.400,184.000 396.220,184.000 396.000 C 184.000 395.780,184.450 395.600,185.000 395.600 C 185.550 395.600,186.000 395.420,186.000 395.200 C 186.000 394.980,186.450 394.800,187.000 394.800 C 187.550 394.800,188.000 394.620,188.000 394.400 C 188.000 394.180,188.360 394.000,188.800 394.000 C 189.240 394.000,189.600 393.820,189.600 393.600 C 189.600 393.380,189.960 393.200,190.400 393.200 C 190.840 393.200,191.200 393.020,191.200 392.800 C 191.200 392.580,191.470 392.400,191.800 392.400 C 192.130 392.400,192.400 392.220,192.400 392.000 C 192.400 391.780,192.664 391.600,192.986 391.600 C 193.799 391.600,196.400 390.324,196.400 389.926 C 196.400 389.747,196.643 389.600,196.941 389.600 C 197.238 389.600,198.046 389.060,198.737 388.400 C 199.428 387.740,200.174 387.200,200.396 387.200 C 201.026 387.200,208.800 379.153,208.800 378.501 C 208.800 378.182,209.295 377.444,209.900 376.860 C 210.505 376.277,211.270 375.260,211.600 374.600 C 211.930 373.940,212.515 373.051,212.900 372.625 C 213.285 372.198,213.600 371.613,213.600 371.325 C 213.600 371.036,213.780 370.800,214.000 370.800 C 214.220 370.800,214.400 370.440,214.400 370.000 C 214.400 369.560,214.580 369.200,214.800 369.200 C 215.020 369.200,215.200 368.840,215.200 368.400 C 215.200 367.960,215.380 367.600,215.600 367.600 C 215.820 367.600,216.000 367.060,216.000 366.400 C 216.000 365.740,216.180 365.200,216.400 365.200 C 216.620 365.200,216.800 364.928,216.800 364.595 C 216.800 364.262,216.958 363.677,217.151 363.295 C 217.735 362.139,218.400 359.796,218.400 358.895 C 218.400 358.429,218.580 357.936,218.800 357.800 C 219.020 357.664,219.200 356.674,219.200 355.600 C 219.200 354.526,219.380 353.536,219.600 353.400 C 220.140 353.066,220.140 337.734,219.600 337.400 C 219.380 337.264,219.200 336.443,219.200 335.576 C 219.200 334.709,219.020 334.000,218.800 334.000 C 218.580 334.000,218.400 333.278,218.400 332.395 C 218.400 331.512,218.241 330.477,218.047 330.095 C 217.852 329.713,217.471 328.860,217.200 328.200 C 216.929 327.540,216.548 326.687,216.353 326.305 C 216.159 325.923,216.000 325.248,216.000 324.805 C 216.000 324.362,215.820 324.000,215.600 324.000 C 215.380 324.000,215.200 323.640,215.200 323.200 C 215.200 322.760,215.020 322.400,214.800 322.400 C 214.580 322.400,214.400 322.040,214.400 321.600 C 214.400 321.160,214.220 320.800,214.000 320.800 C 213.780 320.800,213.600 320.480,213.600 320.088 C 213.600 319.697,213.240 319.117,212.800 318.800 C 212.360 318.483,212.000 318.083,212.000 317.912 C 212.000 317.740,232.070 317.600,256.600 317.600 C 286.067 317.600,301.200 317.736,301.200 318.000 C 301.200 318.229,302.400 318.400,304.000 318.400 C 305.600 318.400,306.800 318.571,306.800 318.800 C 306.800 319.020,307.340 319.200,308.000 319.200 C 308.660 319.200,309.200 319.380,309.200 319.600 C 309.200 319.820,309.524 320.000,309.920 320.000 C 310.814 320.000,312.793 320.894,312.797 321.300 C 312.799 321.465,313.160 321.600,313.600 321.600 C 314.040 321.600,314.400 321.780,314.400 322.000 C 314.400 322.220,314.664 322.400,314.987 322.400 C 316.021 322.400,324.000 329.996,324.000 330.981 C 324.000 331.321,324.180 331.600,324.400 331.600 C 324.620 331.600,324.800 331.864,324.800 332.186 C 324.800 332.726,325.599 334.814,326.449 336.495 C 326.642 336.877,326.800 337.606,326.800 338.115 C 326.800 338.624,326.964 339.211,327.165 339.420 C 328.165 340.462,328.166 352.000,327.166 352.000 C 326.965 352.000,326.797 352.405,326.794 352.900 C 326.788 353.842,326.034 356.224,325.457 357.127 C 325.271 357.416,325.217 357.750,325.336 357.869 C 325.455 357.988,325.231 358.429,324.840 358.849 C 324.448 359.270,323.874 360.105,323.564 360.707 C 322.818 362.153,316.484 368.400,315.763 368.400 C 315.454 368.400,315.200 368.580,315.200 368.800 C 315.200 369.020,314.840 369.200,314.400 369.200 C 313.960 369.200,313.600 369.380,313.600 369.600 C 313.600 369.820,313.330 370.000,313.000 370.000 C 312.670 370.000,312.400 370.180,312.400 370.400 C 312.400 370.620,312.130 370.800,311.800 370.800 C 311.470 370.800,311.200 370.960,311.200 371.155 C 311.200 371.490,310.312 371.742,307.300 372.263 C 306.585 372.386,306.000 372.648,306.000 372.844 C 306.000 373.040,303.480 373.200,300.400 373.200 C 296.933 373.200,294.800 373.048,294.800 372.800 C 294.800 372.580,294.260 372.400,293.600 372.400 C 292.940 372.400,292.400 372.220,292.400 372.000 C 292.400 371.780,291.860 371.600,291.200 371.600 C 290.540 371.600,290.000 371.420,290.000 371.200 C 290.000 370.980,289.730 370.800,289.400 370.800 C 289.070 370.800,288.800 370.620,288.800 370.400 C 288.800 370.180,288.440 370.000,288.000 370.000 C 287.560 370.000,287.200 369.820,287.200 369.600 C 287.200 369.380,286.928 369.200,286.596 369.200 C 286.264 369.200,285.428 368.660,284.737 368.000 C 284.046 367.340,283.323 366.800,283.130 366.800 C 282.672 366.800,279.200 363.328,279.200 362.870 C 279.200 362.677,278.689 361.984,278.065 361.331 C 277.441 360.679,276.678 359.572,276.368 358.872 C 276.058 358.172,275.669 357.600,275.502 357.600 C 275.336 357.600,275.200 357.351,275.200 357.046 C 275.200 356.341,274.042 352.422,273.563 351.505 C 273.363 351.123,273.200 349.379,273.200 347.629 C 273.200 345.879,273.020 344.336,272.800 344.200 C 272.580 344.064,272.400 343.416,272.400 342.760 C 272.400 340.407,268.322 334.800,266.611 334.800 C 266.275 334.800,266.000 334.620,266.000 334.400 C 266.000 334.180,265.640 334.000,265.200 334.000 C 264.760 334.000,264.400 333.820,264.400 333.600 C 264.400 333.359,262.733 333.200,260.200 333.200 C 257.667 333.200,256.000 333.359,256.000 333.600 C 256.000 333.820,255.728 334.000,255.395 334.000 C 254.654 334.000,253.219 334.781,252.404 335.628 C 252.072 335.973,251.485 336.372,251.100 336.515 C 250.715 336.658,250.400 337.011,250.400 337.299 C 250.400 337.587,250.040 338.083,249.600 338.400 C 249.160 338.717,248.800 339.297,248.800 339.688 C 248.800 340.080,248.620 340.400,248.400 340.400 C 248.180 340.400,248.000 341.019,248.000 341.776 C 248.000 342.533,247.820 343.264,247.600 343.400 C 247.078 343.722,247.078 349.878,247.600 350.200 C 247.820 350.336,248.000 351.686,248.000 353.200 C 248.000 354.714,248.180 356.064,248.400 356.200 C 248.620 356.336,248.800 357.157,248.800 358.024 C 248.800 358.891,248.980 359.600,249.200 359.600 C 249.420 359.600,249.600 360.140,249.600 360.800 C 249.600 361.460,249.780 362.000,250.000 362.000 C 250.220 362.000,250.400 362.540,250.400 363.200 C 250.400 363.860,250.580 364.400,250.800 364.400 C 251.020 364.400,251.200 364.940,251.200 365.600 C 251.200 366.260,251.380 366.800,251.600 366.800 C 251.820 366.800,252.000 367.160,252.000 367.600 C 252.000 368.040,252.180 368.400,252.400 368.400 C 252.620 368.400,252.800 368.760,252.800 369.200 C 252.800 369.640,252.980 370.000,253.200 370.000 C 253.420 370.000,253.600 370.360,253.600 370.800 C 253.600 371.240,253.780 371.600,254.000 371.600 C 254.220 371.600,254.400 371.870,254.400 372.200 C 254.400 372.530,254.580 372.800,254.800 372.800 C 255.020 372.800,255.200 373.070,255.200 373.400 C 255.200 373.730,255.380 374.000,255.600 374.000 C 255.820 374.000,256.000 374.230,256.000 374.512 C 256.000 374.793,256.360 375.283,256.800 375.600 C 257.240 375.917,257.600 376.420,257.600 376.717 C 257.600 377.014,257.825 377.510,258.100 377.820 C 258.375 378.129,259.230 379.129,260.000 380.042 C 262.684 383.223,267.305 387.600,268.857 388.430 C 269.348 388.693,270.110 389.244,270.550 389.654 C 270.991 390.064,271.510 390.400,271.704 390.400 C 271.898 390.400,272.327 390.670,272.657 391.000 C 272.987 391.330,273.604 391.600,274.029 391.600 C 274.453 391.600,274.800 391.746,274.800 391.925 C 274.800 392.104,275.430 392.498,276.200 392.800 C 276.970 393.102,277.600 393.496,277.600 393.675 C 277.600 393.854,277.960 394.000,278.400 394.000 C 278.840 394.000,279.200 394.180,279.200 394.400 C 279.200 394.620,279.740 394.800,280.400 394.800 C 281.060 394.800,281.600 394.980,281.600 395.200 C 281.600 395.420,282.140 395.600,282.800 395.600 C 283.460 395.600,284.000 395.780,284.000 396.000 C 284.000 396.220,284.540 396.400,285.200 396.400 C 285.860 396.400,286.400 396.580,286.400 396.800 C 286.400 397.020,287.120 397.200,288.000 397.200 C 288.880 397.200,289.600 397.380,289.600 397.600 C 289.600 397.825,290.725 398.000,292.176 398.000 C 293.593 398.000,294.864 398.180,295.000 398.400 C 295.145 398.635,297.471 398.800,300.624 398.800 C 303.941 398.800,306.000 398.647,306.000 398.400 C 306.000 398.174,307.133 398.000,308.600 398.000 C 310.067 398.000,311.200 397.826,311.200 397.600 C 311.200 397.380,311.920 397.200,312.800 397.200 C 313.680 397.200,314.400 397.020,314.400 396.800 C 314.400 396.580,315.120 396.400,316.000 396.400 C 316.880 396.400,317.600 396.220,317.600 396.000 C 317.600 395.780,317.960 395.600,318.400 395.600 C 318.840 395.600,319.200 395.420,319.200 395.200 C 319.200 394.980,319.740 394.800,320.400 394.800 C 321.060 394.800,321.600 394.620,321.600 394.400 C 321.600 394.180,321.960 394.000,322.400 394.000 C 322.840 394.000,323.200 393.820,323.200 393.600 C 323.200 393.380,323.560 393.200,324.000 393.200 C 324.440 393.200,324.800 393.020,324.800 392.800 C 324.800 392.580,325.070 392.400,325.400 392.400 C 325.730 392.400,326.000 392.220,326.000 392.000 C 326.000 391.780,326.279 391.600,326.620 391.600 C 327.370 391.600,329.553 390.505,330.309 389.748 C 330.610 389.447,331.016 389.200,331.210 389.200 C 331.405 389.200,332.014 388.750,332.564 388.200 C 333.114 387.650,333.720 387.200,333.912 387.200 C 334.691 387.200,341.600 379.973,341.600 379.157 C 341.600 378.917,342.140 378.217,342.800 377.600 C 343.460 376.983,344.000 376.231,344.000 375.928 C 344.000 375.625,344.360 375.117,344.800 374.800 C 345.240 374.483,345.600 373.993,345.600 373.712 C 345.600 373.430,345.759 373.200,345.953 373.200 C 346.148 373.200,346.407 372.885,346.529 372.500 C 346.651 372.115,347.059 371.260,347.436 370.600 C 348.529 368.686,348.800 368.051,348.800 367.405 C 348.800 367.072,348.980 366.800,349.200 366.800 C 349.420 366.800,349.600 366.440,349.600 366.000 C 349.600 365.560,349.780 365.200,350.000 365.200 C 350.220 365.200,350.400 364.660,350.400 364.000 C 350.400 363.340,350.580 362.800,350.800 362.800 C 351.020 362.800,351.200 362.260,351.200 361.600 C 351.200 360.940,351.380 360.400,351.600 360.400 C 351.820 360.400,352.000 359.680,352.000 358.800 C 352.000 357.920,352.180 357.200,352.400 357.200 C 352.620 357.200,352.800 356.221,352.800 355.024 C 352.800 353.827,352.980 352.736,353.200 352.600 C 353.440 352.451,353.600 349.737,353.600 345.800 C 353.600 341.863,353.440 339.149,353.200 339.000 C 352.980 338.864,352.800 337.784,352.800 336.600 C 352.800 335.416,352.620 334.336,352.400 334.200 C 352.180 334.064,352.000 333.243,352.000 332.376 C 352.000 331.509,351.820 330.800,351.600 330.800 C 351.380 330.800,351.200 330.260,351.200 329.600 C 351.200 328.940,351.020 328.400,350.800 328.400 C 350.580 328.400,350.400 327.950,350.400 327.400 C 350.400 326.850,350.220 326.400,350.000 326.400 C 349.780 326.400,349.600 326.051,349.600 325.624 C 349.600 325.197,349.420 324.736,349.200 324.600 C 348.980 324.464,348.800 323.913,348.800 323.376 C 348.800 322.839,348.620 322.400,348.400 322.400 C 348.180 322.400,348.000 322.080,348.000 321.688 C 348.000 321.297,347.640 320.717,347.200 320.400 C 346.760 320.083,346.400 319.503,346.400 319.112 C 346.400 318.720,346.220 318.400,346.000 318.400 C 345.780 318.400,345.600 318.220,345.600 318.000 C 345.600 317.753,347.659 317.600,350.976 317.600 C 354.129 317.600,356.455 317.435,356.600 317.200 C 356.736 316.980,357.197 316.800,357.624 316.800 C 358.051 316.800,358.400 316.620,358.400 316.400 C 358.400 316.180,358.670 316.000,359.000 316.000 C 359.330 316.000,359.600 315.820,359.600 315.600 C 359.600 315.380,359.960 315.200,360.400 315.200 C 360.866 315.200,361.200 314.933,361.200 314.560 C 361.200 314.209,361.740 313.417,362.400 312.800 C 363.060 312.183,363.600 311.391,363.600 311.040 C 363.600 310.688,363.780 310.400,364.000 310.400 C 364.220 310.400,364.400 309.860,364.400 309.200 C 364.400 308.540,364.580 308.000,364.800 308.000 C 365.020 308.000,365.200 307.010,365.200 305.800 C 365.200 304.590,365.380 303.600,365.600 303.600 C 365.820 303.600,366.000 302.711,366.000 301.624 C 366.000 300.537,366.180 299.536,366.400 299.400 C 366.620 299.264,366.800 298.173,366.800 296.976 C 366.800 295.779,366.980 294.800,367.200 294.800 C 367.420 294.800,367.600 293.821,367.600 292.624 C 367.600 291.427,367.780 290.336,368.000 290.200 C 368.220 290.064,368.400 289.164,368.400 288.200 C 368.400 287.236,368.580 286.336,368.800 286.200 C 369.020 286.064,369.200 284.973,369.200 283.776 C 369.200 282.579,369.380 281.600,369.600 281.600 C 369.822 281.600,370.000 280.533,370.000 279.200 C 370.000 277.867,370.178 276.800,370.400 276.800 C 370.620 276.800,370.800 275.911,370.800 274.824 C 370.800 273.737,370.980 272.736,371.200 272.600 C 371.420 272.464,371.600 271.474,371.600 270.400 C 371.600 269.326,371.780 268.336,372.000 268.200 C 372.220 268.064,372.400 266.973,372.400 265.776 C 372.400 264.579,372.563 263.600,372.763 263.600 C 372.963 263.600,373.222 262.655,373.339 261.500 C 373.456 260.345,373.752 258.320,373.996 257.000 C 374.241 255.680,374.640 252.755,374.884 250.500 C 375.127 248.245,375.478 246.400,375.663 246.400 C 375.848 246.400,376.000 245.320,376.000 244.000 C 376.000 242.667,376.178 241.600,376.400 241.600 C 376.620 241.600,376.800 240.711,376.800 239.624 C 376.800 238.537,376.980 237.536,377.200 237.400 C 377.420 237.264,377.600 236.263,377.600 235.176 C 377.600 234.089,377.780 233.200,378.000 233.200 C 378.222 233.200,378.400 232.133,378.400 230.800 C 378.400 229.467,378.578 228.400,378.800 228.400 C 379.020 228.400,379.200 227.410,379.200 226.200 C 379.200 224.990,379.380 224.000,379.600 224.000 C 379.820 224.000,380.000 223.111,380.000 222.024 C 380.000 220.937,380.180 219.936,380.400 219.800 C 380.620 219.664,380.800 218.573,380.800 217.376 C 380.800 216.179,380.980 215.200,381.200 215.200 C 381.420 215.200,381.600 214.221,381.600 213.024 C 381.600 211.827,381.780 210.736,382.000 210.600 C 382.220 210.464,382.400 209.463,382.400 208.376 C 382.400 207.289,382.580 206.400,382.800 206.400 C 383.020 206.400,383.200 205.410,383.200 204.200 C 383.200 202.990,383.380 202.000,383.600 202.000 C 383.820 202.000,384.000 201.021,384.000 199.824 C 384.000 198.627,384.180 197.536,384.400 197.400 C 384.620 197.264,384.800 196.263,384.800 195.176 C 384.800 194.089,384.980 193.200,385.200 193.200 C 385.420 193.200,385.600 192.221,385.600 191.024 C 385.600 189.827,385.780 188.736,386.000 188.600 C 386.220 188.464,386.400 187.373,386.400 186.176 C 386.400 184.979,386.580 184.000,386.800 184.000 C 387.020 184.000,387.200 183.111,387.200 182.024 C 387.200 180.937,387.380 179.936,387.600 179.800 C 387.820 179.664,388.000 178.573,388.000 177.376 C 388.000 176.179,388.180 175.200,388.400 175.200 C 388.620 175.200,388.800 174.246,388.800 173.080 C 388.800 171.914,388.963 170.789,389.161 170.580 C 389.499 170.224,389.679 169.174,390.252 164.200 C 390.379 163.100,390.630 162.018,390.810 161.797 C 390.990 161.575,391.266 159.640,391.424 157.497 C 391.581 155.353,391.865 153.600,392.055 153.600 C 392.245 153.600,392.400 152.520,392.400 151.200 C 392.400 149.867,392.578 148.800,392.800 148.800 C 393.020 148.800,393.200 147.911,393.200 146.824 C 393.200 145.737,393.380 144.736,393.600 144.600 C 393.820 144.464,394.000 143.373,394.000 142.176 C 394.000 140.979,394.180 140.000,394.400 140.000 C 394.620 140.000,394.800 139.010,394.800 137.800 C 394.800 136.590,394.980 135.600,395.200 135.600 C 395.420 135.600,395.600 134.711,395.600 133.624 C 395.600 132.537,395.780 131.536,396.000 131.400 C 396.220 131.264,396.400 130.173,396.400 128.976 C 396.400 127.779,396.580 126.800,396.800 126.800 C 397.020 126.800,397.200 125.810,397.200 124.600 C 397.200 123.390,397.380 122.400,397.600 122.400 C 397.820 122.400,398.000 121.410,398.000 120.200 C 398.000 118.990,398.180 118.000,398.400 118.000 C 398.620 118.000,398.800 117.025,398.800 115.833 C 398.800 114.544,398.988 113.604,399.265 113.512 C 400.283 113.172,399.945 96.997,398.900 96.089 C 398.405 95.658,398.000 95.179,398.000 95.025 C 398.000 94.598,396.913 93.600,396.448 93.600 C 396.224 93.600,395.896 93.360,395.720 93.068 C 395.215 92.227,392.805 91.200,391.339 91.200 C 390.602 91.200,390.000 91.020,390.000 90.800 C 390.000 90.537,379.867 90.400,360.400 90.400 C 340.933 90.400,330.800 90.537,330.800 90.800 C 330.800 91.020,330.080 91.200,329.200 91.200 C 328.320 91.200,327.600 91.360,327.600 91.557 C 327.600 91.753,327.185 92.017,326.679 92.144 C 325.110 92.538,321.601 96.515,321.600 97.900 C 321.600 98.395,321.420 98.800,321.200 98.800 C 320.958 98.800,320.800 100.533,320.800 103.200 C 320.800 105.867,320.958 107.600,321.200 107.600 C 321.420 107.600,321.600 107.962,321.600 108.404 C 321.600 108.846,322.140 109.772,322.800 110.463 C 323.460 111.154,324.000 111.962,324.000 112.259 C 324.000 112.557,324.242 112.800,324.538 112.800 C 324.834 112.800,325.402 113.160,325.800 113.600 C 326.198 114.040,326.766 114.400,327.062 114.400 C 327.358 114.400,327.600 114.580,327.600 114.800 C 327.600 115.020,328.309 115.200,329.176 115.200 C 330.043 115.200,330.864 115.380,331.000 115.600 C 331.160 115.858,338.671 116.000,352.224 116.000 C 372.933 116.000,373.200 116.010,373.200 116.800 C 373.200 117.240,373.020 117.600,372.800 117.600 C 372.580 117.600,372.400 118.489,372.400 119.576 C 372.400 120.663,372.220 121.664,372.000 121.800 C 371.780 121.936,371.600 123.027,371.600 124.224 C 371.600 125.421,371.420 126.400,371.200 126.400 C 370.980 126.400,370.800 127.390,370.800 128.600 C 370.800 129.810,370.620 130.800,370.400 130.800 C 370.180 130.800,370.000 131.689,370.000 132.776 C 370.000 133.863,369.820 134.864,369.600 135.000 C 369.380 135.136,369.200 136.227,369.200 137.424 C 369.200 138.621,369.020 139.600,368.800 139.600 C 368.580 139.600,368.400 140.590,368.400 141.800 C 368.400 143.010,368.220 144.000,368.000 144.000 C 367.780 144.000,367.600 144.889,367.600 145.976 C 367.600 147.063,367.420 148.064,367.200 148.200 C 366.980 148.336,366.800 149.427,366.800 150.624 C 366.800 151.821,366.620 152.800,366.400 152.800 C 366.178 152.800,366.000 153.867,366.000 155.200 C 366.000 156.533,365.822 157.600,365.600 157.600 C 365.380 157.600,365.200 158.500,365.200 159.600 C 365.200 160.700,365.020 161.600,364.800 161.600 C 364.580 161.600,364.400 162.590,364.400 163.800 C 364.400 165.010,364.220 166.000,364.000 166.000 C 363.780 166.000,363.600 166.720,363.600 167.600 L 363.600 169.200 233.600 169.200 L 103.600 169.200 103.600 167.824 C 103.600 167.067,103.420 166.336,103.200 166.200 C 102.980 166.064,102.800 165.074,102.800 164.000 C 102.800 162.926,102.620 161.936,102.400 161.800 C 102.180 161.664,102.000 160.663,102.000 159.576 C 102.000 158.489,101.820 157.600,101.600 157.600 C 101.378 157.600,101.200 156.533,101.200 155.200 C 101.200 153.867,101.022 152.800,100.800 152.800 C 100.580 152.800,100.400 151.911,100.400 150.824 C 100.400 149.737,100.220 148.736,100.000 148.600 C 99.780 148.464,99.600 147.474,99.600 146.400 C 99.600 145.326,99.420 144.336,99.200 144.200 C 98.980 144.064,98.800 142.973,98.800 141.776 C 98.800 140.579,98.620 139.600,98.400 139.600 C 98.180 139.600,98.000 138.711,98.000 137.624 C 98.000 136.537,97.820 135.536,97.600 135.400 C 97.380 135.264,97.200 134.173,97.200 132.976 C 97.200 131.779,97.020 130.800,96.800 130.800 C 96.580 130.800,96.400 129.810,96.400 128.600 C 96.400 127.390,96.220 126.400,96.000 126.400 C 95.780 126.400,95.600 125.511,95.600 124.424 C 95.600 123.337,95.420 122.336,95.200 122.200 C 94.980 122.064,94.800 120.973,94.800 119.776 C 94.800 118.579,94.620 117.600,94.400 117.600 C 94.180 117.600,94.000 117.240,94.000 116.800 C 94.000 116.002,94.267 116.000,181.600 116.000 C 239.733 116.000,269.200 115.865,269.200 115.600 C 269.200 115.380,269.920 115.200,270.800 115.200 C 271.680 115.200,272.400 115.020,272.400 114.800 C 272.400 114.580,272.760 114.400,273.200 114.400 C 273.640 114.400,274.000 114.220,274.000 114.000 C 274.000 113.780,274.186 113.600,274.413 113.600 C 275.058 113.600,277.600 110.899,277.600 110.213 C 277.600 109.876,277.780 109.600,278.000 109.600 C 278.220 109.600,278.400 109.330,278.400 109.000 C 278.400 108.670,278.580 108.400,278.800 108.400 C 279.020 108.400,279.200 107.871,279.200 107.224 C 279.200 106.577,279.380 105.936,279.600 105.800 C 280.124 105.476,280.124 100.400,279.600 100.400 C 279.380 100.400,279.200 99.986,279.200 99.480 C 279.200 98.426,278.347 96.408,277.900 96.403 C 277.735 96.401,277.600 96.122,277.600 95.782 C 277.600 94.264,272.909 91.200,270.586 91.200 C 269.824 91.200,269.200 91.020,269.200 90.800 C 269.200 90.535,239.031 90.399,179.500 90.397 L 89.800 90.394 89.300 89.317 C 89.025 88.725,88.800 87.466,88.800 86.520 C 88.800 85.574,88.620 84.800,88.400 84.800 C 88.180 84.800,88.000 83.911,88.000 82.824 C 88.000 81.737,87.820 80.736,87.600 80.600 C 87.380 80.464,87.200 79.463,87.200 78.376 C 87.200 77.289,87.020 76.400,86.800 76.400 C 86.580 76.400,86.400 75.500,86.400 74.400 C 86.400 73.300,86.220 72.400,86.000 72.400 C 85.780 72.400,85.600 71.511,85.600 70.424 C 85.600 69.337,85.420 68.336,85.200 68.200 C 84.980 68.064,84.800 67.074,84.800 66.000 C 84.800 64.926,84.620 63.936,84.400 63.800 C 84.180 63.664,84.000 62.764,84.000 61.800 C 84.000 60.836,83.820 59.936,83.600 59.800 C 83.380 59.664,83.200 58.753,83.200 57.776 C 83.200 56.799,83.020 56.000,82.800 56.000 C 82.580 56.000,82.400 55.021,82.400 53.824 C 82.400 52.627,82.220 51.536,82.000 51.400 C 81.780 51.264,81.600 50.263,81.600 49.176 C 81.600 48.089,81.420 47.200,81.200 47.200 C 80.980 47.200,80.800 46.401,80.800 45.424 C 80.800 44.447,80.620 43.536,80.400 43.400 C 80.180 43.264,80.000 42.173,80.000 40.976 C 80.000 39.779,79.820 38.800,79.600 38.800 C 79.380 38.800,79.200 37.900,79.200 36.800 C 79.200 35.700,79.020 34.800,78.800 34.800 C 78.580 34.800,78.400 33.900,78.400 32.800 C 78.400 31.700,78.220 30.800,78.000 30.800 C 77.780 30.800,77.600 29.810,77.600 28.600 C 77.600 27.390,77.420 26.400,77.200 26.400 C 76.980 26.400,76.800 25.500,76.800 24.400 C 76.800 23.300,76.620 22.400,76.400 22.400 C 76.180 22.400,76.000 21.500,76.000 20.400 C 76.000 19.300,75.854 18.400,75.675 18.400 C 75.496 18.400,75.167 16.735,74.944 14.700 C 74.344 9.227,71.429 3.600,69.194 3.600 C 68.959 3.600,68.380 3.240,67.908 2.800 C 67.365 2.295,66.496 2.000,65.548 2.000 C 64.723 2.000,63.936 1.820,63.800 1.600 C 63.459 1.048,9.200 1.048,9.200 1.600 M360.143 194.600 C 360.112 195.260,359.872 196.970,359.609 198.400 C 358.736 203.151,358.407 204.978,357.987 207.400 C 357.759 208.720,357.392 210.790,357.172 212.000 C 356.953 213.210,356.605 215.190,356.400 216.400 C 356.013 218.686,355.475 221.701,354.814 225.300 C 354.602 226.455,354.254 228.480,354.040 229.800 C 353.826 231.120,353.471 233.190,353.252 234.400 C 353.032 235.610,352.303 239.750,351.632 243.600 C 350.961 247.450,349.948 253.210,349.380 256.400 C 348.813 259.590,348.165 263.280,347.940 264.600 C 347.715 265.920,347.382 267.810,347.200 268.800 C 346.847 270.714,346.311 273.758,345.580 278.000 C 345.333 279.430,344.981 281.410,344.798 282.400 C 343.934 287.055,343.573 289.139,343.344 290.800 C 343.207 291.790,342.917 292.825,342.699 293.100 C 342.130 293.817,125.197 293.837,124.480 293.120 C 124.216 292.856,124.000 292.112,124.000 291.466 C 124.000 290.821,123.834 289.642,123.631 288.846 C 123.429 288.051,123.058 286.140,122.807 284.600 C 122.557 283.060,122.196 280.990,122.006 280.000 C 121.816 279.010,121.459 277.030,121.213 275.600 C 120.437 271.095,120.083 269.071,119.637 266.600 C 118.529 260.465,116.681 249.966,116.327 247.800 C 115.816 244.668,115.347 241.962,114.802 239.000 C 114.559 237.680,114.174 235.520,113.946 234.200 C 113.718 232.880,113.368 230.900,113.167 229.800 C 112.967 228.700,112.616 226.720,112.387 225.400 C 112.159 224.080,111.804 222.100,111.600 221.000 C 111.396 219.900,111.029 217.830,110.785 216.400 C 110.261 213.326,109.751 210.428,109.200 207.400 C 108.781 205.098,108.265 202.108,107.817 199.400 C 107.672 198.520,107.362 197.041,107.128 196.114 C 106.895 195.186,106.810 194.151,106.940 193.813 C 107.151 193.262,120.217 193.209,233.688 193.299 L 360.200 193.400 360.143 194.600 " stroke="none" fill="#b4434c" fill-rule="evenodd"></path><path id="path2" d="M106.936 193.822 C 106.805 194.165,106.886 195.020,107.118 195.722 C 107.518 196.937,107.528 196.916,107.318 195.300 L 107.098 193.600 233.600 193.600 L 360.102 193.600 359.882 195.300 C 359.672 196.916,359.682 196.937,360.082 195.722 C 360.314 195.020,360.395 194.165,360.264 193.822 C 359.898 192.869,107.302 192.869,106.936 193.822 M107.628 198.633 C 107.644 199.275,107.816 200.160,108.010 200.600 C 108.247 201.134,108.286 200.802,108.127 199.600 C 107.846 197.480,107.588 196.980,107.628 198.633 M359.249 198.600 C 359.216 199.040,359.096 199.850,358.983 200.400 L 358.777 201.400 359.206 200.419 C 359.442 199.879,359.561 199.069,359.472 198.619 C 359.313 197.821,359.307 197.821,359.249 198.600 M358.449 203.000 C 358.416 203.440,358.296 204.250,358.183 204.800 L 357.977 205.800 358.406 204.819 C 358.642 204.279,358.761 203.469,358.672 203.019 C 358.513 202.221,358.507 202.221,358.449 203.000 M108.446 203.600 C 108.427 204.150,108.587 204.870,108.800 205.200 C 109.294 205.964,109.294 205.142,108.800 203.600 L 108.480 202.600 108.446 203.600 M109.206 208.033 C 109.209 208.565,109.389 209.270,109.606 209.600 C 109.882 210.022,109.923 209.785,109.742 208.800 C 109.425 207.075,109.198 206.749,109.206 208.033 M357.654 207.867 C 357.625 208.344,357.496 209.064,357.370 209.467 C 357.152 210.161,357.164 210.162,357.596 209.488 C 357.847 209.097,357.975 208.377,357.881 207.888 C 357.709 207.001,357.709 207.001,357.654 207.867 M110.028 212.433 C 110.044 212.965,110.219 213.760,110.419 214.200 C 110.671 214.758,110.707 214.515,110.538 213.400 C 110.255 211.543,109.987 211.036,110.028 212.433 M356.854 212.267 C 356.825 212.744,356.696 213.464,356.570 213.867 C 356.352 214.561,356.364 214.562,356.796 213.888 C 357.047 213.497,357.175 212.777,357.081 212.288 C 356.909 211.401,356.909 211.401,356.854 212.267 M110.846 217.200 C 110.827 217.750,110.987 218.470,111.200 218.800 C 111.694 219.564,111.694 218.742,111.200 217.200 L 110.880 216.200 110.846 217.200 M356.049 216.800 C 356.016 217.130,355.889 217.850,355.767 218.400 C 355.575 219.264,355.607 219.303,355.999 218.688 C 356.248 218.297,356.375 217.577,356.281 217.088 C 356.186 216.600,356.082 216.470,356.049 216.800 M111.646 221.600 C 111.627 222.150,111.787 222.870,112.000 223.200 C 112.494 223.964,112.494 223.142,112.000 221.600 L 111.680 220.600 111.646 221.600 M355.249 221.200 C 355.216 221.530,355.089 222.250,354.967 222.800 C 354.775 223.664,354.807 223.703,355.199 223.088 C 355.448 222.697,355.575 221.977,355.481 221.488 C 355.386 221.000,355.282 220.870,355.249 221.200 M354.449 225.600 C 354.416 225.930,354.289 226.650,354.167 227.200 C 353.975 228.064,354.007 228.103,354.399 227.488 C 354.648 227.097,354.775 226.377,354.681 225.888 C 354.586 225.400,354.482 225.270,354.449 225.600 M112.468 226.200 C 112.462 226.640,112.611 227.360,112.800 227.800 C 113.238 228.819,113.238 227.768,112.800 226.400 C 112.543 225.596,112.477 225.557,112.468 226.200 M113.268 230.600 C 113.262 231.040,113.411 231.760,113.600 232.200 C 114.038 233.219,114.038 232.168,113.600 230.800 C 113.343 229.996,113.277 229.957,113.268 230.600 M353.422 231.422 C 353.272 232.225,353.228 232.962,353.326 233.060 C 353.424 233.157,353.627 232.581,353.778 231.778 C 353.928 230.975,353.972 230.238,353.874 230.140 C 353.776 230.043,353.573 230.619,353.422 231.422 M114.080 235.000 C 114.080 235.440,114.224 236.250,114.400 236.800 C 114.654 237.592,114.720 237.633,114.720 237.000 C 114.720 236.560,114.576 235.750,114.400 235.200 C 114.146 234.408,114.080 234.367,114.080 235.000 M352.622 235.822 C 352.472 236.625,352.428 237.362,352.526 237.460 C 352.624 237.557,352.827 236.981,352.978 236.178 C 353.128 235.375,353.172 234.638,353.074 234.540 C 352.976 234.443,352.773 235.019,352.622 235.822 M114.868 239.600 C 114.888 240.639,115.518 242.346,115.532 241.400 C 115.538 240.960,115.389 240.240,115.200 239.800 C 114.989 239.310,114.861 239.232,114.868 239.600 M115.656 244.200 C 115.656 244.640,115.811 245.360,116.000 245.800 L 116.344 246.600 116.344 245.800 C 116.344 245.360,116.189 244.640,116.000 244.200 L 115.656 243.400 115.656 244.200 M351.000 245.200 C 350.846 246.110,350.804 246.938,350.907 247.040 C 351.010 247.143,351.213 246.477,351.360 245.560 C 351.507 244.643,351.548 243.815,351.453 243.720 C 351.358 243.624,351.154 244.290,351.000 245.200 M116.487 248.600 C 116.491 249.040,116.632 249.940,116.800 250.600 C 117.074 251.678,117.106 251.698,117.113 250.800 C 117.117 250.250,116.976 249.350,116.800 248.800 C 116.549 248.016,116.481 247.973,116.487 248.600 M350.200 249.600 C 350.046 250.510,350.004 251.338,350.107 251.440 C 350.210 251.543,350.413 250.877,350.560 249.960 C 350.707 249.043,350.748 248.215,350.653 248.120 C 350.558 248.024,350.354 248.690,350.200 249.600 M117.287 253.000 C 117.291 253.440,117.432 254.340,117.600 255.000 C 117.874 256.078,117.906 256.098,117.913 255.200 C 117.917 254.650,117.776 253.750,117.600 253.200 C 117.349 252.416,117.281 252.373,117.287 253.000 M349.456 253.684 C 349.321 254.188,349.228 255.050,349.249 255.600 C 349.272 256.189,349.431 255.871,349.636 254.825 C 350.003 252.952,349.873 252.127,349.456 253.684 M118.262 258.600 C 118.396 259.480,118.572 260.275,118.653 260.367 C 118.956 260.710,118.729 258.568,118.381 257.800 C 118.129 257.242,118.093 257.485,118.262 258.600 M348.493 260.000 C 348.493 260.770,348.575 261.085,348.676 260.700 C 348.776 260.315,348.776 259.685,348.676 259.300 C 348.575 258.915,348.493 259.230,348.493 260.000 M119.293 264.400 C 119.293 265.170,119.375 265.485,119.476 265.100 C 119.576 264.715,119.576 264.085,119.476 263.700 C 119.375 263.315,119.293 263.630,119.293 264.400 M347.654 264.400 C 347.619 264.950,347.496 265.850,347.383 266.400 L 347.177 267.400 347.607 266.415 C 347.843 265.874,347.965 264.974,347.878 264.415 L 347.720 263.400 347.654 264.400 M120.093 268.800 C 120.093 269.570,120.175 269.885,120.276 269.500 C 120.376 269.115,120.376 268.485,120.276 268.100 C 120.175 267.715,120.093 268.030,120.093 268.800 M346.854 268.800 C 346.819 269.350,346.696 270.250,346.583 270.800 L 346.377 271.800 346.807 270.815 C 347.043 270.274,347.165 269.374,347.078 268.815 L 346.920 267.800 346.854 268.800 M120.893 273.600 C 120.893 274.370,120.975 274.685,121.076 274.300 C 121.176 273.915,121.176 273.285,121.076 272.900 C 120.975 272.515,120.893 272.830,120.893 273.600 M346.093 273.600 C 346.093 274.370,346.175 274.685,346.276 274.300 C 346.376 273.915,346.376 273.285,346.276 272.900 C 346.175 272.515,346.093 272.830,346.093 273.600 M121.693 278.000 C 121.693 278.770,121.775 279.085,121.876 278.700 C 121.976 278.315,121.976 277.685,121.876 277.300 C 121.775 276.915,121.693 277.230,121.693 278.000 M345.254 278.000 C 345.219 278.550,345.096 279.450,344.983 280.000 L 344.777 281.000 345.207 280.015 C 345.443 279.474,345.565 278.574,345.478 278.015 L 345.320 277.000 345.254 278.000 M122.493 282.400 C 122.493 283.170,122.575 283.485,122.676 283.100 C 122.776 282.715,122.776 282.085,122.676 281.700 C 122.575 281.315,122.493 281.630,122.493 282.400 M344.454 282.400 C 344.419 282.950,344.296 283.850,344.183 284.400 L 343.977 285.400 344.407 284.415 C 344.643 283.874,344.765 282.974,344.678 282.415 L 344.520 281.400 344.454 282.400 M123.228 287.033 C 123.244 287.675,123.416 288.560,123.610 289.000 C 123.847 289.534,123.886 289.202,123.727 288.000 C 123.446 285.880,123.188 285.380,123.228 287.033 M343.654 286.800 C 343.619 287.350,343.496 288.250,343.383 288.800 L 343.177 289.800 343.607 288.815 C 343.843 288.274,343.965 287.374,343.878 286.815 L 343.720 285.800 343.654 286.800 M124.054 291.651 C 124.024 292.230,124.314 292.948,124.700 293.251 C 125.309 293.729,125.340 293.722,124.938 293.200 C 124.684 292.870,124.394 292.150,124.293 291.600 L 124.109 290.600 124.054 291.651 M342.854 291.620 C 342.825 292.181,342.665 292.812,342.500 293.023 C 342.335 293.233,342.441 293.202,342.735 292.954 C 343.029 292.706,343.188 292.074,343.089 291.551 C 342.911 290.610,342.908 290.610,342.854 291.620 " stroke="none" fill="#cb6b6f" fill-rule="evenodd"></path><path id="path3" d="M342.161 292.799 C 341.898 293.062,304.833 293.233,233.381 293.300 L 125.000 293.401 233.451 293.501 C 329.445 293.589,341.959 293.531,342.400 293.000 C 342.957 292.329,342.780 292.180,342.161 292.799 " stroke="none" fill="#d4787c" fill-rule="evenodd"></path><path id="path4" d="M107.240 194.300 C 107.262 194.685,107.439 195.450,107.634 196.000 C 107.928 196.829,107.960 196.744,107.820 195.500 L 107.650 194.000 233.630 194.000 L 359.609 194.000 359.419 195.700 C 359.260 197.119,359.284 197.202,359.567 196.200 C 359.753 195.540,359.927 194.685,359.953 194.300 C 359.998 193.635,353.732 193.600,233.600 193.600 C 113.471 193.600,107.202 193.635,107.240 194.300 M108.273 200.000 C 108.404 200.990,108.576 201.875,108.656 201.967 C 108.957 202.314,108.728 199.764,108.390 199.000 C 108.153 198.466,108.114 198.798,108.273 200.000 M358.656 199.284 C 358.521 199.788,358.427 200.560,358.446 201.000 C 358.465 201.440,358.645 201.098,358.846 200.240 C 359.236 198.578,359.070 197.740,358.656 199.284 M357.856 203.684 C 357.721 204.188,357.628 205.050,357.649 205.600 C 357.672 206.189,357.831 205.871,358.036 204.825 C 358.403 202.952,358.273 202.127,357.856 203.684 M109.068 204.600 C 109.371 206.577,109.602 206.914,109.594 205.367 C 109.591 204.725,109.416 203.930,109.205 203.600 C 108.945 203.191,108.901 203.510,109.068 204.600 M357.056 208.084 C 356.921 208.588,356.830 209.540,356.853 210.200 C 356.881 211.028,356.997 210.784,357.226 209.413 C 357.576 207.323,357.474 206.526,357.056 208.084 M109.868 209.000 C 110.171 210.977,110.402 211.314,110.394 209.767 C 110.391 209.125,110.216 208.330,110.005 208.000 C 109.745 207.591,109.701 207.910,109.868 209.000 M110.673 213.600 C 110.804 214.590,110.976 215.475,111.056 215.567 C 111.357 215.914,111.128 213.364,110.790 212.600 C 110.553 212.066,110.514 212.398,110.673 213.600 M356.101 214.600 C 356.105 215.480,356.187 215.793,356.283 215.295 C 356.379 214.798,356.375 214.078,356.275 213.695 C 356.175 213.313,356.096 213.720,356.101 214.600 M111.473 218.000 C 111.604 218.990,111.776 219.875,111.856 219.967 C 112.157 220.314,111.928 217.764,111.590 217.000 C 111.353 216.466,111.314 216.798,111.473 218.000 M355.456 217.284 C 355.321 217.788,355.230 218.740,355.253 219.400 C 355.281 220.228,355.397 219.984,355.626 218.613 C 355.976 216.523,355.874 215.726,355.456 217.284 M112.493 223.600 C 112.493 224.370,112.575 224.685,112.676 224.300 C 112.776 223.915,112.776 223.285,112.676 222.900 C 112.575 222.515,112.493 222.830,112.493 223.600 M354.493 223.600 C 354.493 224.370,354.575 224.685,354.676 224.300 C 354.776 223.915,354.776 223.285,354.676 222.900 C 354.575 222.515,354.493 222.830,354.493 223.600 M113.293 228.000 C 113.293 228.770,113.375 229.085,113.476 228.700 C 113.576 228.315,113.576 227.685,113.476 227.300 C 113.375 226.915,113.293 227.230,113.293 228.000 M353.455 229.055 C 353.313 230.086,353.274 231.008,353.369 231.102 C 353.463 231.196,353.665 230.439,353.818 229.418 C 353.971 228.398,354.010 227.476,353.904 227.371 C 353.798 227.265,353.596 228.023,353.455 229.055 M113.872 231.400 C 113.999 232.500,114.169 233.475,114.251 233.567 C 114.532 233.882,114.320 231.399,113.980 230.400 C 113.751 229.726,113.716 230.051,113.872 231.400 M352.655 233.455 C 352.513 234.486,352.474 235.408,352.569 235.502 C 352.663 235.596,352.865 234.839,353.018 233.818 C 353.171 232.798,353.210 231.876,353.104 231.771 C 352.998 231.665,352.796 232.423,352.655 233.455 M114.893 237.200 C 114.893 237.970,114.975 238.285,115.076 237.900 C 115.176 237.515,115.176 236.885,115.076 236.500 C 114.975 236.115,114.893 236.430,114.893 237.200 M352.093 237.200 C 352.093 237.970,352.175 238.285,352.276 237.900 C 352.376 237.515,352.376 236.885,352.276 236.500 C 352.175 236.115,352.093 236.430,352.093 237.200 M115.693 241.600 C 115.693 242.370,115.775 242.685,115.876 242.300 C 115.976 241.915,115.976 241.285,115.876 240.900 C 115.775 240.515,115.693 240.830,115.693 241.600 M351.249 241.800 C 351.216 242.240,351.096 243.050,350.983 243.600 L 350.777 244.600 351.206 243.619 C 351.442 243.079,351.561 242.269,351.472 241.819 C 351.313 241.021,351.307 241.021,351.249 241.800 M116.493 246.000 C 116.493 246.770,116.575 247.085,116.676 246.700 C 116.776 246.315,116.776 245.685,116.676 245.300 C 116.575 244.915,116.493 245.230,116.493 246.000 M350.449 246.200 C 350.416 246.640,350.296 247.450,350.183 248.000 L 349.977 249.000 350.406 248.019 C 350.642 247.479,350.761 246.669,350.672 246.219 C 350.513 245.421,350.507 245.421,350.449 246.200 M117.287 250.800 C 117.283 251.350,117.424 252.250,117.600 252.800 C 118.031 254.144,118.031 252.692,117.600 251.000 C 117.326 249.922,117.294 249.902,117.287 250.800 M349.400 252.000 C 349.248 252.691,349.207 253.341,349.309 253.442 C 349.411 253.544,349.609 253.053,349.750 252.350 C 349.891 251.647,349.931 250.998,349.841 250.908 C 349.750 250.817,349.552 251.309,349.400 252.000 M118.087 255.200 C 118.083 255.750,118.224 256.650,118.400 257.200 C 118.831 258.544,118.831 257.092,118.400 255.400 C 118.126 254.322,118.094 254.302,118.087 255.200 M348.600 256.400 C 348.448 257.091,348.407 257.741,348.509 257.842 C 348.611 257.944,348.809 257.453,348.950 256.750 C 349.091 256.047,349.131 255.398,349.041 255.308 C 348.950 255.217,348.752 255.709,348.600 256.400 M118.880 260.200 C 118.880 260.640,119.024 261.450,119.200 262.000 C 119.454 262.792,119.520 262.833,119.520 262.200 C 119.520 261.760,119.376 260.950,119.200 260.400 C 118.946 259.608,118.880 259.567,118.880 260.200 M347.856 260.484 C 347.721 260.988,347.627 261.760,347.646 262.200 C 347.665 262.640,347.845 262.298,348.046 261.440 C 348.436 259.778,348.270 258.940,347.856 260.484 M119.680 264.600 C 119.680 265.040,119.824 265.850,120.000 266.400 C 120.254 267.192,120.320 267.233,120.320 266.600 C 120.320 266.160,120.176 265.350,120.000 264.800 C 119.746 264.008,119.680 263.967,119.680 264.600 M347.000 265.600 C 346.848 266.291,346.807 266.941,346.909 267.042 C 347.011 267.144,347.209 266.653,347.350 265.950 C 347.491 265.247,347.531 264.598,347.441 264.508 C 347.350 264.417,347.152 264.909,347.000 265.600 M120.480 269.000 C 120.480 269.440,120.624 270.250,120.800 270.800 C 121.054 271.592,121.120 271.633,121.120 271.000 C 121.120 270.560,120.976 269.750,120.800 269.200 C 120.546 268.408,120.480 268.367,120.480 269.000 M346.200 270.000 C 346.048 270.691,346.007 271.341,346.109 271.442 C 346.211 271.544,346.409 271.053,346.550 270.350 C 346.691 269.647,346.731 268.998,346.641 268.908 C 346.550 268.817,346.352 269.309,346.200 270.000 M121.256 273.800 C 121.256 274.240,121.411 274.960,121.600 275.400 L 121.944 276.200 121.944 275.400 C 121.944 274.960,121.789 274.240,121.600 273.800 L 121.256 273.000 121.256 273.800 M345.449 274.215 C 345.312 274.573,345.216 275.256,345.236 275.733 C 345.262 276.347,345.385 276.208,345.659 275.256 C 346.057 273.872,345.894 273.058,345.449 274.215 M122.068 278.200 C 122.074 278.640,122.224 279.450,122.400 280.000 L 122.720 281.000 122.732 280.000 C 122.738 279.450,122.589 278.640,122.400 278.200 L 122.056 277.400 122.068 278.200 M344.649 278.615 C 344.512 278.973,344.416 279.656,344.436 280.133 C 344.462 280.747,344.585 280.608,344.859 279.656 C 345.257 278.272,345.094 277.458,344.649 278.615 M123.062 283.800 C 123.196 284.680,123.372 285.475,123.453 285.567 C 123.756 285.910,123.529 283.768,123.181 283.000 C 122.929 282.442,122.893 282.685,123.062 283.800 M343.849 283.015 C 343.712 283.373,343.616 284.056,343.636 284.533 C 343.662 285.147,343.785 285.008,344.059 284.056 C 344.457 282.672,344.294 281.858,343.849 283.015 M123.862 288.200 C 123.996 289.080,124.172 289.875,124.253 289.967 C 124.556 290.310,124.329 288.168,123.981 287.400 C 123.729 286.842,123.693 287.085,123.862 288.200 M343.056 287.684 C 342.921 288.188,342.827 288.960,342.846 289.400 C 342.865 289.840,343.045 289.498,343.246 288.640 C 343.636 286.978,343.470 286.140,343.056 287.684 M124.425 291.467 C 124.325 293.316,117.037 293.200,233.363 293.200 C 343.993 293.200,342.828 293.215,342.788 291.820 C 342.781 291.589,342.592 291.715,342.368 292.100 C 341.981 292.764,336.377 292.800,233.567 292.800 L 125.174 292.800 124.812 291.900 C 124.613 291.405,124.439 291.210,124.425 291.467 " stroke="none" fill="#d47c84" fill-rule="evenodd"></path></g></svg>