<svg id="svg" version="1.1" xmlns="http://www.w3.org/2000/svg" xmlns:xlink="http://www.w3.org/1999/xlink" width="400" height="400" viewBox="0, 0, 400,400"><g id="svgg"><path id="path0" d="M157.560 47.200 C 154.177 47.456,153.721 47.865,153.392 50.934 L 153.126 53.418 144.802 53.412 C 134.795 53.405,134.594 53.482,134.896 57.199 C 134.994 58.410,134.999 59.177,134.905 58.904 C 134.778 58.530,134.588 58.555,134.139 59.004 C 133.676 59.467,132.453 59.600,128.648 59.600 C 122.499 59.600,122.248 59.743,122.220 63.261 L 122.200 65.815 119.089 65.753 C 116.579 65.703,116.061 65.791,116.408 66.210 C 116.719 66.584,116.705 66.812,116.358 67.026 C 116.063 67.208,115.981 67.155,116.145 66.889 C 116.588 66.172,115.651 65.902,113.721 66.191 C 111.381 66.542,110.000 67.863,110.000 69.749 C 110.000 72.216,109.784 72.406,107.261 72.155 C 104.053 71.836,103.400 72.407,103.400 75.529 L 103.400 77.923 100.476 78.198 C 97.073 78.518,96.609 79.087,96.890 82.600 L 97.049 84.600 94.625 84.546 C 90.789 84.462,90.812 84.444,90.969 87.441 C 91.145 90.819,90.819 91.145,87.441 90.969 C 84.436 90.811,84.462 90.777,84.546 94.718 L 84.600 97.237 83.100 96.983 C 82.275 96.844,80.891 96.849,80.025 96.996 L 78.450 97.262 78.181 100.338 L 77.913 103.414 75.391 103.407 C 72.247 103.398,72.200 103.450,72.200 106.922 L 72.200 109.776 70.448 110.076 C 67.492 110.582,65.012 114.078,66.221 116.033 C 66.345 116.235,66.285 116.400,66.087 116.400 C 65.889 116.400,65.753 117.705,65.784 119.300 L 65.841 122.200 63.288 122.200 C 59.802 122.200,59.602 122.524,59.595 128.176 C 59.587 134.268,59.576 134.295,56.976 134.620 C 53.257 135.085,53.399 134.685,53.408 144.668 L 53.415 153.400 51.408 153.304 C 49.857 153.230,49.582 153.298,50.200 153.603 C 50.832 153.915,50.724 153.949,49.684 153.764 C 47.963 153.457,47.174 154.148,47.177 155.960 C 47.178 156.752,47.121 175.490,47.051 197.600 C 46.883 250.327,46.566 246.177,50.800 246.687 L 53.400 247.001 53.421 255.201 C 53.447 265.356,53.204 264.732,57.399 265.414 C 59.543 265.762,59.587 265.882,59.594 271.424 C 59.601 277.378,59.763 277.674,63.129 277.917 L 65.565 278.094 65.824 279.818 C 65.966 280.767,65.962 281.738,65.815 281.976 C 65.668 282.214,65.849 283.766,66.218 285.424 C 66.972 288.812,67.548 289.425,70.448 289.928 L 72.200 290.232 72.075 292.616 C 71.904 295.882,72.415 296.492,75.510 296.716 L 77.928 296.891 78.205 299.654 C 78.414 301.734,78.664 302.513,79.215 302.808 C 80.242 303.358,81.894 303.296,82.135 302.700 C 82.296 302.300,82.343 302.300,82.368 302.700 C 82.386 302.975,82.830 303.200,83.355 303.200 C 84.399 303.200,85.096 305.236,84.594 306.817 C 83.993 308.714,84.644 309.200,87.784 309.200 C 91.141 309.200,91.123 309.181,90.991 312.600 C 90.879 315.470,91.010 315.585,94.400 315.596 L 97.000 315.604 97.020 318.249 C 97.045 321.528,97.543 322.000,100.976 322.000 L 103.400 322.000 103.280 324.100 C 103.189 325.686,103.266 326.053,103.592 325.600 C 103.928 325.133,103.969 325.237,103.777 326.067 C 103.438 327.532,104.446 328.000,107.941 328.000 L 110.734 328.000 111.467 329.495 C 112.496 331.593,115.317 333.457,115.712 332.300 C 115.806 332.025,115.818 332.198,115.738 332.684 C 115.582 333.636,116.692 334.499,117.916 334.376 C 118.292 334.339,119.343 334.329,120.252 334.354 L 121.904 334.400 122.081 336.854 C 122.340 340.435,123.526 340.933,131.249 340.703 C 134.087 340.618,134.660 340.700,134.481 341.166 C 134.362 341.477,134.430 341.629,134.632 341.503 C 134.843 341.373,134.943 342.075,134.868 343.146 C 134.635 346.436,134.983 346.561,144.836 346.739 L 153.200 346.891 153.228 348.145 C 153.252 349.212,153.308 349.280,153.603 348.600 C 153.830 348.075,153.873 348.439,153.726 349.659 C 153.327 352.975,153.330 352.976,169.735 353.138 C 181.114 353.250,183.769 353.176,184.047 352.738 C 184.300 352.338,184.389 352.329,184.394 352.700 C 184.399 353.091,187.830 353.200,200.200 353.200 C 212.570 353.200,216.001 353.091,216.006 352.700 C 216.011 352.329,216.100 352.339,216.354 352.738 C 216.632 353.177,219.246 353.251,230.465 353.138 C 246.679 352.975,246.147 353.103,246.593 349.263 L 246.868 346.889 255.275 346.737 C 264.821 346.565,265.200 346.429,265.200 343.188 C 265.200 340.631,265.262 340.590,268.904 340.699 C 276.445 340.925,277.563 340.450,277.886 336.883 L 278.111 334.400 280.741 334.400 C 282.849 334.400,283.534 334.239,284.186 333.589 C 284.634 333.143,285.630 332.376,286.400 331.884 C 287.170 331.392,288.130 330.317,288.533 329.495 L 289.266 328.000 292.156 328.000 C 295.978 328.000,296.491 327.601,296.719 324.454 C 296.914 321.747,296.857 321.783,300.645 321.985 C 302.252 322.071,303.271 321.052,303.185 319.445 C 303.149 318.760,303.137 317.615,303.159 316.900 L 303.200 315.600 305.567 315.600 C 309.170 315.600,309.200 315.571,309.200 312.157 L 309.200 309.200 312.157 309.200 C 315.571 309.200,315.600 309.170,315.600 305.567 L 315.600 303.200 316.900 303.159 C 317.615 303.137,318.760 303.149,319.445 303.185 C 321.052 303.271,322.071 302.252,321.985 300.645 C 321.783 296.857,321.747 296.914,324.454 296.719 C 327.531 296.496,328.000 295.941,328.000 292.524 C 328.000 290.773,328.153 289.999,328.500 289.998 C 331.232 289.986,333.595 287.911,333.599 285.524 C 333.599 284.932,333.791 284.329,334.024 284.185 C 334.257 284.041,334.417 283.536,334.379 283.062 C 334.342 282.588,334.331 281.255,334.356 280.100 L 334.400 278.000 336.100 277.960 C 340.199 277.864,340.858 276.685,340.696 269.736 L 340.600 265.618 342.400 265.387 C 346.770 264.827,346.498 265.474,346.710 255.118 L 346.880 246.837 348.740 246.585 C 351.604 246.197,352.010 246.012,352.523 244.866 C 353.251 243.240,353.440 162.399,352.717 161.940 C 352.305 161.679,352.314 161.611,352.758 161.606 C 353.210 161.601,353.264 160.990,353.044 158.348 C 352.685 154.044,352.346 153.440,350.461 153.743 C 349.453 153.905,349.186 153.859,349.600 153.595 C 350.036 153.317,349.735 153.211,348.500 153.206 L 346.800 153.200 346.783 146.100 C 346.757 135.583,346.457 134.621,343.307 134.933 C 342.376 135.025,341.712 134.943,341.831 134.750 C 341.950 134.558,341.722 134.400,341.324 134.400 C 340.668 134.401,340.609 134.032,340.695 130.500 C 340.866 123.419,340.169 122.135,336.100 122.040 L 334.400 122.000 334.369 120.300 C 334.238 113.067,332.502 110.020,328.500 110.002 C 328.152 110.001,328.000 109.212,328.000 107.400 C 328.000 103.869,327.219 103.033,324.154 103.287 L 322.000 103.466 321.978 102.233 C 321.884 96.919,321.942 97.004,318.369 97.002 L 315.601 97.000 315.594 94.400 C 315.586 90.981,315.467 90.846,312.597 90.971 C 309.179 91.121,309.200 91.140,309.200 87.784 C 309.200 84.644,308.714 83.993,306.817 84.594 C 305.266 85.087,303.200 84.399,303.200 83.389 C 303.200 82.882,302.975 82.376,302.700 82.265 C 302.300 82.104,302.300 82.057,302.700 82.032 C 303.295 81.994,303.362 80.250,302.808 79.215 C 302.513 78.664,301.734 78.414,299.654 78.205 L 296.891 77.928 296.716 75.510 C 296.490 72.391,295.861 71.857,292.727 72.125 C 290.201 72.341,290.000 72.166,290.000 69.749 C 290.000 67.337,284.180 64.452,282.015 65.791 C 281.785 65.933,280.812 65.931,279.851 65.787 L 278.104 65.525 277.886 63.116 C 277.588 59.830,277.571 59.820,271.481 59.666 C 265.531 59.515,265.200 59.375,265.200 56.995 C 265.200 53.505,264.925 53.406,255.275 53.412 L 246.874 53.418 246.604 50.896 C 246.152 46.677,250.582 47.063,202.263 47.029 C 179.128 47.013,159.012 47.090,157.560 47.200 M200.280 84.400 C 212.252 84.400,215.607 84.291,215.632 83.900 C 215.657 83.500,215.704 83.500,215.865 83.900 C 216.018 84.280,218.274 84.400,225.233 84.400 L 234.400 84.400 234.400 86.024 C 234.400 86.917,234.547 87.556,234.728 87.445 C 234.908 87.333,234.980 87.757,234.887 88.386 C 234.620 90.207,235.760 90.559,242.000 90.581 L 247.400 90.600 247.429 91.800 C 247.519 95.608,248.699 96.345,255.261 96.691 L 259.600 96.920 259.600 99.016 C 259.600 102.592,260.007 102.828,266.642 103.091 L 272.260 103.313 272.230 106.157 L 272.200 109.000 275.067 109.117 L 277.935 109.234 278.215 112.221 C 278.530 115.584,278.440 115.509,282.385 115.696 C 284.501 115.797,284.579 115.841,284.835 117.100 C 284.980 117.815,284.942 118.400,284.749 118.400 C 284.290 118.400,284.310 120.439,284.777 121.177 C 285.020 121.561,286.043 121.797,287.846 121.885 C 291.150 122.046,290.985 121.876,290.993 125.127 L 291.000 127.800 293.900 127.918 C 295.810 127.995,296.810 128.200,296.831 128.518 C 296.848 128.783,296.942 131.135,297.040 133.744 C 297.257 139.499,297.425 139.876,299.901 140.197 C 303.620 140.680,303.404 140.487,303.362 143.283 C 303.341 144.667,303.470 146.340,303.648 147.000 C 303.826 147.660,304.073 148.700,304.196 149.310 C 304.508 150.856,305.686 151.906,307.478 152.235 C 309.555 152.617,309.587 152.712,309.594 158.526 C 309.602 164.978,309.653 165.078,313.147 165.422 L 315.893 165.693 315.867 178.746 C 315.852 185.926,315.891 195.438,315.954 199.884 C 316.016 204.331,315.969 208.127,315.849 208.321 C 315.729 208.515,315.691 214.462,315.763 221.537 L 315.896 234.400 313.924 234.400 C 312.840 234.400,312.048 234.554,312.164 234.742 C 312.281 234.930,311.965 235.006,311.464 234.910 C 309.883 234.608,309.638 235.477,309.577 241.620 L 309.520 247.400 307.488 247.444 C 304.699 247.504,303.469 248.849,303.666 251.625 C 303.740 252.670,303.688 253.455,303.550 253.370 C 303.413 253.284,303.336 254.651,303.381 256.407 L 303.461 259.600 301.431 259.605 C 297.242 259.617,297.191 259.691,297.017 266.067 C 296.955 268.340,296.880 270.671,296.852 271.247 C 296.801 272.280,296.761 272.293,293.900 272.247 L 291.000 272.200 291.012 275.269 C 291.019 276.957,290.883 278.252,290.711 278.145 C 289.941 277.669,284.756 278.509,284.973 279.075 C 285.094 279.389,285.014 279.532,284.794 279.396 C 284.539 279.239,284.465 280.181,284.587 282.026 L 284.777 284.901 281.947 284.622 C 279.993 284.430,279.199 284.474,279.380 284.767 C 279.534 285.017,279.409 285.102,279.075 284.973 C 278.498 284.752,277.673 289.948,278.160 290.735 C 278.275 290.921,276.981 291.056,275.284 291.036 L 272.200 291.000 272.232 293.900 C 272.257 296.275,272.149 296.806,271.632 296.835 C 271.284 296.855,268.750 296.944,266.000 297.034 C 260.005 297.229,259.600 297.489,259.600 301.144 L 259.599 303.400 255.290 303.457 C 250.136 303.525,248.162 304.159,247.773 305.874 C 247.632 306.493,247.390 307.540,247.234 308.200 L 246.951 309.400 241.376 309.600 C 235.172 309.823,234.648 309.986,234.889 311.626 C 234.981 312.249,234.908 312.667,234.728 312.555 C 234.547 312.444,234.400 313.151,234.400 314.127 L 234.400 315.901 222.118 315.777 C 215.363 315.710,209.655 315.766,209.434 315.902 C 209.213 316.039,208.250 316.103,207.294 316.044 C 204.550 315.875,203.753 316.643,203.417 319.777 L 203.136 322.400 200.000 322.400 L 196.864 322.400 196.583 319.777 C 196.137 315.618,196.890 315.798,179.967 315.810 L 165.699 315.820 165.458 313.238 C 165.136 309.789,165.212 309.830,158.690 309.600 L 153.017 309.400 152.709 308.300 C 152.539 307.695,152.264 306.705,152.098 306.100 C 151.610 304.324,149.542 303.577,144.850 303.481 L 140.840 303.400 140.599 301.800 C 139.898 297.159,140.071 297.279,133.744 297.040 C 131.135 296.942,128.783 296.848,128.518 296.831 C 128.200 296.810,127.995 295.810,127.918 293.900 L 127.800 291.000 125.000 291.000 L 122.200 291.000 121.975 288.108 C 121.697 284.541,121.738 284.579,118.364 284.694 L 115.600 284.787 115.594 282.094 C 115.586 278.617,115.524 278.548,112.117 278.209 L 109.233 277.922 109.117 275.061 L 109.000 272.200 106.153 272.230 L 103.307 272.261 103.105 266.656 C 102.866 260.007,102.627 259.600,98.956 259.600 L 96.800 259.600 96.792 256.900 C 96.771 249.782,95.929 247.878,92.583 247.377 C 91.117 247.157,90.798 246.957,90.789 246.255 C 90.641 234.617,90.555 234.425,85.500 234.404 L 84.400 234.400 84.368 221.900 C 84.351 215.025,84.203 207.870,84.041 206.000 C 83.878 204.130,83.919 198.487,84.131 193.459 C 84.455 185.772,84.427 184.263,83.958 183.966 C 83.559 183.713,83.542 183.611,83.900 183.606 C 84.285 183.601,84.400 181.538,84.400 174.639 L 84.400 165.679 86.726 165.409 C 90.379 164.985,90.868 163.861,90.691 156.300 C 90.604 152.575,90.638 152.400,91.440 152.400 C 94.988 152.401,96.155 150.463,96.743 143.600 C 96.985 140.775,97.058 140.594,98.000 140.492 C 102.521 140.004,102.695 139.752,103.039 133.187 C 103.349 127.276,102.959 127.918,106.280 127.853 L 109.000 127.800 109.118 124.900 L 109.235 122.000 110.518 121.959 C 111.223 121.937,112.360 121.949,113.045 121.985 C 113.744 122.023,114.579 121.764,114.945 121.397 C 115.715 120.628,115.827 118.414,115.100 118.368 C 114.700 118.343,114.700 118.296,115.100 118.135 C 115.375 118.024,115.600 117.408,115.600 116.767 L 115.600 115.600 118.171 115.600 C 121.543 115.600,122.000 115.145,122.000 111.789 L 122.000 109.235 124.900 109.118 L 127.800 109.000 127.874 106.600 C 127.914 105.280,127.959 103.975,127.974 103.700 C 127.993 103.340,129.034 103.193,131.700 103.176 C 139.113 103.128,139.826 102.815,140.440 99.331 L 140.865 96.917 144.801 96.677 C 150.442 96.333,152.389 95.322,152.406 92.726 C 152.418 90.960,152.782 90.833,158.215 90.697 C 164.784 90.532,165.051 90.395,165.414 87.003 L 165.693 84.400 174.847 84.400 C 181.699 84.400,184.000 84.279,184.000 83.920 C 184.000 83.547,184.107 83.547,184.480 83.920 C 184.837 84.277,188.898 84.400,200.280 84.400 M160.967 84.747 C 161.085 84.937,160.843 85.399,160.430 85.773 C 159.831 86.315,159.618 86.346,159.376 85.926 C 159.208 85.637,159.219 85.533,159.399 85.697 C 159.815 86.073,160.866 85.230,160.572 84.755 C 160.451 84.560,160.443 84.400,160.553 84.400 C 160.663 84.400,160.849 84.556,160.967 84.747 M74.091 104.016 C 73.590 104.217,73.017 104.790,72.816 105.291 C 72.615 105.791,72.439 105.944,72.425 105.631 C 72.390 104.841,73.593 103.595,74.362 103.625 C 74.773 103.642,74.676 103.781,74.091 104.016 M155.441 134.866 C 155.571 135.077,155.205 135.116,154.576 134.958 C 153.538 134.698,153.497 134.741,153.754 135.842 C 153.960 136.724,153.922 136.857,153.596 136.400 C 153.278 135.954,153.197 136.469,153.284 138.400 L 153.400 141.000 150.313 140.960 C 148.616 140.938,147.321 141.073,147.437 141.260 C 147.553 141.447,147.467 141.600,147.246 141.600 C 147.000 141.600,146.908 142.678,147.009 144.384 L 147.175 147.168 144.387 146.984 C 142.578 146.865,141.600 146.949,141.600 147.224 C 141.600 147.457,141.443 147.550,141.252 147.432 C 141.060 147.314,140.949 148.668,141.004 150.442 L 141.103 153.667 138.790 153.399 C 136.082 153.085,134.610 153.631,134.925 154.835 C 135.035 155.256,134.962 155.500,134.763 155.377 C 134.563 155.254,134.400 155.963,134.400 156.953 C 134.400 157.943,134.589 158.869,134.819 159.012 C 135.106 159.189,135.090 159.451,134.769 159.838 C 134.199 160.524,134.478 164.238,135.151 164.911 C 135.406 165.166,136.832 165.443,138.319 165.528 L 141.024 165.680 140.954 168.449 C 140.879 171.437,141.350 172.139,143.322 171.981 C 143.805 171.943,144.830 171.931,145.600 171.956 L 147.000 172.000 147.000 174.300 C 147.000 177.862,147.124 178.000,150.336 178.000 L 153.098 178.000 153.347 179.559 C 153.484 180.417,153.488 181.660,153.356 182.322 C 153.078 183.710,154.069 184.506,155.925 184.385 C 156.516 184.347,157.585 184.334,158.300 184.358 L 159.600 184.400 159.600 187.186 C 159.600 190.189,160.127 190.941,162.122 190.781 C 165.301 190.528,165.906 190.741,166.073 192.172 C 166.161 192.927,166.090 193.456,165.916 193.348 C 165.454 193.063,165.529 195.121,166.014 196.026 C 166.367 196.685,166.871 196.800,169.414 196.800 L 172.400 196.800 172.400 200.110 L 172.400 203.421 169.388 203.368 C 167.730 203.339,166.264 203.497,166.126 203.719 C 165.977 203.962,166.102 204.007,166.438 203.832 C 166.747 203.672,166.663 203.815,166.252 204.150 C 165.667 204.626,165.560 205.064,165.765 206.156 C 166.310 209.060,165.877 209.552,162.661 209.683 L 159.800 209.800 159.683 212.661 C 159.552 215.877,159.060 216.310,156.156 215.765 C 155.064 215.560,154.626 215.667,154.150 216.252 C 153.815 216.663,153.672 216.747,153.832 216.438 C 154.007 216.102,153.962 215.977,153.719 216.126 C 153.497 216.264,153.339 217.709,153.367 219.338 L 153.419 222.301 150.497 222.210 C 148.863 222.159,147.464 222.296,147.325 222.521 C 147.171 222.771,147.290 222.798,147.638 222.593 C 147.947 222.411,147.861 222.649,147.447 223.121 C 146.830 223.825,146.742 224.342,146.961 225.990 L 147.228 228.000 145.314 228.047 C 144.261 228.073,142.860 228.210,142.200 228.351 L 141.000 228.608 141.012 231.658 L 141.024 234.708 138.651 234.493 C 137.154 234.357,136.366 234.422,136.519 234.669 C 136.652 234.883,136.364 235.046,135.880 235.030 C 135.223 235.007,135.007 235.223,135.030 235.880 C 135.046 236.364,134.911 236.669,134.730 236.557 C 134.253 236.262,134.324 239.510,134.814 240.426 C 135.113 240.984,135.099 241.200,134.765 241.200 C 134.446 241.200,134.359 241.905,134.488 243.460 C 134.721 246.265,135.353 246.800,138.433 246.800 C 141.024 246.800,141.123 246.945,141.016 250.600 C 140.944 253.057,141.121 253.186,144.552 253.194 L 147.303 253.200 147.040 255.184 C 146.546 258.908,146.795 259.200,150.463 259.200 L 153.640 259.200 153.361 261.660 C 153.171 263.345,153.216 264.037,153.504 263.859 C 153.764 263.698,153.848 263.893,153.724 264.369 C 153.462 265.369,155.678 265.739,160.750 265.541 C 165.081 265.372,165.312 265.191,165.528 261.799 L 165.693 259.200 168.398 259.200 C 171.334 259.200,172.120 258.745,171.987 257.121 C 171.946 256.615,171.931 255.525,171.956 254.700 L 172.000 253.200 174.226 253.200 C 177.668 253.200,178.000 252.882,178.000 249.586 L 178.000 246.800 180.751 246.800 C 184.055 246.800,184.313 246.560,184.346 243.448 C 184.377 240.580,184.188 240.761,187.158 240.747 C 189.925 240.734,190.889 240.122,190.782 238.447 C 190.562 235.012,190.742 234.400,191.967 234.400 C 192.608 234.400,193.224 234.175,193.335 233.900 C 193.496 233.500,193.543 233.500,193.568 233.900 C 193.607 234.506,194.965 234.554,196.026 233.986 C 196.678 233.637,196.800 233.131,196.800 230.786 L 196.800 228.000 199.949 228.000 L 203.098 228.000 203.347 229.559 C 203.484 230.417,203.488 231.660,203.356 232.322 C 203.078 233.710,204.069 234.506,205.925 234.385 C 206.516 234.347,207.585 234.334,208.300 234.358 L 209.600 234.400 209.600 237.186 C 209.600 240.189,210.127 240.941,212.122 240.781 C 212.605 240.743,213.696 240.731,214.546 240.756 L 216.092 240.800 215.820 242.978 C 215.402 246.323,215.826 246.800,219.214 246.800 L 222.000 246.800 222.081 248.300 C 222.125 249.125,222.130 250.391,222.091 251.114 C 222.019 252.464,223.136 253.323,224.764 253.168 C 227.743 252.885,227.863 252.986,228.245 256.100 L 228.600 259.000 231.669 259.116 L 234.739 259.233 234.513 261.416 C 234.362 262.883,234.434 263.600,234.731 263.600 C 234.975 263.600,235.072 263.867,234.947 264.194 C 234.547 265.237,236.698 265.678,241.469 265.533 C 246.736 265.372,246.534 265.509,246.733 261.979 L 246.890 259.200 249.802 259.200 C 253.166 259.200,253.200 259.163,253.200 255.567 L 253.200 253.200 255.567 253.200 C 259.170 253.200,259.200 253.171,259.200 249.757 L 259.200 246.800 261.524 246.800 C 264.651 246.800,265.278 246.274,265.512 243.460 C 265.656 241.721,265.572 241.199,265.150 241.194 C 264.685 241.189,264.685 241.134,265.151 240.839 C 265.816 240.418,265.613 235.853,264.898 235.138 C 264.212 234.452,260.515 234.206,259.802 234.798 C 259.274 235.236,259.200 234.899,259.200 232.073 C 259.200 228.366,259.274 228.451,255.816 228.129 L 253.200 227.884 253.200 225.716 C 253.200 222.373,252.940 222.117,249.621 222.201 L 246.800 222.272 246.800 219.350 C 246.800 215.947,246.260 215.351,243.591 215.802 C 241.169 216.211,240.642 215.692,240.704 212.958 C 240.775 209.879,240.480 209.600,237.151 209.600 L 234.400 209.600 234.354 207.900 C 234.329 206.965,234.339 205.892,234.376 205.516 C 234.549 203.796,233.784 203.334,230.822 203.368 L 228.000 203.400 228.000 200.100 L 228.000 196.800 230.786 196.800 C 233.131 196.800,233.637 196.678,233.986 196.026 C 234.550 194.973,234.507 193.710,233.900 193.465 C 233.500 193.304,233.500 193.257,233.900 193.232 C 234.182 193.214,234.400 192.676,234.400 192.000 C 234.400 190.737,234.986 190.561,238.447 190.782 C 239.788 190.868,240.868 189.788,240.782 188.447 C 240.562 185.012,240.742 184.400,241.967 184.400 C 242.608 184.400,243.224 184.175,243.335 183.900 C 243.496 183.500,243.543 183.500,243.568 183.900 C 243.607 184.506,244.965 184.554,246.026 183.986 C 246.678 183.637,246.800 183.131,246.800 180.786 L 246.800 178.000 249.586 178.000 C 252.882 178.000,253.200 177.668,253.200 174.226 L 253.200 172.000 254.700 171.956 C 255.525 171.931,256.615 171.946,257.121 171.987 C 258.745 172.120,259.200 171.334,259.200 168.398 L 259.200 165.693 261.799 165.528 C 265.272 165.307,265.376 165.155,265.531 160.081 C 265.672 155.457,265.220 153.353,264.174 153.755 C 263.779 153.906,263.659 153.828,263.839 153.537 C 264.043 153.206,263.452 153.159,261.660 153.361 L 259.200 153.640 259.200 150.427 C 259.200 146.765,259.158 146.726,255.400 146.905 L 253.400 147.000 253.296 144.800 C 253.107 140.775,253.224 140.903,249.807 140.991 L 246.800 141.069 246.795 138.834 C 246.787 135.702,246.463 134.690,245.545 134.930 C 245.135 135.037,244.800 134.962,244.800 134.763 C 244.800 134.276,241.711 134.296,241.409 134.785 C 241.257 135.031,240.808 135.031,240.160 134.785 C 238.815 134.273,236.281 134.284,236.600 134.799 C 236.742 135.030,236.456 135.157,235.923 135.099 C 235.174 135.019,235.019 135.174,235.099 135.923 C 235.165 136.537,235.043 136.750,234.736 136.560 C 234.395 136.350,234.338 136.901,234.521 138.649 L 234.769 141.025 231.689 141.012 L 228.608 141.000 228.351 142.200 C 228.210 142.860,228.073 144.261,228.047 145.314 L 228.000 147.228 225.990 146.961 C 224.342 146.742,223.825 146.830,223.121 147.447 C 222.649 147.861,222.411 147.947,222.593 147.638 C 222.796 147.293,222.770 147.171,222.527 147.322 C 222.308 147.457,222.162 148.834,222.201 150.384 L 222.272 153.200 220.836 153.280 C 220.046 153.324,218.737 153.322,217.926 153.276 C 217.116 153.229,216.323 153.401,216.164 153.658 C 215.974 153.966,216.067 154.025,216.438 153.832 C 216.747 153.672,216.681 153.802,216.292 154.120 C 215.734 154.577,215.607 155.198,215.692 157.050 L 215.800 159.400 212.800 159.600 L 209.800 159.800 209.683 162.661 C 209.552 165.877,209.060 166.310,206.156 165.765 C 205.064 165.560,204.626 165.667,204.150 166.252 C 203.815 166.663,203.672 166.747,203.832 166.438 C 204.007 166.102,203.962 165.977,203.719 166.126 C 203.497 166.264,203.339 167.730,203.368 169.388 L 203.421 172.400 200.110 172.400 L 196.800 172.400 196.800 169.414 C 196.800 165.941,196.274 165.348,193.591 165.802 C 191.169 166.211,190.642 165.692,190.704 162.958 C 190.775 159.879,190.480 159.600,187.151 159.600 L 184.400 159.600 184.356 158.100 C 184.331 157.275,184.343 156.205,184.381 155.722 C 184.508 154.141,183.656 153.089,182.447 153.331 C 181.854 153.449,180.610 153.445,179.684 153.321 L 178.000 153.095 178.000 150.337 C 178.000 147.101,177.310 146.536,173.900 146.980 C 172.499 147.163,171.991 147.093,171.964 146.714 C 171.945 146.431,171.935 145.217,171.943 144.015 C 171.962 141.176,171.676 140.892,168.897 140.997 C 165.742 141.116,165.600 141.021,165.600 138.783 C 165.600 136.309,164.989 134.642,164.194 134.947 C 163.867 135.072,163.600 135.023,163.600 134.837 C 163.600 134.652,161.713 134.500,159.407 134.500 C 156.973 134.500,155.309 134.654,155.441 134.866 M335.767 271.947 C 335.885 272.137,335.655 272.588,335.257 272.948 C 334.585 273.557,334.533 273.553,334.527 272.902 C 334.524 272.516,334.719 272.068,334.961 271.906 C 335.517 271.534,335.512 271.533,335.767 271.947 " stroke="none" fill="#5c5c5c" fill-rule="evenodd"></path><path id="path1" d="M165.911 47.093 C 166.851 47.178,168.291 47.177,169.111 47.091 C 169.930 47.005,169.160 46.936,167.400 46.937 C 165.640 46.939,164.970 47.009,165.911 47.093 M191.300 47.100 C 196.085 47.163,203.915 47.163,208.700 47.100 C 213.485 47.036,209.570 46.984,200.000 46.984 C 190.430 46.984,186.515 47.036,191.300 47.100 M230.900 47.091 C 231.725 47.178,233.075 47.178,233.900 47.091 C 234.725 47.005,234.050 46.934,232.400 46.934 C 230.750 46.934,230.075 47.005,230.900 47.091 M151.300 53.476 C 151.685 53.576,152.315 53.576,152.700 53.476 C 153.085 53.375,152.770 53.293,152.000 53.293 C 151.230 53.293,150.915 53.375,151.300 53.476 M247.300 53.476 C 247.685 53.576,248.315 53.576,248.700 53.476 C 249.085 53.375,248.770 53.293,248.000 53.293 C 247.230 53.293,246.915 53.375,247.300 53.476 M160.572 84.755 C 160.866 85.230,159.815 86.073,159.399 85.697 C 159.219 85.533,159.208 85.637,159.376 85.926 C 159.618 86.346,159.831 86.315,160.430 85.773 C 161.083 85.182,161.152 84.400,160.553 84.400 C 160.443 84.400,160.451 84.560,160.572 84.755 M73.062 104.331 C 72.698 104.734,72.411 105.319,72.425 105.631 C 72.439 105.944,72.615 105.791,72.816 105.291 C 73.017 104.790,73.590 104.217,74.091 104.016 C 74.676 103.781,74.773 103.642,74.362 103.625 C 74.011 103.611,73.426 103.929,73.062 104.331 M72.093 108.400 C 72.093 109.170,72.175 109.485,72.276 109.100 C 72.376 108.715,72.376 108.085,72.276 107.700 C 72.175 107.315,72.093 107.630,72.093 108.400 M284.400 117.200 C 284.400 117.860,284.549 118.400,284.731 118.400 C 284.913 118.400,284.982 117.860,284.885 117.200 C 284.788 116.540,284.640 116.000,284.555 116.000 C 284.470 116.000,284.400 116.540,284.400 117.200 M65.693 119.200 C 65.693 119.970,65.775 120.285,65.876 119.900 C 65.976 119.515,65.976 118.885,65.876 118.500 C 65.775 118.115,65.693 118.430,65.693 119.200 M239.600 134.553 C 239.600 134.908,241.218 135.094,241.423 134.762 C 241.546 134.563,241.187 134.400,240.624 134.400 C 240.061 134.400,239.600 134.469,239.600 134.553 M153.246 139.671 C 153.218 140.328,152.929 140.812,152.500 140.924 C 151.844 141.096,151.845 141.110,152.513 141.154 C 153.324 141.206,153.756 140.389,153.480 139.323 C 153.354 138.837,153.278 138.951,153.246 139.671 M146.901 145.000 C 146.905 145.880,146.987 146.193,147.083 145.695 C 147.179 145.198,147.175 144.478,147.075 144.095 C 146.975 143.713,146.896 144.120,146.901 145.000 M144.500 147.076 C 144.885 147.176,145.515 147.176,145.900 147.076 C 146.285 146.975,145.970 146.893,145.200 146.893 C 144.430 146.893,144.115 146.975,144.500 147.076 M254.100 147.076 C 254.485 147.176,255.115 147.176,255.500 147.076 C 255.885 146.975,255.570 146.893,254.800 146.893 C 254.030 146.893,253.715 146.975,254.100 147.076 M53.293 151.200 C 53.293 151.970,53.375 152.285,53.476 151.900 C 53.576 151.515,53.576 150.885,53.476 150.500 C 53.375 150.115,53.293 150.430,53.293 151.200 M140.800 152.773 C 140.800 152.979,140.305 153.222,139.700 153.313 C 138.676 153.469,138.690 153.484,139.900 153.540 C 140.816 153.582,141.200 153.423,141.200 153.000 C 141.200 152.670,141.110 152.400,141.000 152.400 C 140.890 152.400,140.800 152.568,140.800 152.773 M215.693 158.000 C 215.693 158.770,215.775 159.085,215.876 158.700 C 215.976 158.315,215.976 157.685,215.876 157.300 C 215.775 156.915,215.693 157.230,215.693 158.000 M46.937 167.000 C 46.939 168.760,47.009 169.430,47.093 168.489 C 47.178 167.549,47.177 166.109,47.091 165.289 C 47.005 164.470,46.936 165.240,46.937 167.000 M315.728 168.000 C 315.728 169.430,315.801 170.015,315.889 169.300 C 315.978 168.585,315.978 167.415,315.889 166.700 C 315.801 165.985,315.728 166.570,315.728 168.000 M200.000 172.000 L 196.600 172.251 200.100 172.325 C 202.216 172.371,203.600 172.242,203.600 172.000 C 203.600 171.780,203.555 171.634,203.500 171.675 C 203.445 171.716,201.870 171.862,200.000 172.000 M315.737 180.200 C 315.739 181.960,315.809 182.630,315.893 181.689 C 315.978 180.749,315.977 179.309,315.891 178.489 C 315.805 177.670,315.736 178.440,315.737 180.200 M46.983 199.800 C 46.983 209.040,47.036 212.763,47.100 208.073 C 47.164 203.383,47.164 195.823,47.099 191.273 C 47.035 186.723,46.983 190.560,46.983 199.800 M165.600 191.976 C 165.600 192.623,165.742 193.241,165.916 193.348 C 166.090 193.456,166.161 192.927,166.073 192.172 C 165.876 190.491,165.600 190.377,165.600 191.976 M171.929 200.201 C 171.858 202.071,171.935 203.601,172.100 203.601 C 172.265 203.600,172.400 202.070,172.400 200.200 C 172.400 195.807,172.097 195.807,171.929 200.201 M315.737 219.800 C 315.739 221.560,315.809 222.230,315.893 221.289 C 315.978 220.349,315.977 218.909,315.891 218.089 C 315.805 217.270,315.736 218.040,315.737 219.800 M46.937 233.000 C 46.939 234.760,47.009 235.430,47.093 234.489 C 47.178 233.549,47.177 232.109,47.091 231.289 C 47.005 230.470,46.936 231.240,46.937 233.000 M315.724 232.200 C 315.726 233.520,315.801 234.012,315.890 233.293 C 315.979 232.574,315.977 231.494,315.886 230.893 C 315.795 230.292,315.722 230.880,315.724 232.200 M215.693 242.000 C 215.693 242.770,215.775 243.085,215.876 242.700 C 215.976 242.315,215.976 241.685,215.876 241.300 C 215.775 240.915,215.693 241.230,215.693 242.000 M53.293 248.400 C 53.293 249.170,53.375 249.485,53.476 249.100 C 53.576 248.715,53.576 248.085,53.476 247.700 C 53.375 247.315,53.293 247.630,53.293 248.400 M146.893 254.400 C 146.893 255.170,146.975 255.485,147.076 255.100 C 147.176 254.715,147.176 254.085,147.076 253.700 C 146.975 253.315,146.893 253.630,146.893 254.400 M296.893 268.800 C 296.893 269.570,296.975 269.885,297.076 269.500 C 297.176 269.115,297.176 268.485,297.076 268.100 C 296.975 267.715,296.893 268.030,296.893 268.800 M334.961 271.906 C 334.719 272.068,334.524 272.516,334.527 272.902 C 334.533 273.553,334.585 273.557,335.257 272.948 C 336.148 272.142,335.901 271.277,334.961 271.906 M65.693 280.800 C 65.693 281.570,65.775 281.885,65.876 281.500 C 65.976 281.115,65.976 280.485,65.876 280.100 C 65.775 279.715,65.693 280.030,65.693 280.800 M284.493 282.800 C 284.493 283.570,284.575 283.885,284.676 283.500 C 284.776 283.115,284.776 282.485,284.676 282.100 C 284.575 281.715,284.493 282.030,284.493 282.800 M116.305 284.683 C 116.802 284.779,117.522 284.775,117.905 284.675 C 118.287 284.575,117.880 284.496,117.000 284.501 C 116.120 284.505,115.807 284.587,116.305 284.683 M282.300 284.682 C 282.795 284.778,283.605 284.778,284.100 284.682 C 284.595 284.587,284.190 284.509,283.200 284.509 C 282.210 284.509,281.805 284.587,282.300 284.682 M268.100 297.076 C 268.485 297.176,269.115 297.176,269.500 297.076 C 269.885 296.975,269.570 296.893,268.800 296.893 C 268.030 296.893,267.715 296.975,268.100 297.076 M166.700 315.889 C 167.415 315.978,168.585 315.978,169.300 315.889 C 170.015 315.801,169.430 315.728,168.000 315.728 C 166.570 315.728,165.985 315.801,166.700 315.889 M179.111 315.893 C 180.051 315.978,181.491 315.977,182.311 315.891 C 183.130 315.805,182.360 315.736,180.600 315.737 C 178.840 315.739,178.170 315.809,179.111 315.893 M217.911 315.893 C 218.851 315.978,220.291 315.977,221.111 315.891 C 221.930 315.805,221.160 315.736,219.400 315.737 C 217.640 315.739,216.970 315.809,217.911 315.893 M230.700 315.889 C 231.415 315.978,232.585 315.978,233.300 315.889 C 234.015 315.801,233.430 315.728,232.000 315.728 C 230.570 315.728,229.985 315.801,230.700 315.889 M198.300 322.293 C 199.235 322.377,200.765 322.377,201.700 322.293 C 202.635 322.209,201.870 322.140,200.000 322.140 C 198.130 322.140,197.365 322.209,198.300 322.293 " stroke="none" fill="#605c5c" fill-rule="evenodd"></path><path id="path2" d="M165.911 47.093 C 166.851 47.178,168.291 47.177,169.111 47.091 C 169.930 47.005,169.160 46.936,167.400 46.937 C 165.640 46.939,164.970 47.009,165.911 47.093 M191.300 47.100 C 196.085 47.163,203.915 47.163,208.700 47.100 C 213.485 47.036,209.570 46.984,200.000 46.984 C 190.430 46.984,186.515 47.036,191.300 47.100 M230.900 47.091 C 231.725 47.178,233.075 47.178,233.900 47.091 C 234.725 47.005,234.050 46.934,232.400 46.934 C 230.750 46.934,230.075 47.005,230.900 47.091 M151.300 53.476 C 151.685 53.576,152.315 53.576,152.700 53.476 C 153.085 53.375,152.770 53.293,152.000 53.293 C 151.230 53.293,150.915 53.375,151.300 53.476 M247.300 53.476 C 247.685 53.576,248.315 53.576,248.700 53.476 C 249.085 53.375,248.770 53.293,248.000 53.293 C 247.230 53.293,246.915 53.375,247.300 53.476 M160.572 84.755 C 160.866 85.230,159.815 86.073,159.399 85.697 C 159.219 85.533,159.208 85.637,159.376 85.926 C 159.618 86.346,159.831 86.315,160.430 85.773 C 161.083 85.182,161.152 84.400,160.553 84.400 C 160.443 84.400,160.451 84.560,160.572 84.755 M73.062 104.331 C 72.698 104.734,72.411 105.319,72.425 105.631 C 72.439 105.944,72.615 105.791,72.816 105.291 C 73.017 104.790,73.590 104.217,74.091 104.016 C 74.676 103.781,74.773 103.642,74.362 103.625 C 74.011 103.611,73.426 103.929,73.062 104.331 M72.093 108.400 C 72.093 109.170,72.175 109.485,72.276 109.100 C 72.376 108.715,72.376 108.085,72.276 107.700 C 72.175 107.315,72.093 107.630,72.093 108.400 M284.400 117.200 C 284.400 117.860,284.549 118.400,284.731 118.400 C 284.913 118.400,284.982 117.860,284.885 117.200 C 284.788 116.540,284.640 116.000,284.555 116.000 C 284.470 116.000,284.400 116.540,284.400 117.200 M65.693 119.200 C 65.693 119.970,65.775 120.285,65.876 119.900 C 65.976 119.515,65.976 118.885,65.876 118.500 C 65.775 118.115,65.693 118.430,65.693 119.200 M239.600 134.553 C 239.600 134.908,241.218 135.094,241.423 134.762 C 241.546 134.563,241.187 134.400,240.624 134.400 C 240.061 134.400,239.600 134.469,239.600 134.553 M153.246 139.671 C 153.218 140.328,152.929 140.812,152.500 140.924 C 151.844 141.096,151.845 141.110,152.513 141.154 C 153.324 141.206,153.756 140.389,153.480 139.323 C 153.354 138.837,153.278 138.951,153.246 139.671 M146.901 145.000 C 146.905 145.880,146.987 146.193,147.083 145.695 C 147.179 145.198,147.175 144.478,147.075 144.095 C 146.975 143.713,146.896 144.120,146.901 145.000 M144.500 147.076 C 144.885 147.176,145.515 147.176,145.900 147.076 C 146.285 146.975,145.970 146.893,145.200 146.893 C 144.430 146.893,144.115 146.975,144.500 147.076 M254.100 147.076 C 254.485 147.176,255.115 147.176,255.500 147.076 C 255.885 146.975,255.570 146.893,254.800 146.893 C 254.030 146.893,253.715 146.975,254.100 147.076 M53.293 151.200 C 53.293 151.970,53.375 152.285,53.476 151.900 C 53.576 151.515,53.576 150.885,53.476 150.500 C 53.375 150.115,53.293 150.430,53.293 151.200 M140.800 152.773 C 140.800 152.979,140.305 153.222,139.700 153.313 C 138.676 153.469,138.690 153.484,139.900 153.540 C 140.816 153.582,141.200 153.423,141.200 153.000 C 141.200 152.670,141.110 152.400,141.000 152.400 C 140.890 152.400,140.800 152.568,140.800 152.773 M215.693 158.000 C 215.693 158.770,215.775 159.085,215.876 158.700 C 215.976 158.315,215.976 157.685,215.876 157.300 C 215.775 156.915,215.693 157.230,215.693 158.000 M46.937 167.000 C 46.939 168.760,47.009 169.430,47.093 168.489 C 47.178 167.549,47.177 166.109,47.091 165.289 C 47.005 164.470,46.936 165.240,46.937 167.000 M315.728 168.000 C 315.728 169.430,315.801 170.015,315.889 169.300 C 315.978 168.585,315.978 167.415,315.889 166.700 C 315.801 165.985,315.728 166.570,315.728 168.000 M200.000 172.000 L 196.600 172.251 200.100 172.325 C 202.216 172.371,203.600 172.242,203.600 172.000 C 203.600 171.780,203.555 171.634,203.500 171.675 C 203.445 171.716,201.870 171.862,200.000 172.000 M315.737 180.200 C 315.739 181.960,315.809 182.630,315.893 181.689 C 315.978 180.749,315.977 179.309,315.891 178.489 C 315.805 177.670,315.736 178.440,315.737 180.200 M46.983 199.800 C 46.983 209.040,47.036 212.763,47.100 208.073 C 47.164 203.383,47.164 195.823,47.099 191.273 C 47.035 186.723,46.983 190.560,46.983 199.800 M165.600 191.976 C 165.600 192.623,165.742 193.241,165.916 193.348 C 166.090 193.456,166.161 192.927,166.073 192.172 C 165.876 190.491,165.600 190.377,165.600 191.976 M171.929 200.201 C 171.858 202.071,171.935 203.601,172.100 203.601 C 172.265 203.600,172.400 202.070,172.400 200.200 C 172.400 195.807,172.097 195.807,171.929 200.201 M315.737 219.800 C 315.739 221.560,315.809 222.230,315.893 221.289 C 315.978 220.349,315.977 218.909,315.891 218.089 C 315.805 217.270,315.736 218.040,315.737 219.800 M46.937 233.000 C 46.939 234.760,47.009 235.430,47.093 234.489 C 47.178 233.549,47.177 232.109,47.091 231.289 C 47.005 230.470,46.936 231.240,46.937 233.000 M315.724 232.200 C 315.726 233.520,315.801 234.012,315.890 233.293 C 315.979 232.574,315.977 231.494,315.886 230.893 C 315.795 230.292,315.722 230.880,315.724 232.200 M215.693 242.000 C 215.693 242.770,215.775 243.085,215.876 242.700 C 215.976 242.315,215.976 241.685,215.876 241.300 C 215.775 240.915,215.693 241.230,215.693 242.000 M53.293 248.400 C 53.293 249.170,53.375 249.485,53.476 249.100 C 53.576 248.715,53.576 248.085,53.476 247.700 C 53.375 247.315,53.293 247.630,53.293 248.400 M146.893 254.400 C 146.893 255.170,146.975 255.485,147.076 255.100 C 147.176 254.715,147.176 254.085,147.076 253.700 C 146.975 253.315,146.893 253.630,146.893 254.400 M296.893 268.800 C 296.893 269.570,296.975 269.885,297.076 269.500 C 297.176 269.115,297.176 268.485,297.076 268.100 C 296.975 267.715,296.893 268.030,296.893 268.800 M334.961 271.906 C 334.719 272.068,334.524 272.516,334.527 272.902 C 334.533 273.553,334.585 273.557,335.257 272.948 C 336.148 272.142,335.901 271.277,334.961 271.906 M65.693 280.800 C 65.693 281.570,65.775 281.885,65.876 281.500 C 65.976 281.115,65.976 280.485,65.876 280.100 C 65.775 279.715,65.693 280.030,65.693 280.800 M284.493 282.800 C 284.493 283.570,284.575 283.885,284.676 283.500 C 284.776 283.115,284.776 282.485,284.676 282.100 C 284.575 281.715,284.493 282.030,284.493 282.800 M116.305 284.683 C 116.802 284.779,117.522 284.775,117.905 284.675 C 118.287 284.575,117.880 284.496,117.000 284.501 C 116.120 284.505,115.807 284.587,116.305 284.683 M282.300 284.682 C 282.795 284.778,283.605 284.778,284.100 284.682 C 284.595 284.587,284.190 284.509,283.200 284.509 C 282.210 284.509,281.805 284.587,282.300 284.682 M268.100 297.076 C 268.485 297.176,269.115 297.176,269.500 297.076 C 269.885 296.975,269.570 296.893,268.800 296.893 C 268.030 296.893,267.715 296.975,268.100 297.076 M166.700 315.889 C 167.415 315.978,168.585 315.978,169.300 315.889 C 170.015 315.801,169.430 315.728,168.000 315.728 C 166.570 315.728,165.985 315.801,166.700 315.889 M179.111 315.893 C 180.051 315.978,181.491 315.977,182.311 315.891 C 183.130 315.805,182.360 315.736,180.600 315.737 C 178.840 315.739,178.170 315.809,179.111 315.893 M217.911 315.893 C 218.851 315.978,220.291 315.977,221.111 315.891 C 221.930 315.805,221.160 315.736,219.400 315.737 C 217.640 315.739,216.970 315.809,217.911 315.893 M230.700 315.889 C 231.415 315.978,232.585 315.978,233.300 315.889 C 234.015 315.801,233.430 315.728,232.000 315.728 C 230.570 315.728,229.985 315.801,230.700 315.889 M198.300 322.293 C 199.235 322.377,200.765 322.377,201.700 322.293 C 202.635 322.209,201.870 322.140,200.000 322.140 C 198.130 322.140,197.365 322.209,198.300 322.293 " stroke="none" fill="#605c5c" fill-rule="evenodd"></path><path id="path3" d="M165.911 47.093 C 166.851 47.178,168.291 47.177,169.111 47.091 C 169.930 47.005,169.160 46.936,167.400 46.937 C 165.640 46.939,164.970 47.009,165.911 47.093 M191.300 47.100 C 196.085 47.163,203.915 47.163,208.700 47.100 C 213.485 47.036,209.570 46.984,200.000 46.984 C 190.430 46.984,186.515 47.036,191.300 47.100 M230.900 47.091 C 231.725 47.178,233.075 47.178,233.900 47.091 C 234.725 47.005,234.050 46.934,232.400 46.934 C 230.750 46.934,230.075 47.005,230.900 47.091 M151.300 53.476 C 151.685 53.576,152.315 53.576,152.700 53.476 C 153.085 53.375,152.770 53.293,152.000 53.293 C 151.230 53.293,150.915 53.375,151.300 53.476 M247.300 53.476 C 247.685 53.576,248.315 53.576,248.700 53.476 C 249.085 53.375,248.770 53.293,248.000 53.293 C 247.230 53.293,246.915 53.375,247.300 53.476 M160.572 84.755 C 160.866 85.230,159.815 86.073,159.399 85.697 C 159.219 85.533,159.208 85.637,159.376 85.926 C 159.618 86.346,159.831 86.315,160.430 85.773 C 161.083 85.182,161.152 84.400,160.553 84.400 C 160.443 84.400,160.451 84.560,160.572 84.755 M73.062 104.331 C 72.698 104.734,72.411 105.319,72.425 105.631 C 72.439 105.944,72.615 105.791,72.816 105.291 C 73.017 104.790,73.590 104.217,74.091 104.016 C 74.676 103.781,74.773 103.642,74.362 103.625 C 74.011 103.611,73.426 103.929,73.062 104.331 M72.093 108.400 C 72.093 109.170,72.175 109.485,72.276 109.100 C 72.376 108.715,72.376 108.085,72.276 107.700 C 72.175 107.315,72.093 107.630,72.093 108.400 M284.400 117.200 C 284.400 117.860,284.549 118.400,284.731 118.400 C 284.913 118.400,284.982 117.860,284.885 117.200 C 284.788 116.540,284.640 116.000,284.555 116.000 C 284.470 116.000,284.400 116.540,284.400 117.200 M65.693 119.200 C 65.693 119.970,65.775 120.285,65.876 119.900 C 65.976 119.515,65.976 118.885,65.876 118.500 C 65.775 118.115,65.693 118.430,65.693 119.200 M239.600 134.553 C 239.600 134.908,241.218 135.094,241.423 134.762 C 241.546 134.563,241.187 134.400,240.624 134.400 C 240.061 134.400,239.600 134.469,239.600 134.553 M153.246 139.671 C 153.218 140.328,152.929 140.812,152.500 140.924 C 151.844 141.096,151.845 141.110,152.513 141.154 C 153.324 141.206,153.756 140.389,153.480 139.323 C 153.354 138.837,153.278 138.951,153.246 139.671 M146.901 145.000 C 146.905 145.880,146.987 146.193,147.083 145.695 C 147.179 145.198,147.175 144.478,147.075 144.095 C 146.975 143.713,146.896 144.120,146.901 145.000 M144.500 147.076 C 144.885 147.176,145.515 147.176,145.900 147.076 C 146.285 146.975,145.970 146.893,145.200 146.893 C 144.430 146.893,144.115 146.975,144.500 147.076 M254.100 147.076 C 254.485 147.176,255.115 147.176,255.500 147.076 C 255.885 146.975,255.570 146.893,254.800 146.893 C 254.030 146.893,253.715 146.975,254.100 147.076 M53.293 151.200 C 53.293 151.970,53.375 152.285,53.476 151.900 C 53.576 151.515,53.576 150.885,53.476 150.500 C 53.375 150.115,53.293 150.430,53.293 151.200 M140.800 152.773 C 140.800 152.979,140.305 153.222,139.700 153.313 C 138.676 153.469,138.690 153.484,139.900 153.540 C 140.816 153.582,141.200 153.423,141.200 153.000 C 141.200 152.670,141.110 152.400,141.000 152.400 C 140.890 152.400,140.800 152.568,140.800 152.773 M215.693 158.000 C 215.693 158.770,215.775 159.085,215.876 158.700 C 215.976 158.315,215.976 157.685,215.876 157.300 C 215.775 156.915,215.693 157.230,215.693 158.000 M46.937 167.000 C 46.939 168.760,47.009 169.430,47.093 168.489 C 47.178 167.549,47.177 166.109,47.091 165.289 C 47.005 164.470,46.936 165.240,46.937 167.000 M315.728 168.000 C 315.728 169.430,315.801 170.015,315.889 169.300 C 315.978 168.585,315.978 167.415,315.889 166.700 C 315.801 165.985,315.728 166.570,315.728 168.000 M200.000 172.000 L 196.600 172.251 200.100 172.325 C 202.216 172.371,203.600 172.242,203.600 172.000 C 203.600 171.780,203.555 171.634,203.500 171.675 C 203.445 171.716,201.870 171.862,200.000 172.000 M315.737 180.200 C 315.739 181.960,315.809 182.630,315.893 181.689 C 315.978 180.749,315.977 179.309,315.891 178.489 C 315.805 177.670,315.736 178.440,315.737 180.200 M46.983 199.800 C 46.983 209.040,47.036 212.763,47.100 208.073 C 47.164 203.383,47.164 195.823,47.099 191.273 C 47.035 186.723,46.983 190.560,46.983 199.800 M165.600 191.976 C 165.600 192.623,165.742 193.241,165.916 193.348 C 166.090 193.456,166.161 192.927,166.073 192.172 C 165.876 190.491,165.600 190.377,165.600 191.976 M171.929 200.201 C 171.858 202.071,171.935 203.601,172.100 203.601 C 172.265 203.600,172.400 202.070,172.400 200.200 C 172.400 195.807,172.097 195.807,171.929 200.201 M315.737 219.800 C 315.739 221.560,315.809 222.230,315.893 221.289 C 315.978 220.349,315.977 218.909,315.891 218.089 C 315.805 217.270,315.736 218.040,315.737 219.800 M46.937 233.000 C 46.939 234.760,47.009 235.430,47.093 234.489 C 47.178 233.549,47.177 232.109,47.091 231.289 C 47.005 230.470,46.936 231.240,46.937 233.000 M315.724 232.200 C 315.726 233.520,315.801 234.012,315.890 233.293 C 315.979 232.574,315.977 231.494,315.886 230.893 C 315.795 230.292,315.722 230.880,315.724 232.200 M215.693 242.000 C 215.693 242.770,215.775 243.085,215.876 242.700 C 215.976 242.315,215.976 241.685,215.876 241.300 C 215.775 240.915,215.693 241.230,215.693 242.000 M53.293 248.400 C 53.293 249.170,53.375 249.485,53.476 249.100 C 53.576 248.715,53.576 248.085,53.476 247.700 C 53.375 247.315,53.293 247.630,53.293 248.400 M146.893 254.400 C 146.893 255.170,146.975 255.485,147.076 255.100 C 147.176 254.715,147.176 254.085,147.076 253.700 C 146.975 253.315,146.893 253.630,146.893 254.400 M296.893 268.800 C 296.893 269.570,296.975 269.885,297.076 269.500 C 297.176 269.115,297.176 268.485,297.076 268.100 C 296.975 267.715,296.893 268.030,296.893 268.800 M334.961 271.906 C 334.719 272.068,334.524 272.516,334.527 272.902 C 334.533 273.553,334.585 273.557,335.257 272.948 C 336.148 272.142,335.901 271.277,334.961 271.906 M65.693 280.800 C 65.693 281.570,65.775 281.885,65.876 281.500 C 65.976 281.115,65.976 280.485,65.876 280.100 C 65.775 279.715,65.693 280.030,65.693 280.800 M284.493 282.800 C 284.493 283.570,284.575 283.885,284.676 283.500 C 284.776 283.115,284.776 282.485,284.676 282.100 C 284.575 281.715,284.493 282.030,284.493 282.800 M116.305 284.683 C 116.802 284.779,117.522 284.775,117.905 284.675 C 118.287 284.575,117.880 284.496,117.000 284.501 C 116.120 284.505,115.807 284.587,116.305 284.683 M282.300 284.682 C 282.795 284.778,283.605 284.778,284.100 284.682 C 284.595 284.587,284.190 284.509,283.200 284.509 C 282.210 284.509,281.805 284.587,282.300 284.682 M268.100 297.076 C 268.485 297.176,269.115 297.176,269.500 297.076 C 269.885 296.975,269.570 296.893,268.800 296.893 C 268.030 296.893,267.715 296.975,268.100 297.076 M166.700 315.889 C 167.415 315.978,168.585 315.978,169.300 315.889 C 170.015 315.801,169.430 315.728,168.000 315.728 C 166.570 315.728,165.985 315.801,166.700 315.889 M179.111 315.893 C 180.051 315.978,181.491 315.977,182.311 315.891 C 183.130 315.805,182.360 315.736,180.600 315.737 C 178.840 315.739,178.170 315.809,179.111 315.893 M217.911 315.893 C 218.851 315.978,220.291 315.977,221.111 315.891 C 221.930 315.805,221.160 315.736,219.400 315.737 C 217.640 315.739,216.970 315.809,217.911 315.893 M230.700 315.889 C 231.415 315.978,232.585 315.978,233.300 315.889 C 234.015 315.801,233.430 315.728,232.000 315.728 C 230.570 315.728,229.985 315.801,230.700 315.889 M198.300 322.293 C 199.235 322.377,200.765 322.377,201.700 322.293 C 202.635 322.209,201.870 322.140,200.000 322.140 C 198.130 322.140,197.365 322.209,198.300 322.293 " stroke="none" fill="#605c5c" fill-rule="evenodd"></path><path id="path4" d="M165.911 47.093 C 166.851 47.178,168.291 47.177,169.111 47.091 C 169.930 47.005,169.160 46.936,167.400 46.937 C 165.640 46.939,164.970 47.009,165.911 47.093 M191.300 47.100 C 196.085 47.163,203.915 47.163,208.700 47.100 C 213.485 47.036,209.570 46.984,200.000 46.984 C 190.430 46.984,186.515 47.036,191.300 47.100 M230.900 47.091 C 231.725 47.178,233.075 47.178,233.900 47.091 C 234.725 47.005,234.050 46.934,232.400 46.934 C 230.750 46.934,230.075 47.005,230.900 47.091 M151.300 53.476 C 151.685 53.576,152.315 53.576,152.700 53.476 C 153.085 53.375,152.770 53.293,152.000 53.293 C 151.230 53.293,150.915 53.375,151.300 53.476 M247.300 53.476 C 247.685 53.576,248.315 53.576,248.700 53.476 C 249.085 53.375,248.770 53.293,248.000 53.293 C 247.230 53.293,246.915 53.375,247.300 53.476 M160.572 84.755 C 160.866 85.230,159.815 86.073,159.399 85.697 C 159.219 85.533,159.208 85.637,159.376 85.926 C 159.618 86.346,159.831 86.315,160.430 85.773 C 161.083 85.182,161.152 84.400,160.553 84.400 C 160.443 84.400,160.451 84.560,160.572 84.755 M73.062 104.331 C 72.698 104.734,72.411 105.319,72.425 105.631 C 72.439 105.944,72.615 105.791,72.816 105.291 C 73.017 104.790,73.590 104.217,74.091 104.016 C 74.676 103.781,74.773 103.642,74.362 103.625 C 74.011 103.611,73.426 103.929,73.062 104.331 M72.093 108.400 C 72.093 109.170,72.175 109.485,72.276 109.100 C 72.376 108.715,72.376 108.085,72.276 107.700 C 72.175 107.315,72.093 107.630,72.093 108.400 M284.400 117.200 C 284.400 117.860,284.549 118.400,284.731 118.400 C 284.913 118.400,284.982 117.860,284.885 117.200 C 284.788 116.540,284.640 116.000,284.555 116.000 C 284.470 116.000,284.400 116.540,284.400 117.200 M65.693 119.200 C 65.693 119.970,65.775 120.285,65.876 119.900 C 65.976 119.515,65.976 118.885,65.876 118.500 C 65.775 118.115,65.693 118.430,65.693 119.200 M239.600 134.553 C 239.600 134.908,241.218 135.094,241.423 134.762 C 241.546 134.563,241.187 134.400,240.624 134.400 C 240.061 134.400,239.600 134.469,239.600 134.553 M153.246 139.671 C 153.218 140.328,152.929 140.812,152.500 140.924 C 151.844 141.096,151.845 141.110,152.513 141.154 C 153.324 141.206,153.756 140.389,153.480 139.323 C 153.354 138.837,153.278 138.951,153.246 139.671 M146.901 145.000 C 146.905 145.880,146.987 146.193,147.083 145.695 C 147.179 145.198,147.175 144.478,147.075 144.095 C 146.975 143.713,146.896 144.120,146.901 145.000 M144.500 147.076 C 144.885 147.176,145.515 147.176,145.900 147.076 C 146.285 146.975,145.970 146.893,145.200 146.893 C 144.430 146.893,144.115 146.975,144.500 147.076 M254.100 147.076 C 254.485 147.176,255.115 147.176,255.500 147.076 C 255.885 146.975,255.570 146.893,254.800 146.893 C 254.030 146.893,253.715 146.975,254.100 147.076 M53.293 151.200 C 53.293 151.970,53.375 152.285,53.476 151.900 C 53.576 151.515,53.576 150.885,53.476 150.500 C 53.375 150.115,53.293 150.430,53.293 151.200 M140.800 152.773 C 140.800 152.979,140.305 153.222,139.700 153.313 C 138.676 153.469,138.690 153.484,139.900 153.540 C 140.816 153.582,141.200 153.423,141.200 153.000 C 141.200 152.670,141.110 152.400,141.000 152.400 C 140.890 152.400,140.800 152.568,140.800 152.773 M215.693 158.000 C 215.693 158.770,215.775 159.085,215.876 158.700 C 215.976 158.315,215.976 157.685,215.876 157.300 C 215.775 156.915,215.693 157.230,215.693 158.000 M46.937 167.000 C 46.939 168.760,47.009 169.430,47.093 168.489 C 47.178 167.549,47.177 166.109,47.091 165.289 C 47.005 164.470,46.936 165.240,46.937 167.000 M315.728 168.000 C 315.728 169.430,315.801 170.015,315.889 169.300 C 315.978 168.585,315.978 167.415,315.889 166.700 C 315.801 165.985,315.728 166.570,315.728 168.000 M200.000 172.000 L 196.600 172.251 200.100 172.325 C 202.216 172.371,203.600 172.242,203.600 172.000 C 203.600 171.780,203.555 171.634,203.500 171.675 C 203.445 171.716,201.870 171.862,200.000 172.000 M315.737 180.200 C 315.739 181.960,315.809 182.630,315.893 181.689 C 315.978 180.749,315.977 179.309,315.891 178.489 C 315.805 177.670,315.736 178.440,315.737 180.200 M46.983 199.800 C 46.983 209.040,47.036 212.763,47.100 208.073 C 47.164 203.383,47.164 195.823,47.099 191.273 C 47.035 186.723,46.983 190.560,46.983 199.800 M165.600 191.976 C 165.600 192.623,165.742 193.241,165.916 193.348 C 166.090 193.456,166.161 192.927,166.073 192.172 C 165.876 190.491,165.600 190.377,165.600 191.976 M171.929 200.201 C 171.858 202.071,171.935 203.601,172.100 203.601 C 172.265 203.600,172.400 202.070,172.400 200.200 C 172.400 195.807,172.097 195.807,171.929 200.201 M315.737 219.800 C 315.739 221.560,315.809 222.230,315.893 221.289 C 315.978 220.349,315.977 218.909,315.891 218.089 C 315.805 217.270,315.736 218.040,315.737 219.800 M46.937 233.000 C 46.939 234.760,47.009 235.430,47.093 234.489 C 47.178 233.549,47.177 232.109,47.091 231.289 C 47.005 230.470,46.936 231.240,46.937 233.000 M315.724 232.200 C 315.726 233.520,315.801 234.012,315.890 233.293 C 315.979 232.574,315.977 231.494,315.886 230.893 C 315.795 230.292,315.722 230.880,315.724 232.200 M215.693 242.000 C 215.693 242.770,215.775 243.085,215.876 242.700 C 215.976 242.315,215.976 241.685,215.876 241.300 C 215.775 240.915,215.693 241.230,215.693 242.000 M53.293 248.400 C 53.293 249.170,53.375 249.485,53.476 249.100 C 53.576 248.715,53.576 248.085,53.476 247.700 C 53.375 247.315,53.293 247.630,53.293 248.400 M146.893 254.400 C 146.893 255.170,146.975 255.485,147.076 255.100 C 147.176 254.715,147.176 254.085,147.076 253.700 C 146.975 253.315,146.893 253.630,146.893 254.400 M296.893 268.800 C 296.893 269.570,296.975 269.885,297.076 269.500 C 297.176 269.115,297.176 268.485,297.076 268.100 C 296.975 267.715,296.893 268.030,296.893 268.800 M334.961 271.906 C 334.719 272.068,334.524 272.516,334.527 272.902 C 334.533 273.553,334.585 273.557,335.257 272.948 C 336.148 272.142,335.901 271.277,334.961 271.906 M65.693 280.800 C 65.693 281.570,65.775 281.885,65.876 281.500 C 65.976 281.115,65.976 280.485,65.876 280.100 C 65.775 279.715,65.693 280.030,65.693 280.800 M284.493 282.800 C 284.493 283.570,284.575 283.885,284.676 283.500 C 284.776 283.115,284.776 282.485,284.676 282.100 C 284.575 281.715,284.493 282.030,284.493 282.800 M116.305 284.683 C 116.802 284.779,117.522 284.775,117.905 284.675 C 118.287 284.575,117.880 284.496,117.000 284.501 C 116.120 284.505,115.807 284.587,116.305 284.683 M282.300 284.682 C 282.795 284.778,283.605 284.778,284.100 284.682 C 284.595 284.587,284.190 284.509,283.200 284.509 C 282.210 284.509,281.805 284.587,282.300 284.682 M268.100 297.076 C 268.485 297.176,269.115 297.176,269.500 297.076 C 269.885 296.975,269.570 296.893,268.800 296.893 C 268.030 296.893,267.715 296.975,268.100 297.076 M166.700 315.889 C 167.415 315.978,168.585 315.978,169.300 315.889 C 170.015 315.801,169.430 315.728,168.000 315.728 C 166.570 315.728,165.985 315.801,166.700 315.889 M179.111 315.893 C 180.051 315.978,181.491 315.977,182.311 315.891 C 183.130 315.805,182.360 315.736,180.600 315.737 C 178.840 315.739,178.170 315.809,179.111 315.893 M217.911 315.893 C 218.851 315.978,220.291 315.977,221.111 315.891 C 221.930 315.805,221.160 315.736,219.400 315.737 C 217.640 315.739,216.970 315.809,217.911 315.893 M230.700 315.889 C 231.415 315.978,232.585 315.978,233.300 315.889 C 234.015 315.801,233.430 315.728,232.000 315.728 C 230.570 315.728,229.985 315.801,230.700 315.889 M198.300 322.293 C 199.235 322.377,200.765 322.377,201.700 322.293 C 202.635 322.209,201.870 322.140,200.000 322.140 C 198.130 322.140,197.365 322.209,198.300 322.293 " stroke="none" fill="#605c5c" fill-rule="evenodd"></path></g></svg>