<svg id="svg" version="1.1" xmlns="http://www.w3.org/2000/svg" xmlns:xlink="http://www.w3.org/1999/xlink" width="400" height="400" viewBox="0, 0, 400,400"><g id="svgg"><path id="path0" d="M134.728 72.686 C 134.503 72.957,134.439 73.849,134.584 74.704 C 135.065 77.550,134.392 78.400,131.659 78.400 C 130.252 78.400,129.135 78.602,128.895 78.900 C 128.331 79.599,128.041 84.816,128.583 84.508 C 128.812 84.378,128.877 84.409,128.727 84.576 C 128.576 84.743,127.522 84.911,126.384 84.949 C 122.717 85.071,122.270 86.067,122.264 94.115 L 122.262 97.231 78.431 97.183 L 34.600 97.135 34.600 212.467 L 34.600 327.800 200.000 327.800 L 365.400 327.800 365.400 212.467 L 365.400 97.135 321.762 97.183 L 278.124 97.231 277.881 92.691 C 277.538 86.302,276.621 84.800,273.059 84.800 C 272.155 84.800,272.083 84.635,271.930 82.242 C 271.712 78.810,271.309 78.400,268.151 78.400 L 265.600 78.400 265.600 75.624 C 265.600 74.097,265.419 72.735,265.197 72.598 C 264.360 72.081,135.158 72.168,134.728 72.686 M240.941 105.700 C 240.909 106.965,241.055 108.000,241.265 108.000 C 241.475 108.000,241.511 108.220,241.345 108.489 C 240.973 109.090,241.143 111.797,241.633 113.087 C 242.019 114.103,244.151 115.200,245.740 115.200 C 246.650 115.200,246.722 115.373,246.984 118.172 C 247.300 121.537,247.841 122.000,251.460 122.000 C 253.376 122.000,253.201 121.660,253.410 125.800 C 253.443 126.460,253.499 127.225,253.535 127.500 C 253.587 127.896,261.981 128.000,294.000 128.000 L 334.400 128.000 334.400 212.600 L 334.400 297.200 200.002 297.200 L 65.604 297.200 65.502 212.500 L 65.400 127.800 105.778 127.897 C 137.593 127.973,146.224 127.888,146.472 127.497 C 146.646 127.224,146.791 125.830,146.795 124.400 L 146.802 121.800 149.382 121.800 C 152.646 121.800,152.982 121.462,153.069 118.088 C 153.145 115.138,152.813 115.470,156.526 114.627 C 158.124 114.265,158.803 112.333,159.085 107.351 L 159.321 103.196 200.160 103.298 L 241.000 103.400 240.941 105.700 M85.859 134.895 C 85.959 135.058,85.731 135.072,85.351 134.926 C 84.816 134.721,84.721 134.816,84.926 135.351 C 85.072 135.731,85.058 135.959,84.895 135.859 C 84.733 135.759,84.611 142.243,84.625 150.268 C 84.647 162.498,84.744 164.919,85.225 165.224 C 86.337 165.927,114.253 165.690,114.971 164.971 C 115.697 164.246,115.927 136.336,115.217 135.213 C 114.902 134.715,112.634 134.624,100.261 134.613 C 92.239 134.606,85.759 134.733,85.859 134.895 M169.717 134.873 C 169.960 135.022,169.440 135.049,168.563 134.931 C 166.540 134.660,165.800 135.410,166.123 137.403 C 166.248 138.172,166.181 138.800,165.975 138.800 C 165.769 138.800,165.600 139.230,165.600 139.757 C 165.600 140.988,164.952 141.118,159.400 140.999 C 154.325 140.890,153.415 141.171,153.777 142.733 C 153.968 143.556,153.927 143.663,153.598 143.200 C 153.279 142.751,153.196 143.153,153.267 144.800 L 153.362 147.000 151.126 146.866 C 149.858 146.790,148.778 146.912,148.632 147.148 C 148.490 147.378,148.079 147.452,147.718 147.313 C 147.228 147.125,147.125 147.228,147.313 147.718 C 147.452 148.079,147.378 148.490,147.148 148.632 C 146.912 148.778,146.790 149.861,146.866 151.136 L 147.000 153.382 144.000 153.391 L 141.000 153.400 141.012 156.500 L 141.025 159.600 137.870 159.600 C 135.182 159.600,134.750 159.692,134.953 160.221 C 135.088 160.574,135.022 160.737,134.798 160.599 C 134.554 160.448,134.442 161.302,134.503 162.864 C 134.589 165.099,134.513 165.387,133.800 165.509 C 133.360 165.585,132.730 165.751,132.400 165.879 C 132.070 166.006,131.228 166.073,130.529 166.027 C 128.677 165.905,128.388 166.802,128.288 172.996 L 128.200 178.399 125.800 178.406 C 124.480 178.409,123.130 178.583,122.800 178.792 C 122.011 179.290,121.877 245.237,122.663 246.023 C 122.918 246.278,124.268 246.578,125.663 246.690 L 128.200 246.894 128.287 252.347 C 128.390 258.809,128.614 259.200,132.217 259.200 C 134.688 259.200,135.019 259.664,134.590 262.530 C 134.220 264.997,134.926 265.600,138.185 265.600 C 141.042 265.600,141.159 265.750,140.995 269.200 C 140.880 271.622,141.319 272.064,143.770 271.992 C 147.177 271.891,147.000 271.764,147.003 274.301 C 147.007 277.867,147.127 278.000,150.336 278.000 L 153.097 278.000 153.359 280.300 C 153.780 283.981,154.448 284.286,162.275 284.366 L 165.551 284.400 165.797 286.300 C 166.213 289.508,166.360 289.893,167.296 290.227 C 168.727 290.737,229.025 290.882,231.465 290.381 C 233.765 289.910,233.812 289.847,234.209 286.663 L 234.492 284.400 237.746 284.366 C 245.546 284.285,246.183 283.995,246.609 280.326 L 246.879 278.000 249.625 278.000 C 252.878 278.000,253.200 277.660,253.200 274.226 C 253.200 271.776,253.075 271.865,256.321 271.994 C 258.805 272.093,259.200 271.593,259.200 268.351 L 259.200 265.600 261.771 265.600 C 265.147 265.600,265.600 265.147,265.600 261.771 L 265.600 259.200 267.374 259.200 C 271.622 259.200,271.960 258.406,271.995 248.356 L 272.000 246.911 274.446 246.689 C 275.792 246.567,277.097 246.263,277.346 246.014 C 278.044 245.316,278.181 180.965,277.488 179.600 C 277.040 178.719,276.685 178.586,274.490 178.481 L 272.000 178.362 271.998 176.881 C 271.995 173.328,271.648 167.742,271.392 167.097 C 271.099 166.361,270.625 166.203,267.500 165.797 L 265.600 165.551 265.600 163.208 C 265.600 159.635,265.566 159.600,262.174 159.600 L 259.234 159.600 259.117 156.500 L 259.000 153.400 256.100 153.410 L 253.200 153.420 253.178 152.210 C 253.083 146.927,253.135 147.004,249.609 147.002 L 246.881 147.000 246.722 144.501 C 246.499 141.019,246.468 141.002,240.203 140.990 C 233.986 140.978,234.473 141.213,234.144 138.069 C 233.854 135.290,233.333 134.631,231.625 134.882 C 230.974 134.977,230.506 134.953,230.583 134.828 C 230.660 134.702,216.898 134.600,200.000 134.600 C 183.102 134.600,169.475 134.723,169.717 134.873 M134.356 170.547 C 134.704 170.967,134.646 171.223,134.105 171.647 C 133.480 172.137,133.456 172.128,133.897 171.563 C 134.495 170.795,134.083 170.233,133.361 170.833 C 133.078 171.067,132.944 171.560,133.062 171.929 C 133.242 172.494,133.209 172.506,132.858 172.009 C 132.163 171.026,133.594 169.629,134.356 170.547 M215.637 171.988 C 216.496 171.998,216.756 172.274,217.153 173.602 C 217.788 175.721,221.554 178.022,222.166 176.666 C 222.282 176.410,222.337 176.560,222.288 177.000 C 222.208 177.725,222.471 177.811,225.077 177.917 L 227.955 178.034 228.231 180.831 C 228.552 184.095,228.882 184.400,232.095 184.400 L 234.242 184.400 234.652 186.400 C 234.877 187.500,234.913 188.400,234.731 188.400 C 234.168 188.400,234.367 189.874,235.000 190.400 C 235.330 190.674,235.600 191.155,235.600 191.469 C 235.600 193.333,237.910 195.502,240.087 195.682 L 241.000 195.758 241.000 212.441 C 241.000 221.616,240.893 229.058,240.762 228.977 C 239.421 228.147,236.147 230.391,235.527 232.565 C 235.270 233.464,234.937 234.380,234.786 234.600 C 234.636 234.820,234.533 236.350,234.557 238.000 L 234.600 241.000 231.600 241.000 L 228.600 241.000 228.248 244.138 L 227.896 247.275 226.129 247.010 C 223.462 246.610,221.909 247.056,222.210 248.135 C 222.385 248.760,222.346 248.846,222.069 248.446 C 221.096 247.038,217.406 249.494,216.966 251.842 C 216.641 253.571,217.891 253.459,199.800 253.376 C 181.029 253.290,183.345 253.499,183.040 251.870 C 182.741 250.280,181.059 248.568,179.400 248.167 C 178.740 248.007,178.071 247.680,177.913 247.438 C 177.743 247.180,176.472 247.023,174.813 247.056 C 171.688 247.118,171.797 247.247,171.988 243.727 C 172.095 241.753,171.344 240.671,170.047 240.931 C 169.454 241.049,168.210 241.045,167.284 240.921 L 165.600 240.695 165.600 238.180 C 165.600 234.908,165.385 234.403,164.064 234.566 C 163.479 234.638,163.232 234.615,163.517 234.516 C 164.769 234.077,162.928 231.160,160.791 230.196 L 159.200 229.479 159.214 212.439 L 159.229 195.400 160.914 194.600 C 162.022 194.074,162.874 193.286,163.400 192.301 C 163.840 191.477,164.422 190.802,164.692 190.801 C 165.161 190.800,165.730 189.368,165.577 188.574 C 165.160 186.409,165.652 184.400,166.600 184.400 C 167.150 184.400,167.614 184.175,167.632 183.900 C 167.657 183.500,167.704 183.500,167.865 183.900 C 168.618 185.766,172.088 183.868,171.988 181.645 C 171.815 177.823,171.681 178.000,174.751 178.000 C 176.708 178.000,177.646 177.827,178.000 177.400 C 178.274 177.070,178.791 176.799,179.149 176.799 C 180.552 176.795,182.352 175.253,182.835 173.640 C 183.267 172.199,183.456 172.030,184.757 171.921 C 185.847 171.830,205.741 171.873,215.637 171.988 M241.495 214.487 C 241.414 215.649,241.347 214.800,241.346 212.600 C 241.345 210.400,241.411 209.449,241.493 210.487 C 241.576 211.524,241.576 213.324,241.495 214.487 " stroke="none" fill="#5c5c5c" fill-rule="evenodd"></path><path id="path1" d="M173.300 72.300 C 187.985 72.358,212.015 72.358,226.700 72.300 C 241.385 72.242,229.370 72.194,200.000 72.194 C 170.630 72.194,158.615 72.242,173.300 72.300 M122.000 96.398 C 122.000 96.659,107.768 96.832,80.700 96.900 L 39.400 97.004 80.900 97.102 C 117.566 97.189,122.400 97.130,122.400 96.600 C 122.400 96.270,122.310 96.000,122.200 96.000 C 122.090 96.000,122.000 96.179,122.000 96.398 M298.500 97.100 C 309.885 97.159,328.515 97.159,339.900 97.100 C 351.285 97.041,341.970 96.993,319.200 96.993 C 296.430 96.993,287.115 97.041,298.500 97.100 M88.305 134.683 C 88.802 134.779,89.522 134.775,89.905 134.675 C 90.287 134.575,89.880 134.496,89.000 134.501 C 88.120 134.505,87.807 134.587,88.305 134.683 M97.900 134.695 C 99.055 134.776,100.945 134.776,102.100 134.695 C 103.255 134.614,102.310 134.548,100.000 134.548 C 97.690 134.548,96.745 134.614,97.900 134.695 M110.100 134.676 C 110.485 134.776,111.115 134.776,111.500 134.676 C 111.885 134.575,111.570 134.493,110.800 134.493 C 110.030 134.493,109.715 134.575,110.100 134.676 M173.700 134.676 C 174.085 134.776,174.715 134.776,175.100 134.676 C 175.485 134.575,175.170 134.493,174.400 134.493 C 173.630 134.493,173.315 134.575,173.700 134.676 M179.905 134.683 C 180.402 134.779,181.122 134.775,181.505 134.675 C 181.887 134.575,181.480 134.496,180.600 134.501 C 179.720 134.505,179.407 134.587,179.905 134.683 M193.700 134.699 C 197.165 134.766,202.835 134.766,206.300 134.699 C 209.765 134.633,206.930 134.578,200.000 134.578 C 193.070 134.578,190.235 134.633,193.700 134.699 M218.705 134.683 C 219.202 134.779,219.922 134.775,220.305 134.675 C 220.687 134.575,220.280 134.496,219.400 134.501 C 218.520 134.505,218.207 134.587,218.705 134.683 M224.900 134.676 C 225.285 134.776,225.915 134.776,226.300 134.676 C 226.685 134.575,226.370 134.493,225.600 134.493 C 224.830 134.493,224.515 134.575,224.900 134.676 M84.501 139.000 C 84.505 139.880,84.587 140.193,84.683 139.695 C 84.779 139.198,84.775 138.478,84.675 138.095 C 84.575 137.713,84.496 138.120,84.501 139.000 M157.700 141.076 C 158.085 141.176,158.715 141.176,159.100 141.076 C 159.485 140.975,159.170 140.893,158.400 140.893 C 157.630 140.893,157.315 140.975,157.700 141.076 M240.900 141.076 C 241.285 141.176,241.915 141.176,242.300 141.076 C 242.685 140.975,242.370 140.893,241.600 140.893 C 240.830 140.893,240.515 140.975,240.900 141.076 M84.551 150.000 C 84.551 152.530,84.616 153.565,84.696 152.300 C 84.775 151.035,84.775 148.965,84.696 147.700 C 84.616 146.435,84.551 147.470,84.551 150.000 M84.501 161.000 C 84.505 161.880,84.587 162.193,84.683 161.695 C 84.779 161.198,84.775 160.478,84.675 160.095 C 84.575 159.713,84.496 160.120,84.501 161.000 M134.501 163.800 C 134.505 164.680,134.587 164.993,134.683 164.495 C 134.779 163.998,134.775 163.278,134.675 162.895 C 134.575 162.513,134.496 162.920,134.501 163.800 M133.082 170.709 C 132.613 171.228,132.553 171.577,132.858 172.009 C 133.209 172.506,133.242 172.494,133.062 171.929 C 132.944 171.560,133.078 171.067,133.361 170.833 C 134.083 170.233,134.495 170.795,133.897 171.563 C 133.456 172.128,133.480 172.137,134.105 171.647 C 134.646 171.223,134.704 170.967,134.356 170.547 C 133.792 169.867,133.851 169.859,133.082 170.709 M122.093 184.800 C 122.093 185.570,122.175 185.885,122.276 185.500 C 122.376 185.115,122.376 184.485,122.276 184.100 C 122.175 183.715,122.093 184.030,122.093 184.800 M234.400 187.400 C 234.400 187.950,234.555 188.400,234.745 188.400 C 234.934 188.400,235.003 187.950,234.898 187.400 C 234.793 186.850,234.638 186.400,234.553 186.400 C 234.469 186.400,234.400 186.850,234.400 187.400 M122.093 194.400 C 122.093 195.170,122.175 195.485,122.276 195.100 C 122.376 194.715,122.376 194.085,122.276 193.700 C 122.175 193.315,122.093 193.630,122.093 194.400 M122.101 199.800 C 122.105 200.680,122.187 200.993,122.283 200.495 C 122.379 199.998,122.375 199.278,122.275 198.895 C 122.175 198.513,122.096 198.920,122.101 199.800 M240.920 205.200 C 240.920 206.410,240.995 206.905,241.087 206.300 C 241.178 205.695,241.178 204.705,241.087 204.100 C 240.995 203.495,240.920 203.990,240.920 205.200 M241.346 212.600 C 241.347 214.800,241.414 215.649,241.495 214.487 C 241.576 213.324,241.576 211.524,241.493 210.487 C 241.411 209.449,241.345 210.400,241.346 212.600 M240.920 220.000 C 240.920 221.210,240.995 221.705,241.087 221.100 C 241.178 220.495,241.178 219.505,241.087 218.900 C 240.995 218.295,240.920 218.790,240.920 220.000 M122.093 225.200 C 122.093 225.970,122.175 226.285,122.276 225.900 C 122.376 225.515,122.376 224.885,122.276 224.500 C 122.175 224.115,122.093 224.430,122.093 225.200 M122.093 230.800 C 122.093 231.570,122.175 231.885,122.276 231.500 C 122.376 231.115,122.376 230.485,122.276 230.100 C 122.175 229.715,122.093 230.030,122.093 230.800 M189.900 253.482 C 190.395 253.578,191.205 253.578,191.700 253.482 C 192.195 253.387,191.790 253.309,190.800 253.309 C 189.810 253.309,189.405 253.387,189.900 253.482 M208.300 253.482 C 208.795 253.578,209.605 253.578,210.100 253.482 C 210.595 253.387,210.190 253.309,209.200 253.309 C 208.210 253.309,207.805 253.387,208.300 253.482 M134.493 261.200 C 134.493 261.970,134.575 262.285,134.676 261.900 C 134.776 261.515,134.776 260.885,134.676 260.500 C 134.575 260.115,134.493 260.430,134.493 261.200 M132.700 297.100 C 169.715 297.156,230.285 297.156,267.300 297.100 C 304.315 297.044,274.030 296.998,200.000 296.998 C 125.970 296.998,95.685 297.044,132.700 297.100 " stroke="none" fill="#605c5c" fill-rule="evenodd"></path><path id="path2" d="M173.300 72.300 C 187.985 72.358,212.015 72.358,226.700 72.300 C 241.385 72.242,229.370 72.194,200.000 72.194 C 170.630 72.194,158.615 72.242,173.300 72.300 M122.000 96.398 C 122.000 96.659,107.768 96.832,80.700 96.900 L 39.400 97.004 80.900 97.102 C 117.566 97.189,122.400 97.130,122.400 96.600 C 122.400 96.270,122.310 96.000,122.200 96.000 C 122.090 96.000,122.000 96.179,122.000 96.398 M298.500 97.100 C 309.885 97.159,328.515 97.159,339.900 97.100 C 351.285 97.041,341.970 96.993,319.200 96.993 C 296.430 96.993,287.115 97.041,298.500 97.100 M88.305 134.683 C 88.802 134.779,89.522 134.775,89.905 134.675 C 90.287 134.575,89.880 134.496,89.000 134.501 C 88.120 134.505,87.807 134.587,88.305 134.683 M97.900 134.695 C 99.055 134.776,100.945 134.776,102.100 134.695 C 103.255 134.614,102.310 134.548,100.000 134.548 C 97.690 134.548,96.745 134.614,97.900 134.695 M110.100 134.676 C 110.485 134.776,111.115 134.776,111.500 134.676 C 111.885 134.575,111.570 134.493,110.800 134.493 C 110.030 134.493,109.715 134.575,110.100 134.676 M173.700 134.676 C 174.085 134.776,174.715 134.776,175.100 134.676 C 175.485 134.575,175.170 134.493,174.400 134.493 C 173.630 134.493,173.315 134.575,173.700 134.676 M179.905 134.683 C 180.402 134.779,181.122 134.775,181.505 134.675 C 181.887 134.575,181.480 134.496,180.600 134.501 C 179.720 134.505,179.407 134.587,179.905 134.683 M193.700 134.699 C 197.165 134.766,202.835 134.766,206.300 134.699 C 209.765 134.633,206.930 134.578,200.000 134.578 C 193.070 134.578,190.235 134.633,193.700 134.699 M218.705 134.683 C 219.202 134.779,219.922 134.775,220.305 134.675 C 220.687 134.575,220.280 134.496,219.400 134.501 C 218.520 134.505,218.207 134.587,218.705 134.683 M224.900 134.676 C 225.285 134.776,225.915 134.776,226.300 134.676 C 226.685 134.575,226.370 134.493,225.600 134.493 C 224.830 134.493,224.515 134.575,224.900 134.676 M84.501 139.000 C 84.505 139.880,84.587 140.193,84.683 139.695 C 84.779 139.198,84.775 138.478,84.675 138.095 C 84.575 137.713,84.496 138.120,84.501 139.000 M157.700 141.076 C 158.085 141.176,158.715 141.176,159.100 141.076 C 159.485 140.975,159.170 140.893,158.400 140.893 C 157.630 140.893,157.315 140.975,157.700 141.076 M240.900 141.076 C 241.285 141.176,241.915 141.176,242.300 141.076 C 242.685 140.975,242.370 140.893,241.600 140.893 C 240.830 140.893,240.515 140.975,240.900 141.076 M84.551 150.000 C 84.551 152.530,84.616 153.565,84.696 152.300 C 84.775 151.035,84.775 148.965,84.696 147.700 C 84.616 146.435,84.551 147.470,84.551 150.000 M84.501 161.000 C 84.505 161.880,84.587 162.193,84.683 161.695 C 84.779 161.198,84.775 160.478,84.675 160.095 C 84.575 159.713,84.496 160.120,84.501 161.000 M134.501 163.800 C 134.505 164.680,134.587 164.993,134.683 164.495 C 134.779 163.998,134.775 163.278,134.675 162.895 C 134.575 162.513,134.496 162.920,134.501 163.800 M133.082 170.709 C 132.613 171.228,132.553 171.577,132.858 172.009 C 133.209 172.506,133.242 172.494,133.062 171.929 C 132.944 171.560,133.078 171.067,133.361 170.833 C 134.083 170.233,134.495 170.795,133.897 171.563 C 133.456 172.128,133.480 172.137,134.105 171.647 C 134.646 171.223,134.704 170.967,134.356 170.547 C 133.792 169.867,133.851 169.859,133.082 170.709 M122.093 184.800 C 122.093 185.570,122.175 185.885,122.276 185.500 C 122.376 185.115,122.376 184.485,122.276 184.100 C 122.175 183.715,122.093 184.030,122.093 184.800 M234.400 187.400 C 234.400 187.950,234.555 188.400,234.745 188.400 C 234.934 188.400,235.003 187.950,234.898 187.400 C 234.793 186.850,234.638 186.400,234.553 186.400 C 234.469 186.400,234.400 186.850,234.400 187.400 M122.093 194.400 C 122.093 195.170,122.175 195.485,122.276 195.100 C 122.376 194.715,122.376 194.085,122.276 193.700 C 122.175 193.315,122.093 193.630,122.093 194.400 M122.101 199.800 C 122.105 200.680,122.187 200.993,122.283 200.495 C 122.379 199.998,122.375 199.278,122.275 198.895 C 122.175 198.513,122.096 198.920,122.101 199.800 M240.920 205.200 C 240.920 206.410,240.995 206.905,241.087 206.300 C 241.178 205.695,241.178 204.705,241.087 204.100 C 240.995 203.495,240.920 203.990,240.920 205.200 M241.346 212.600 C 241.347 214.800,241.414 215.649,241.495 214.487 C 241.576 213.324,241.576 211.524,241.493 210.487 C 241.411 209.449,241.345 210.400,241.346 212.600 M240.920 220.000 C 240.920 221.210,240.995 221.705,241.087 221.100 C 241.178 220.495,241.178 219.505,241.087 218.900 C 240.995 218.295,240.920 218.790,240.920 220.000 M122.093 225.200 C 122.093 225.970,122.175 226.285,122.276 225.900 C 122.376 225.515,122.376 224.885,122.276 224.500 C 122.175 224.115,122.093 224.430,122.093 225.200 M122.093 230.800 C 122.093 231.570,122.175 231.885,122.276 231.500 C 122.376 231.115,122.376 230.485,122.276 230.100 C 122.175 229.715,122.093 230.030,122.093 230.800 M189.900 253.482 C 190.395 253.578,191.205 253.578,191.700 253.482 C 192.195 253.387,191.790 253.309,190.800 253.309 C 189.810 253.309,189.405 253.387,189.900 253.482 M208.300 253.482 C 208.795 253.578,209.605 253.578,210.100 253.482 C 210.595 253.387,210.190 253.309,209.200 253.309 C 208.210 253.309,207.805 253.387,208.300 253.482 M134.493 261.200 C 134.493 261.970,134.575 262.285,134.676 261.900 C 134.776 261.515,134.776 260.885,134.676 260.500 C 134.575 260.115,134.493 260.430,134.493 261.200 M132.700 297.100 C 169.715 297.156,230.285 297.156,267.300 297.100 C 304.315 297.044,274.030 296.998,200.000 296.998 C 125.970 296.998,95.685 297.044,132.700 297.100 " stroke="none" fill="#605c5c" fill-rule="evenodd"></path><path id="path3" d="M173.300 72.300 C 187.985 72.358,212.015 72.358,226.700 72.300 C 241.385 72.242,229.370 72.194,200.000 72.194 C 170.630 72.194,158.615 72.242,173.300 72.300 M122.000 96.398 C 122.000 96.659,107.768 96.832,80.700 96.900 L 39.400 97.004 80.900 97.102 C 117.566 97.189,122.400 97.130,122.400 96.600 C 122.400 96.270,122.310 96.000,122.200 96.000 C 122.090 96.000,122.000 96.179,122.000 96.398 M298.500 97.100 C 309.885 97.159,328.515 97.159,339.900 97.100 C 351.285 97.041,341.970 96.993,319.200 96.993 C 296.430 96.993,287.115 97.041,298.500 97.100 M88.305 134.683 C 88.802 134.779,89.522 134.775,89.905 134.675 C 90.287 134.575,89.880 134.496,89.000 134.501 C 88.120 134.505,87.807 134.587,88.305 134.683 M97.900 134.695 C 99.055 134.776,100.945 134.776,102.100 134.695 C 103.255 134.614,102.310 134.548,100.000 134.548 C 97.690 134.548,96.745 134.614,97.900 134.695 M110.100 134.676 C 110.485 134.776,111.115 134.776,111.500 134.676 C 111.885 134.575,111.570 134.493,110.800 134.493 C 110.030 134.493,109.715 134.575,110.100 134.676 M173.700 134.676 C 174.085 134.776,174.715 134.776,175.100 134.676 C 175.485 134.575,175.170 134.493,174.400 134.493 C 173.630 134.493,173.315 134.575,173.700 134.676 M179.905 134.683 C 180.402 134.779,181.122 134.775,181.505 134.675 C 181.887 134.575,181.480 134.496,180.600 134.501 C 179.720 134.505,179.407 134.587,179.905 134.683 M193.700 134.699 C 197.165 134.766,202.835 134.766,206.300 134.699 C 209.765 134.633,206.930 134.578,200.000 134.578 C 193.070 134.578,190.235 134.633,193.700 134.699 M218.705 134.683 C 219.202 134.779,219.922 134.775,220.305 134.675 C 220.687 134.575,220.280 134.496,219.400 134.501 C 218.520 134.505,218.207 134.587,218.705 134.683 M224.900 134.676 C 225.285 134.776,225.915 134.776,226.300 134.676 C 226.685 134.575,226.370 134.493,225.600 134.493 C 224.830 134.493,224.515 134.575,224.900 134.676 M84.501 139.000 C 84.505 139.880,84.587 140.193,84.683 139.695 C 84.779 139.198,84.775 138.478,84.675 138.095 C 84.575 137.713,84.496 138.120,84.501 139.000 M157.700 141.076 C 158.085 141.176,158.715 141.176,159.100 141.076 C 159.485 140.975,159.170 140.893,158.400 140.893 C 157.630 140.893,157.315 140.975,157.700 141.076 M240.900 141.076 C 241.285 141.176,241.915 141.176,242.300 141.076 C 242.685 140.975,242.370 140.893,241.600 140.893 C 240.830 140.893,240.515 140.975,240.900 141.076 M84.551 150.000 C 84.551 152.530,84.616 153.565,84.696 152.300 C 84.775 151.035,84.775 148.965,84.696 147.700 C 84.616 146.435,84.551 147.470,84.551 150.000 M84.501 161.000 C 84.505 161.880,84.587 162.193,84.683 161.695 C 84.779 161.198,84.775 160.478,84.675 160.095 C 84.575 159.713,84.496 160.120,84.501 161.000 M134.501 163.800 C 134.505 164.680,134.587 164.993,134.683 164.495 C 134.779 163.998,134.775 163.278,134.675 162.895 C 134.575 162.513,134.496 162.920,134.501 163.800 M133.082 170.709 C 132.613 171.228,132.553 171.577,132.858 172.009 C 133.209 172.506,133.242 172.494,133.062 171.929 C 132.944 171.560,133.078 171.067,133.361 170.833 C 134.083 170.233,134.495 170.795,133.897 171.563 C 133.456 172.128,133.480 172.137,134.105 171.647 C 134.646 171.223,134.704 170.967,134.356 170.547 C 133.792 169.867,133.851 169.859,133.082 170.709 M122.093 184.800 C 122.093 185.570,122.175 185.885,122.276 185.500 C 122.376 185.115,122.376 184.485,122.276 184.100 C 122.175 183.715,122.093 184.030,122.093 184.800 M234.400 187.400 C 234.400 187.950,234.555 188.400,234.745 188.400 C 234.934 188.400,235.003 187.950,234.898 187.400 C 234.793 186.850,234.638 186.400,234.553 186.400 C 234.469 186.400,234.400 186.850,234.400 187.400 M122.093 194.400 C 122.093 195.170,122.175 195.485,122.276 195.100 C 122.376 194.715,122.376 194.085,122.276 193.700 C 122.175 193.315,122.093 193.630,122.093 194.400 M122.101 199.800 C 122.105 200.680,122.187 200.993,122.283 200.495 C 122.379 199.998,122.375 199.278,122.275 198.895 C 122.175 198.513,122.096 198.920,122.101 199.800 M240.920 205.200 C 240.920 206.410,240.995 206.905,241.087 206.300 C 241.178 205.695,241.178 204.705,241.087 204.100 C 240.995 203.495,240.920 203.990,240.920 205.200 M241.346 212.600 C 241.347 214.800,241.414 215.649,241.495 214.487 C 241.576 213.324,241.576 211.524,241.493 210.487 C 241.411 209.449,241.345 210.400,241.346 212.600 M240.920 220.000 C 240.920 221.210,240.995 221.705,241.087 221.100 C 241.178 220.495,241.178 219.505,241.087 218.900 C 240.995 218.295,240.920 218.790,240.920 220.000 M122.093 225.200 C 122.093 225.970,122.175 226.285,122.276 225.900 C 122.376 225.515,122.376 224.885,122.276 224.500 C 122.175 224.115,122.093 224.430,122.093 225.200 M122.093 230.800 C 122.093 231.570,122.175 231.885,122.276 231.500 C 122.376 231.115,122.376 230.485,122.276 230.100 C 122.175 229.715,122.093 230.030,122.093 230.800 M189.900 253.482 C 190.395 253.578,191.205 253.578,191.700 253.482 C 192.195 253.387,191.790 253.309,190.800 253.309 C 189.810 253.309,189.405 253.387,189.900 253.482 M208.300 253.482 C 208.795 253.578,209.605 253.578,210.100 253.482 C 210.595 253.387,210.190 253.309,209.200 253.309 C 208.210 253.309,207.805 253.387,208.300 253.482 M134.493 261.200 C 134.493 261.970,134.575 262.285,134.676 261.900 C 134.776 261.515,134.776 260.885,134.676 260.500 C 134.575 260.115,134.493 260.430,134.493 261.200 M132.700 297.100 C 169.715 297.156,230.285 297.156,267.300 297.100 C 304.315 297.044,274.030 296.998,200.000 296.998 C 125.970 296.998,95.685 297.044,132.700 297.100 " stroke="none" fill="#605c5c" fill-rule="evenodd"></path><path id="path4" d="M173.300 72.300 C 187.985 72.358,212.015 72.358,226.700 72.300 C 241.385 72.242,229.370 72.194,200.000 72.194 C 170.630 72.194,158.615 72.242,173.300 72.300 M122.000 96.398 C 122.000 96.659,107.768 96.832,80.700 96.900 L 39.400 97.004 80.900 97.102 C 117.566 97.189,122.400 97.130,122.400 96.600 C 122.400 96.270,122.310 96.000,122.200 96.000 C 122.090 96.000,122.000 96.179,122.000 96.398 M298.500 97.100 C 309.885 97.159,328.515 97.159,339.900 97.100 C 351.285 97.041,341.970 96.993,319.200 96.993 C 296.430 96.993,287.115 97.041,298.500 97.100 M88.305 134.683 C 88.802 134.779,89.522 134.775,89.905 134.675 C 90.287 134.575,89.880 134.496,89.000 134.501 C 88.120 134.505,87.807 134.587,88.305 134.683 M97.900 134.695 C 99.055 134.776,100.945 134.776,102.100 134.695 C 103.255 134.614,102.310 134.548,100.000 134.548 C 97.690 134.548,96.745 134.614,97.900 134.695 M110.100 134.676 C 110.485 134.776,111.115 134.776,111.500 134.676 C 111.885 134.575,111.570 134.493,110.800 134.493 C 110.030 134.493,109.715 134.575,110.100 134.676 M173.700 134.676 C 174.085 134.776,174.715 134.776,175.100 134.676 C 175.485 134.575,175.170 134.493,174.400 134.493 C 173.630 134.493,173.315 134.575,173.700 134.676 M179.905 134.683 C 180.402 134.779,181.122 134.775,181.505 134.675 C 181.887 134.575,181.480 134.496,180.600 134.501 C 179.720 134.505,179.407 134.587,179.905 134.683 M193.700 134.699 C 197.165 134.766,202.835 134.766,206.300 134.699 C 209.765 134.633,206.930 134.578,200.000 134.578 C 193.070 134.578,190.235 134.633,193.700 134.699 M218.705 134.683 C 219.202 134.779,219.922 134.775,220.305 134.675 C 220.687 134.575,220.280 134.496,219.400 134.501 C 218.520 134.505,218.207 134.587,218.705 134.683 M224.900 134.676 C 225.285 134.776,225.915 134.776,226.300 134.676 C 226.685 134.575,226.370 134.493,225.600 134.493 C 224.830 134.493,224.515 134.575,224.900 134.676 M84.501 139.000 C 84.505 139.880,84.587 140.193,84.683 139.695 C 84.779 139.198,84.775 138.478,84.675 138.095 C 84.575 137.713,84.496 138.120,84.501 139.000 M157.700 141.076 C 158.085 141.176,158.715 141.176,159.100 141.076 C 159.485 140.975,159.170 140.893,158.400 140.893 C 157.630 140.893,157.315 140.975,157.700 141.076 M240.900 141.076 C 241.285 141.176,241.915 141.176,242.300 141.076 C 242.685 140.975,242.370 140.893,241.600 140.893 C 240.830 140.893,240.515 140.975,240.900 141.076 M84.551 150.000 C 84.551 152.530,84.616 153.565,84.696 152.300 C 84.775 151.035,84.775 148.965,84.696 147.700 C 84.616 146.435,84.551 147.470,84.551 150.000 M84.501 161.000 C 84.505 161.880,84.587 162.193,84.683 161.695 C 84.779 161.198,84.775 160.478,84.675 160.095 C 84.575 159.713,84.496 160.120,84.501 161.000 M134.501 163.800 C 134.505 164.680,134.587 164.993,134.683 164.495 C 134.779 163.998,134.775 163.278,134.675 162.895 C 134.575 162.513,134.496 162.920,134.501 163.800 M133.082 170.709 C 132.613 171.228,132.553 171.577,132.858 172.009 C 133.209 172.506,133.242 172.494,133.062 171.929 C 132.944 171.560,133.078 171.067,133.361 170.833 C 134.083 170.233,134.495 170.795,133.897 171.563 C 133.456 172.128,133.480 172.137,134.105 171.647 C 134.646 171.223,134.704 170.967,134.356 170.547 C 133.792 169.867,133.851 169.859,133.082 170.709 M122.093 184.800 C 122.093 185.570,122.175 185.885,122.276 185.500 C 122.376 185.115,122.376 184.485,122.276 184.100 C 122.175 183.715,122.093 184.030,122.093 184.800 M234.400 187.400 C 234.400 187.950,234.555 188.400,234.745 188.400 C 234.934 188.400,235.003 187.950,234.898 187.400 C 234.793 186.850,234.638 186.400,234.553 186.400 C 234.469 186.400,234.400 186.850,234.400 187.400 M122.093 194.400 C 122.093 195.170,122.175 195.485,122.276 195.100 C 122.376 194.715,122.376 194.085,122.276 193.700 C 122.175 193.315,122.093 193.630,122.093 194.400 M122.101 199.800 C 122.105 200.680,122.187 200.993,122.283 200.495 C 122.379 199.998,122.375 199.278,122.275 198.895 C 122.175 198.513,122.096 198.920,122.101 199.800 M240.920 205.200 C 240.920 206.410,240.995 206.905,241.087 206.300 C 241.178 205.695,241.178 204.705,241.087 204.100 C 240.995 203.495,240.920 203.990,240.920 205.200 M241.346 212.600 C 241.347 214.800,241.414 215.649,241.495 214.487 C 241.576 213.324,241.576 211.524,241.493 210.487 C 241.411 209.449,241.345 210.400,241.346 212.600 M240.920 220.000 C 240.920 221.210,240.995 221.705,241.087 221.100 C 241.178 220.495,241.178 219.505,241.087 218.900 C 240.995 218.295,240.920 218.790,240.920 220.000 M122.093 225.200 C 122.093 225.970,122.175 226.285,122.276 225.900 C 122.376 225.515,122.376 224.885,122.276 224.500 C 122.175 224.115,122.093 224.430,122.093 225.200 M122.093 230.800 C 122.093 231.570,122.175 231.885,122.276 231.500 C 122.376 231.115,122.376 230.485,122.276 230.100 C 122.175 229.715,122.093 230.030,122.093 230.800 M189.900 253.482 C 190.395 253.578,191.205 253.578,191.700 253.482 C 192.195 253.387,191.790 253.309,190.800 253.309 C 189.810 253.309,189.405 253.387,189.900 253.482 M208.300 253.482 C 208.795 253.578,209.605 253.578,210.100 253.482 C 210.595 253.387,210.190 253.309,209.200 253.309 C 208.210 253.309,207.805 253.387,208.300 253.482 M134.493 261.200 C 134.493 261.970,134.575 262.285,134.676 261.900 C 134.776 261.515,134.776 260.885,134.676 260.500 C 134.575 260.115,134.493 260.430,134.493 261.200 M132.700 297.100 C 169.715 297.156,230.285 297.156,267.300 297.100 C 304.315 297.044,274.030 296.998,200.000 296.998 C 125.970 296.998,95.685 297.044,132.700 297.100 " stroke="none" fill="#605c5c" fill-rule="evenodd"></path></g></svg>