<svg id="svg" version="1.1" xmlns="http://www.w3.org/2000/svg" xmlns:xlink="http://www.w3.org/1999/xlink" width="400" height="400" viewBox="0, 0, 400,400"><g id="svgg"><path id="path0" d="M41.776 60.168 C 40.551 61.064,40.558 89.385,41.783 90.243 C 42.220 90.549,42.808 90.800,43.089 90.800 C 43.370 90.800,44.323 91.523,45.206 92.406 L 46.811 94.011 46.974 106.385 C 47.173 121.513,47.150 121.439,51.700 121.560 C 53.502 121.608,53.319 120.159,53.365 134.714 C 53.402 146.677,53.418 146.777,55.253 146.794 C 55.612 146.797,56.636 147.530,57.529 148.423 L 59.152 150.046 59.493 163.072 C 59.883 177.936,59.692 177.244,63.536 177.754 C 66.089 178.092,65.968 177.322,65.771 191.921 C 65.681 198.588,65.747 203.956,65.918 203.851 C 66.088 203.746,66.078 205.221,65.896 207.130 C 65.714 209.038,65.676 212.507,65.812 214.838 C 66.197 221.425,66.037 221.871,63.180 222.202 C 61.842 222.358,60.616 222.740,60.323 223.093 C 59.779 223.748,59.001 244.176,59.366 248.200 C 59.465 249.300,59.424 249.793,59.274 249.295 L 59.000 248.391 57.600 249.133 C 56.792 249.561,55.862 250.533,55.400 251.432 C 54.960 252.288,54.330 253.202,54.000 253.463 C 53.494 253.862,53.395 255.678,53.366 265.068 C 53.347 271.191,53.302 276.673,53.266 277.252 C 53.204 278.243,53.060 278.314,50.794 278.478 C 46.957 278.755,47.125 277.983,47.042 295.715 L 46.992 306.429 45.596 307.448 L 44.200 308.467 45.500 307.305 C 47.053 305.915,47.283 304.600,45.900 305.018 C 44.728 305.372,42.878 307.115,42.555 308.170 C 42.415 308.627,42.006 309.282,41.647 309.626 C 41.064 310.183,40.993 311.848,40.996 324.758 C 41.001 341.419,40.681 340.152,44.997 340.614 C 50.582 341.213,52.599 340.255,52.998 336.818 L 53.279 334.400 59.011 334.400 C 63.347 334.400,64.877 334.266,65.294 333.849 C 65.597 333.546,66.415 333.172,67.112 333.019 C 68.600 332.693,70.222 330.919,70.598 329.210 L 70.864 328.000 76.332 327.994 C 83.314 327.987,83.675 327.825,84.170 324.493 L 84.540 322.000 87.370 321.977 C 98.916 321.884,101.638 321.002,102.254 317.152 L 102.502 315.600 105.151 315.593 C 114.511 315.567,115.001 315.385,115.386 311.789 L 115.664 309.200 121.612 309.200 C 126.538 309.200,127.619 309.095,127.903 308.587 C 128.092 308.250,128.862 307.665,129.615 307.287 C 130.766 306.709,132.388 304.890,132.873 303.632 C 132.943 303.451,135.480 303.194,138.511 303.060 C 145.301 302.760,146.375 302.316,146.399 299.800 C 146.429 296.732,146.296 296.800,152.273 296.800 C 159.056 296.800,159.200 296.729,159.200 293.386 L 159.200 290.800 160.700 290.777 C 176.028 290.543,177.600 290.056,177.600 285.540 L 177.600 284.400 180.700 284.385 C 190.347 284.337,190.440 284.300,190.722 280.412 L 190.896 278.000 196.548 277.994 C 205.594 277.984,208.092 277.067,208.654 273.552 C 208.930 271.825,208.757 271.874,214.200 271.970 C 220.361 272.078,221.434 271.518,221.833 267.990 L 222.103 265.600 227.631 265.600 C 232.973 265.600,233.195 265.566,234.238 264.600 C 234.831 264.050,235.527 263.600,235.784 263.600 C 236.459 263.600,238.279 261.584,238.765 260.300 L 239.180 259.200 244.890 259.194 C 252.131 259.187,252.478 259.037,252.952 255.719 L 253.304 253.257 259.020 253.129 C 265.660 252.979,265.331 253.159,265.533 249.579 L 265.690 246.800 272.345 246.776 C 282.978 246.738,284.000 246.383,284.000 242.724 C 284.000 241.170,284.134 240.794,284.700 240.770 C 285.085 240.754,287.710 240.709,290.532 240.670 C 296.582 240.587,296.800 240.450,296.800 236.724 L 296.800 234.400 301.700 234.381 C 313.052 234.337,314.508 233.842,315.056 229.844 L 315.301 228.056 321.218 227.928 C 328.047 227.780,327.715 227.946,327.929 224.585 L 328.093 222.000 331.147 221.968 C 332.826 221.951,335.537 221.946,337.171 221.959 C 338.804 221.971,340.334 221.830,340.571 221.644 C 340.807 221.459,341.808 221.205,342.796 221.079 C 344.969 220.802,345.854 219.848,346.223 217.383 L 346.491 215.600 349.845 215.600 C 352.259 215.600,353.202 215.460,353.206 215.100 C 353.211 214.739,353.310 214.754,353.563 215.153 C 354.027 215.887,358.321 215.570,358.831 214.764 C 359.027 214.454,359.191 213.097,359.194 211.749 L 359.200 209.298 366.500 209.116 C 376.789 208.860,377.600 208.385,377.600 202.613 C 377.600 198.030,375.796 193.702,373.496 192.767 C 372.783 192.477,371.983 191.943,371.719 191.579 C 371.304 191.010,370.399 190.926,365.219 190.978 L 359.200 191.037 359.200 188.595 C 359.200 184.652,359.110 184.600,352.232 184.600 L 346.400 184.600 346.400 182.722 C 346.400 178.820,342.572 177.605,332.300 178.246 L 328.000 178.514 328.000 175.886 C 328.000 172.102,327.965 172.082,321.263 172.185 L 315.684 172.271 315.446 170.836 C 315.316 170.046,315.207 168.909,315.204 168.309 C 315.196 166.256,314.046 165.942,306.260 165.867 C 302.421 165.830,299.464 165.686,299.688 165.546 C 299.919 165.404,299.393 164.610,298.483 163.727 C 297.472 162.746,296.818 161.719,296.734 160.980 L 296.600 159.800 290.702 159.568 C 283.914 159.302,284.430 159.530,284.035 156.622 C 283.602 153.426,283.565 153.408,277.380 153.345 C 274.421 153.315,271.744 153.270,271.432 153.245 C 271.119 153.220,270.747 152.668,270.604 152.019 C 270.223 150.285,268.988 148.923,267.294 148.371 C 266.472 148.103,265.671 147.685,265.514 147.442 C 265.337 147.169,263.652 146.991,261.114 146.976 C 258.851 146.963,256.171 146.918,255.157 146.876 L 253.314 146.800 253.054 144.318 C 252.702 140.943,252.821 141.000,246.106 141.000 L 240.252 141.000 239.760 139.068 C 239.140 136.641,238.281 135.682,236.445 135.370 C 235.650 135.235,234.386 134.916,233.635 134.662 C 232.620 134.319,232.230 134.317,232.117 134.653 C 232.008 134.978,231.485 134.998,230.282 134.724 C 229.357 134.513,227.944 134.443,227.142 134.568 C 226.340 134.694,224.875 134.685,223.886 134.550 L 222.089 134.303 221.918 131.940 C 221.662 128.401,221.515 128.326,214.743 128.258 L 209.000 128.200 208.900 126.400 C 208.679 122.430,208.238 122.263,197.900 122.226 C 193.463 122.210,190.793 122.050,190.783 121.800 C 190.773 121.580,190.728 120.374,190.682 119.120 C 190.564 115.837,190.487 115.800,183.826 115.802 L 178.093 115.803 177.844 113.413 C 177.450 109.644,176.929 109.512,161.300 109.237 L 159.200 109.200 159.200 106.614 C 159.200 103.375,159.043 103.282,153.800 103.402 C 151.600 103.452,149.145 103.407,148.345 103.303 L 146.890 103.112 146.718 100.744 C 146.462 97.204,146.464 97.205,138.516 97.014 L 131.682 96.850 129.874 95.093 C 128.713 93.964,128.019 92.918,127.933 92.168 L 127.800 91.000 121.742 91.005 L 115.685 91.009 115.421 88.336 C 115.057 84.638,115.011 84.615,108.197 84.607 L 102.500 84.600 102.023 82.737 C 101.124 79.233,98.447 78.224,90.153 78.263 L 84.507 78.290 84.271 75.479 C 83.976 71.957,84.206 72.066,77.345 72.181 L 71.600 72.278 71.598 71.039 C 71.589 66.324,70.848 65.950,61.200 65.801 C 57.130 65.738,53.674 65.667,53.520 65.643 C 53.366 65.620,53.117 64.513,52.967 63.185 C 52.591 59.865,52.134 59.600,46.787 59.600 C 43.762 59.600,42.331 59.762,41.776 60.168 M100.600 121.984 L 103.400 122.000 103.400 124.567 C 103.400 127.913,103.138 127.780,110.032 127.929 L 116.000 128.058 116.000 129.603 C 116.000 133.901,117.239 134.329,129.808 134.380 L 134.615 134.400 134.608 136.979 C 134.597 140.569,134.628 140.586,141.120 140.673 C 144.134 140.714,146.713 140.759,146.850 140.773 C 146.988 140.788,147.184 141.796,147.285 143.014 C 147.576 146.531,148.221 146.738,159.000 146.776 L 165.800 146.800 165.800 149.380 C 165.800 152.976,165.802 152.977,172.619 153.130 L 178.400 153.259 178.400 155.353 C 178.400 158.886,178.558 158.969,185.770 159.200 L 192.005 159.400 192.703 160.792 C 193.086 161.558,194.030 162.593,194.800 163.093 C 195.570 163.593,196.620 164.361,197.134 164.801 C 197.974 165.520,198.648 165.600,203.834 165.600 L 209.600 165.600 209.600 167.924 C 209.600 171.945,209.409 171.877,221.100 171.988 C 222.221 171.998,222.400 172.139,222.400 173.013 C 222.400 176.993,223.912 177.645,233.727 177.901 L 241.253 178.097 240.989 180.568 C 240.709 183.179,240.948 183.704,242.600 184.111 C 243.040 184.219,211.855 184.328,173.300 184.354 L 103.200 184.400 103.168 179.900 C 103.150 177.425,103.097 174.770,103.051 174.000 C 103.005 173.230,102.930 171.557,102.884 170.282 C 102.770 167.133,101.694 166.000,98.818 166.000 L 96.800 166.000 96.800 154.174 C 96.800 141.727,96.664 140.678,95.084 140.938 C 94.598 141.018,94.425 141.006,94.700 140.912 C 95.944 140.487,94.241 137.493,92.203 136.521 L 90.800 135.852 90.766 132.826 C 90.734 130.029,90.741 125.894,90.783 123.000 L 90.800 121.800 94.300 121.884 C 96.225 121.930,99.060 121.975,100.600 121.984 M71.515 200.238 L 71.393 203.400 71.197 199.918 C 71.088 198.003,71.143 196.580,71.318 196.756 C 71.493 196.932,71.581 198.499,71.515 200.238 M241.651 216.031 C 240.858 216.348,240.741 216.607,240.941 217.605 C 241.113 218.463,241.027 218.800,240.637 218.800 C 240.338 218.800,239.410 219.556,238.575 220.481 L 237.057 222.161 230.343 222.181 C 222.495 222.203,222.536 222.185,222.144 225.927 L 221.883 228.432 218.641 228.204 C 216.859 228.079,214.140 228.117,212.600 228.288 L 209.800 228.600 209.600 231.600 L 209.400 234.600 202.343 234.647 C 191.924 234.717,191.310 234.957,191.102 239.042 L 191.000 241.028 185.101 240.972 C 181.217 240.936,179.077 241.067,178.839 241.358 C 178.388 241.908,178.090 246.765,178.499 246.901 C 178.664 246.955,176.504 246.973,173.699 246.940 C 163.104 246.814,159.293 248.390,160.091 252.565 L 160.264 253.471 154.642 253.356 C 150.995 253.281,149.227 253.374,149.610 253.620 C 150.016 253.881,149.800 253.922,148.919 253.753 C 147.662 253.512,146.878 254.488,147.256 255.826 C 147.314 256.032,147.232 256.849,147.074 257.643 L 146.785 259.086 144.093 259.340 C 142.612 259.480,140.013 259.596,138.319 259.597 C 136.624 259.599,134.824 259.768,134.319 259.972 C 133.813 260.177,132.900 260.452,132.290 260.582 C 130.359 260.996,127.978 264.845,129.190 265.594 C 129.393 265.720,127.319 265.783,124.580 265.735 C 121.772 265.686,119.600 265.808,119.600 266.014 C 119.600 266.215,119.060 266.272,118.401 266.140 C 116.713 265.803,115.864 266.605,116.136 268.281 C 116.253 269.007,116.181 269.600,115.975 269.600 C 115.769 269.600,115.600 270.205,115.600 270.945 L 115.600 272.290 109.808 272.194 C 103.250 272.086,102.939 272.207,103.370 274.696 C 103.561 275.801,103.519 276.041,103.211 275.600 C 102.860 275.098,102.541 275.265,101.249 276.628 L 99.705 278.256 95.253 278.228 L 90.802 278.200 90.764 276.800 C 90.744 276.030,90.751 272.531,90.780 269.025 L 90.833 262.649 92.216 261.305 C 92.977 260.566,93.600 259.790,93.600 259.581 C 93.600 259.371,94.144 259.200,94.810 259.200 C 96.671 259.200,96.800 258.318,96.800 245.574 L 96.800 234.000 98.374 234.000 C 102.718 234.000,103.171 232.674,103.193 219.900 L 103.200 215.600 172.900 215.625 C 217.330 215.642,242.256 215.788,241.651 216.031 M248.200 215.803 C 247.286 216.121,244.871 216.209,245.052 215.916 C 245.159 215.742,246.002 215.614,246.924 215.632 C 247.846 215.649,248.420 215.726,248.200 215.803 M57.552 252.000 C 56.845 252.880,55.981 253.586,55.633 253.568 C 55.139 253.544,55.123 253.488,55.559 253.316 C 55.866 253.194,56.650 252.488,57.300 251.747 C 58.940 249.880,59.115 250.055,57.552 252.000 M86.000 283.400 C 86.424 283.911,86.327 283.993,85.349 283.954 C 84.664 283.926,84.485 283.833,84.905 283.723 C 85.293 283.622,85.507 283.373,85.381 283.170 C 85.017 282.579,85.454 282.742,86.000 283.400 " stroke="none" fill="#5c5c5c" fill-rule="evenodd"></path><path id="path1" d="M54.705 65.883 C 55.202 65.979,55.922 65.975,56.305 65.875 C 56.687 65.775,56.280 65.696,55.400 65.701 C 54.520 65.705,54.207 65.787,54.705 65.883 M61.300 65.876 C 61.685 65.976,62.315 65.976,62.700 65.876 C 63.085 65.775,62.770 65.693,62.000 65.693 C 61.230 65.693,60.915 65.775,61.300 65.876 M78.500 72.276 C 78.885 72.376,79.515 72.376,79.900 72.276 C 80.285 72.175,79.970 72.093,79.200 72.093 C 78.430 72.093,78.115 72.175,78.500 72.276 M40.901 74.200 C 40.905 75.080,40.987 75.393,41.083 74.895 C 41.179 74.398,41.175 73.678,41.075 73.295 C 40.975 72.913,40.896 73.320,40.901 74.200 M85.300 78.287 C 85.905 78.378,86.895 78.378,87.500 78.287 C 88.105 78.195,87.610 78.120,86.400 78.120 C 85.190 78.120,84.695 78.195,85.300 78.287 M40.893 79.600 C 40.893 80.370,40.975 80.685,41.076 80.300 C 41.176 79.915,41.176 79.285,41.076 78.900 C 40.975 78.515,40.893 78.830,40.893 79.600 M40.909 85.600 C 40.909 86.590,40.987 86.995,41.082 86.500 C 41.178 86.005,41.178 85.195,41.082 84.700 C 40.987 84.205,40.909 84.610,40.909 85.600 M135.500 97.082 C 135.995 97.178,136.805 97.178,137.300 97.082 C 137.795 96.987,137.390 96.909,136.400 96.909 C 135.410 96.909,135.005 96.987,135.500 97.082 M46.940 106.000 C 46.940 107.870,47.009 108.635,47.093 107.700 C 47.177 106.765,47.177 105.235,47.093 104.300 C 47.009 103.365,46.940 104.130,46.940 106.000 M153.505 103.483 C 154.002 103.579,154.722 103.575,155.105 103.475 C 155.487 103.375,155.080 103.296,154.200 103.301 C 153.320 103.305,153.007 103.387,153.505 103.483 M183.105 115.883 C 183.602 115.979,184.322 115.975,184.705 115.875 C 185.087 115.775,184.680 115.696,183.800 115.701 C 182.920 115.705,182.607 115.787,183.105 115.883 M53.320 125.200 C 53.320 126.410,53.395 126.905,53.487 126.300 C 53.578 125.695,53.578 124.705,53.487 124.100 C 53.395 123.495,53.320 123.990,53.320 125.200 M209.300 128.276 C 209.685 128.376,210.315 128.376,210.700 128.276 C 211.085 128.175,210.770 128.093,210.000 128.093 C 209.230 128.093,208.915 128.175,209.300 128.276 M53.309 132.400 C 53.309 133.390,53.387 133.795,53.482 133.300 C 53.578 132.805,53.578 131.995,53.482 131.500 C 53.387 131.005,53.309 131.410,53.309 132.400 M224.900 134.676 C 225.285 134.776,225.915 134.776,226.300 134.676 C 226.685 134.575,226.370 134.493,225.600 134.493 C 224.830 134.493,224.515 134.575,224.900 134.676 M229.600 134.555 C 229.600 134.640,230.140 134.788,230.800 134.885 C 231.460 134.982,232.000 134.913,232.000 134.731 C 232.000 134.549,231.460 134.400,230.800 134.400 C 230.140 134.400,229.600 134.470,229.600 134.555 M53.309 140.000 C 53.309 140.990,53.387 141.395,53.482 140.900 C 53.578 140.405,53.578 139.595,53.482 139.100 C 53.387 138.605,53.309 139.010,53.309 140.000 M257.705 147.087 C 258.314 147.179,259.214 147.177,259.705 147.082 C 260.197 146.987,259.700 146.911,258.600 146.914 C 257.500 146.917,257.097 146.995,257.705 147.087 M305.300 165.876 C 305.685 165.976,306.315 165.976,306.700 165.876 C 307.085 165.775,306.770 165.693,306.000 165.693 C 305.230 165.693,304.915 165.775,305.300 165.876 M322.500 172.276 C 322.885 172.376,323.515 172.376,323.900 172.276 C 324.285 172.175,323.970 172.093,323.200 172.093 C 322.430 172.093,322.115 172.175,322.500 172.276 M240.893 179.200 C 240.893 179.970,240.975 180.285,241.076 179.900 C 241.176 179.515,241.176 178.885,241.076 178.500 C 240.975 178.115,240.893 178.430,240.893 179.200 M329.091 178.289 C 329.801 178.377,331.061 178.379,331.891 178.292 C 332.721 178.205,332.140 178.133,330.600 178.131 C 329.060 178.129,328.381 178.200,329.091 178.289 M65.731 181.800 C 65.733 183.340,65.805 183.921,65.892 183.091 C 65.979 182.261,65.977 181.001,65.889 180.291 C 65.800 179.581,65.729 180.260,65.731 181.800 M65.728 193.600 C 65.728 195.030,65.801 195.615,65.889 194.900 C 65.978 194.185,65.978 193.015,65.889 192.300 C 65.801 191.585,65.728 192.170,65.728 193.600 M71.197 199.918 L 71.393 203.400 71.515 200.238 C 71.581 198.499,71.493 196.932,71.318 196.756 C 71.143 196.580,71.088 198.003,71.197 199.918 M65.765 204.148 C 65.649 204.449,65.613 205.664,65.684 206.848 L 65.813 209.000 66.007 206.299 C 66.201 203.581,66.152 203.139,65.765 204.148 M65.731 217.800 C 65.733 219.340,65.805 219.921,65.892 219.091 C 65.979 218.261,65.977 217.001,65.889 216.291 C 65.800 215.581,65.729 216.260,65.731 217.800 M245.052 215.916 C 244.944 216.090,245.518 216.167,246.328 216.087 C 248.542 215.869,248.805 215.667,246.924 215.632 C 246.002 215.614,245.159 215.742,245.052 215.916 M219.905 228.283 C 220.402 228.379,221.122 228.375,221.505 228.275 C 221.887 228.175,221.480 228.096,220.600 228.101 C 219.720 228.105,219.407 228.187,219.905 228.283 M199.300 234.676 C 199.685 234.776,200.315 234.776,200.700 234.676 C 201.085 234.575,200.770 234.493,200.000 234.493 C 199.230 234.493,198.915 234.575,199.300 234.676 M182.100 241.076 C 182.485 241.176,183.115 241.176,183.500 241.076 C 183.885 240.975,183.570 240.893,182.800 240.893 C 182.030 240.893,181.715 240.975,182.100 241.076 M171.305 247.087 C 171.914 247.179,172.814 247.177,173.305 247.082 C 173.797 246.987,173.300 246.911,172.200 246.914 C 171.100 246.917,170.697 246.995,171.305 247.087 M57.300 251.747 C 56.650 252.488,55.866 253.194,55.559 253.316 C 55.123 253.488,55.139 253.544,55.633 253.568 C 55.981 253.586,56.845 252.880,57.552 252.000 C 59.115 250.055,58.940 249.880,57.300 251.747 M53.309 259.600 C 53.309 260.590,53.387 260.995,53.482 260.500 C 53.578 260.005,53.578 259.195,53.482 258.700 C 53.387 258.205,53.309 258.610,53.309 259.600 M53.314 267.000 C 53.317 268.100,53.395 268.503,53.487 267.895 C 53.579 267.286,53.577 266.386,53.482 265.895 C 53.387 265.403,53.311 265.900,53.314 267.000 M123.700 265.876 C 124.085 265.976,124.715 265.976,125.100 265.876 C 125.485 265.775,125.170 265.693,124.400 265.693 C 123.630 265.693,123.315 265.775,123.700 265.876 M53.320 274.400 C 53.320 275.610,53.395 276.105,53.487 275.500 C 53.578 274.895,53.578 273.905,53.487 273.300 C 53.395 272.695,53.320 273.190,53.320 274.400 M97.905 278.283 C 98.402 278.379,99.122 278.375,99.505 278.275 C 99.887 278.175,99.480 278.096,98.600 278.101 C 97.720 278.105,97.407 278.187,97.905 278.283 M85.381 283.170 C 85.507 283.373,85.293 283.622,84.905 283.723 C 84.485 283.833,84.664 283.926,85.349 283.954 C 86.327 283.993,86.424 283.911,86.000 283.400 C 85.454 282.742,85.017 282.579,85.381 283.170 M46.937 293.800 C 46.939 295.560,47.009 296.230,47.093 295.289 C 47.178 294.349,47.177 292.909,47.091 292.089 C 47.005 291.270,46.936 292.040,46.937 293.800 M46.800 305.071 C 46.800 305.775,46.355 306.539,45.500 307.300 L 44.200 308.458 45.700 307.381 C 47.010 306.442,47.948 304.000,47.000 304.000 C 46.890 304.000,46.800 304.482,46.800 305.071 M40.909 314.400 C 40.909 315.390,40.987 315.795,41.082 315.300 C 41.178 314.805,41.178 313.995,41.082 313.500 C 40.987 313.005,40.909 313.410,40.909 314.400 M40.893 320.000 C 40.893 320.770,40.975 321.085,41.076 320.700 C 41.176 320.315,41.176 319.685,41.076 319.300 C 40.975 318.915,40.893 319.230,40.893 320.000 M40.901 325.400 C 40.905 326.280,40.987 326.593,41.083 326.095 C 41.179 325.598,41.175 324.878,41.075 324.495 C 40.975 324.113,40.896 324.520,40.901 325.400 " stroke="none" fill="#605c5c" fill-rule="evenodd"></path><path id="path2" d="M54.705 65.883 C 55.202 65.979,55.922 65.975,56.305 65.875 C 56.687 65.775,56.280 65.696,55.400 65.701 C 54.520 65.705,54.207 65.787,54.705 65.883 M61.300 65.876 C 61.685 65.976,62.315 65.976,62.700 65.876 C 63.085 65.775,62.770 65.693,62.000 65.693 C 61.230 65.693,60.915 65.775,61.300 65.876 M78.500 72.276 C 78.885 72.376,79.515 72.376,79.900 72.276 C 80.285 72.175,79.970 72.093,79.200 72.093 C 78.430 72.093,78.115 72.175,78.500 72.276 M40.901 74.200 C 40.905 75.080,40.987 75.393,41.083 74.895 C 41.179 74.398,41.175 73.678,41.075 73.295 C 40.975 72.913,40.896 73.320,40.901 74.200 M85.300 78.287 C 85.905 78.378,86.895 78.378,87.500 78.287 C 88.105 78.195,87.610 78.120,86.400 78.120 C 85.190 78.120,84.695 78.195,85.300 78.287 M40.893 79.600 C 40.893 80.370,40.975 80.685,41.076 80.300 C 41.176 79.915,41.176 79.285,41.076 78.900 C 40.975 78.515,40.893 78.830,40.893 79.600 M40.909 85.600 C 40.909 86.590,40.987 86.995,41.082 86.500 C 41.178 86.005,41.178 85.195,41.082 84.700 C 40.987 84.205,40.909 84.610,40.909 85.600 M135.500 97.082 C 135.995 97.178,136.805 97.178,137.300 97.082 C 137.795 96.987,137.390 96.909,136.400 96.909 C 135.410 96.909,135.005 96.987,135.500 97.082 M46.940 106.000 C 46.940 107.870,47.009 108.635,47.093 107.700 C 47.177 106.765,47.177 105.235,47.093 104.300 C 47.009 103.365,46.940 104.130,46.940 106.000 M153.505 103.483 C 154.002 103.579,154.722 103.575,155.105 103.475 C 155.487 103.375,155.080 103.296,154.200 103.301 C 153.320 103.305,153.007 103.387,153.505 103.483 M183.105 115.883 C 183.602 115.979,184.322 115.975,184.705 115.875 C 185.087 115.775,184.680 115.696,183.800 115.701 C 182.920 115.705,182.607 115.787,183.105 115.883 M53.320 125.200 C 53.320 126.410,53.395 126.905,53.487 126.300 C 53.578 125.695,53.578 124.705,53.487 124.100 C 53.395 123.495,53.320 123.990,53.320 125.200 M209.300 128.276 C 209.685 128.376,210.315 128.376,210.700 128.276 C 211.085 128.175,210.770 128.093,210.000 128.093 C 209.230 128.093,208.915 128.175,209.300 128.276 M53.309 132.400 C 53.309 133.390,53.387 133.795,53.482 133.300 C 53.578 132.805,53.578 131.995,53.482 131.500 C 53.387 131.005,53.309 131.410,53.309 132.400 M224.900 134.676 C 225.285 134.776,225.915 134.776,226.300 134.676 C 226.685 134.575,226.370 134.493,225.600 134.493 C 224.830 134.493,224.515 134.575,224.900 134.676 M229.600 134.555 C 229.600 134.640,230.140 134.788,230.800 134.885 C 231.460 134.982,232.000 134.913,232.000 134.731 C 232.000 134.549,231.460 134.400,230.800 134.400 C 230.140 134.400,229.600 134.470,229.600 134.555 M53.309 140.000 C 53.309 140.990,53.387 141.395,53.482 140.900 C 53.578 140.405,53.578 139.595,53.482 139.100 C 53.387 138.605,53.309 139.010,53.309 140.000 M257.705 147.087 C 258.314 147.179,259.214 147.177,259.705 147.082 C 260.197 146.987,259.700 146.911,258.600 146.914 C 257.500 146.917,257.097 146.995,257.705 147.087 M305.300 165.876 C 305.685 165.976,306.315 165.976,306.700 165.876 C 307.085 165.775,306.770 165.693,306.000 165.693 C 305.230 165.693,304.915 165.775,305.300 165.876 M322.500 172.276 C 322.885 172.376,323.515 172.376,323.900 172.276 C 324.285 172.175,323.970 172.093,323.200 172.093 C 322.430 172.093,322.115 172.175,322.500 172.276 M240.893 179.200 C 240.893 179.970,240.975 180.285,241.076 179.900 C 241.176 179.515,241.176 178.885,241.076 178.500 C 240.975 178.115,240.893 178.430,240.893 179.200 M329.091 178.289 C 329.801 178.377,331.061 178.379,331.891 178.292 C 332.721 178.205,332.140 178.133,330.600 178.131 C 329.060 178.129,328.381 178.200,329.091 178.289 M65.731 181.800 C 65.733 183.340,65.805 183.921,65.892 183.091 C 65.979 182.261,65.977 181.001,65.889 180.291 C 65.800 179.581,65.729 180.260,65.731 181.800 M65.728 193.600 C 65.728 195.030,65.801 195.615,65.889 194.900 C 65.978 194.185,65.978 193.015,65.889 192.300 C 65.801 191.585,65.728 192.170,65.728 193.600 M71.197 199.918 L 71.393 203.400 71.515 200.238 C 71.581 198.499,71.493 196.932,71.318 196.756 C 71.143 196.580,71.088 198.003,71.197 199.918 M65.765 204.148 C 65.649 204.449,65.613 205.664,65.684 206.848 L 65.813 209.000 66.007 206.299 C 66.201 203.581,66.152 203.139,65.765 204.148 M65.731 217.800 C 65.733 219.340,65.805 219.921,65.892 219.091 C 65.979 218.261,65.977 217.001,65.889 216.291 C 65.800 215.581,65.729 216.260,65.731 217.800 M245.052 215.916 C 244.944 216.090,245.518 216.167,246.328 216.087 C 248.542 215.869,248.805 215.667,246.924 215.632 C 246.002 215.614,245.159 215.742,245.052 215.916 M219.905 228.283 C 220.402 228.379,221.122 228.375,221.505 228.275 C 221.887 228.175,221.480 228.096,220.600 228.101 C 219.720 228.105,219.407 228.187,219.905 228.283 M199.300 234.676 C 199.685 234.776,200.315 234.776,200.700 234.676 C 201.085 234.575,200.770 234.493,200.000 234.493 C 199.230 234.493,198.915 234.575,199.300 234.676 M182.100 241.076 C 182.485 241.176,183.115 241.176,183.500 241.076 C 183.885 240.975,183.570 240.893,182.800 240.893 C 182.030 240.893,181.715 240.975,182.100 241.076 M171.305 247.087 C 171.914 247.179,172.814 247.177,173.305 247.082 C 173.797 246.987,173.300 246.911,172.200 246.914 C 171.100 246.917,170.697 246.995,171.305 247.087 M57.300 251.747 C 56.650 252.488,55.866 253.194,55.559 253.316 C 55.123 253.488,55.139 253.544,55.633 253.568 C 55.981 253.586,56.845 252.880,57.552 252.000 C 59.115 250.055,58.940 249.880,57.300 251.747 M53.309 259.600 C 53.309 260.590,53.387 260.995,53.482 260.500 C 53.578 260.005,53.578 259.195,53.482 258.700 C 53.387 258.205,53.309 258.610,53.309 259.600 M53.314 267.000 C 53.317 268.100,53.395 268.503,53.487 267.895 C 53.579 267.286,53.577 266.386,53.482 265.895 C 53.387 265.403,53.311 265.900,53.314 267.000 M123.700 265.876 C 124.085 265.976,124.715 265.976,125.100 265.876 C 125.485 265.775,125.170 265.693,124.400 265.693 C 123.630 265.693,123.315 265.775,123.700 265.876 M53.320 274.400 C 53.320 275.610,53.395 276.105,53.487 275.500 C 53.578 274.895,53.578 273.905,53.487 273.300 C 53.395 272.695,53.320 273.190,53.320 274.400 M97.905 278.283 C 98.402 278.379,99.122 278.375,99.505 278.275 C 99.887 278.175,99.480 278.096,98.600 278.101 C 97.720 278.105,97.407 278.187,97.905 278.283 M85.381 283.170 C 85.507 283.373,85.293 283.622,84.905 283.723 C 84.485 283.833,84.664 283.926,85.349 283.954 C 86.327 283.993,86.424 283.911,86.000 283.400 C 85.454 282.742,85.017 282.579,85.381 283.170 M46.937 293.800 C 46.939 295.560,47.009 296.230,47.093 295.289 C 47.178 294.349,47.177 292.909,47.091 292.089 C 47.005 291.270,46.936 292.040,46.937 293.800 M46.800 305.071 C 46.800 305.775,46.355 306.539,45.500 307.300 L 44.200 308.458 45.700 307.381 C 47.010 306.442,47.948 304.000,47.000 304.000 C 46.890 304.000,46.800 304.482,46.800 305.071 M40.909 314.400 C 40.909 315.390,40.987 315.795,41.082 315.300 C 41.178 314.805,41.178 313.995,41.082 313.500 C 40.987 313.005,40.909 313.410,40.909 314.400 M40.893 320.000 C 40.893 320.770,40.975 321.085,41.076 320.700 C 41.176 320.315,41.176 319.685,41.076 319.300 C 40.975 318.915,40.893 319.230,40.893 320.000 M40.901 325.400 C 40.905 326.280,40.987 326.593,41.083 326.095 C 41.179 325.598,41.175 324.878,41.075 324.495 C 40.975 324.113,40.896 324.520,40.901 325.400 " stroke="none" fill="#605c5c" fill-rule="evenodd"></path><path id="path3" d="M54.705 65.883 C 55.202 65.979,55.922 65.975,56.305 65.875 C 56.687 65.775,56.280 65.696,55.400 65.701 C 54.520 65.705,54.207 65.787,54.705 65.883 M61.300 65.876 C 61.685 65.976,62.315 65.976,62.700 65.876 C 63.085 65.775,62.770 65.693,62.000 65.693 C 61.230 65.693,60.915 65.775,61.300 65.876 M78.500 72.276 C 78.885 72.376,79.515 72.376,79.900 72.276 C 80.285 72.175,79.970 72.093,79.200 72.093 C 78.430 72.093,78.115 72.175,78.500 72.276 M40.901 74.200 C 40.905 75.080,40.987 75.393,41.083 74.895 C 41.179 74.398,41.175 73.678,41.075 73.295 C 40.975 72.913,40.896 73.320,40.901 74.200 M85.300 78.287 C 85.905 78.378,86.895 78.378,87.500 78.287 C 88.105 78.195,87.610 78.120,86.400 78.120 C 85.190 78.120,84.695 78.195,85.300 78.287 M40.893 79.600 C 40.893 80.370,40.975 80.685,41.076 80.300 C 41.176 79.915,41.176 79.285,41.076 78.900 C 40.975 78.515,40.893 78.830,40.893 79.600 M40.909 85.600 C 40.909 86.590,40.987 86.995,41.082 86.500 C 41.178 86.005,41.178 85.195,41.082 84.700 C 40.987 84.205,40.909 84.610,40.909 85.600 M135.500 97.082 C 135.995 97.178,136.805 97.178,137.300 97.082 C 137.795 96.987,137.390 96.909,136.400 96.909 C 135.410 96.909,135.005 96.987,135.500 97.082 M46.940 106.000 C 46.940 107.870,47.009 108.635,47.093 107.700 C 47.177 106.765,47.177 105.235,47.093 104.300 C 47.009 103.365,46.940 104.130,46.940 106.000 M153.505 103.483 C 154.002 103.579,154.722 103.575,155.105 103.475 C 155.487 103.375,155.080 103.296,154.200 103.301 C 153.320 103.305,153.007 103.387,153.505 103.483 M183.105 115.883 C 183.602 115.979,184.322 115.975,184.705 115.875 C 185.087 115.775,184.680 115.696,183.800 115.701 C 182.920 115.705,182.607 115.787,183.105 115.883 M53.320 125.200 C 53.320 126.410,53.395 126.905,53.487 126.300 C 53.578 125.695,53.578 124.705,53.487 124.100 C 53.395 123.495,53.320 123.990,53.320 125.200 M209.300 128.276 C 209.685 128.376,210.315 128.376,210.700 128.276 C 211.085 128.175,210.770 128.093,210.000 128.093 C 209.230 128.093,208.915 128.175,209.300 128.276 M53.309 132.400 C 53.309 133.390,53.387 133.795,53.482 133.300 C 53.578 132.805,53.578 131.995,53.482 131.500 C 53.387 131.005,53.309 131.410,53.309 132.400 M224.900 134.676 C 225.285 134.776,225.915 134.776,226.300 134.676 C 226.685 134.575,226.370 134.493,225.600 134.493 C 224.830 134.493,224.515 134.575,224.900 134.676 M229.600 134.555 C 229.600 134.640,230.140 134.788,230.800 134.885 C 231.460 134.982,232.000 134.913,232.000 134.731 C 232.000 134.549,231.460 134.400,230.800 134.400 C 230.140 134.400,229.600 134.470,229.600 134.555 M53.309 140.000 C 53.309 140.990,53.387 141.395,53.482 140.900 C 53.578 140.405,53.578 139.595,53.482 139.100 C 53.387 138.605,53.309 139.010,53.309 140.000 M257.705 147.087 C 258.314 147.179,259.214 147.177,259.705 147.082 C 260.197 146.987,259.700 146.911,258.600 146.914 C 257.500 146.917,257.097 146.995,257.705 147.087 M305.300 165.876 C 305.685 165.976,306.315 165.976,306.700 165.876 C 307.085 165.775,306.770 165.693,306.000 165.693 C 305.230 165.693,304.915 165.775,305.300 165.876 M322.500 172.276 C 322.885 172.376,323.515 172.376,323.900 172.276 C 324.285 172.175,323.970 172.093,323.200 172.093 C 322.430 172.093,322.115 172.175,322.500 172.276 M240.893 179.200 C 240.893 179.970,240.975 180.285,241.076 179.900 C 241.176 179.515,241.176 178.885,241.076 178.500 C 240.975 178.115,240.893 178.430,240.893 179.200 M329.091 178.289 C 329.801 178.377,331.061 178.379,331.891 178.292 C 332.721 178.205,332.140 178.133,330.600 178.131 C 329.060 178.129,328.381 178.200,329.091 178.289 M65.731 181.800 C 65.733 183.340,65.805 183.921,65.892 183.091 C 65.979 182.261,65.977 181.001,65.889 180.291 C 65.800 179.581,65.729 180.260,65.731 181.800 M65.728 193.600 C 65.728 195.030,65.801 195.615,65.889 194.900 C 65.978 194.185,65.978 193.015,65.889 192.300 C 65.801 191.585,65.728 192.170,65.728 193.600 M71.197 199.918 L 71.393 203.400 71.515 200.238 C 71.581 198.499,71.493 196.932,71.318 196.756 C 71.143 196.580,71.088 198.003,71.197 199.918 M65.765 204.148 C 65.649 204.449,65.613 205.664,65.684 206.848 L 65.813 209.000 66.007 206.299 C 66.201 203.581,66.152 203.139,65.765 204.148 M65.731 217.800 C 65.733 219.340,65.805 219.921,65.892 219.091 C 65.979 218.261,65.977 217.001,65.889 216.291 C 65.800 215.581,65.729 216.260,65.731 217.800 M245.052 215.916 C 244.944 216.090,245.518 216.167,246.328 216.087 C 248.542 215.869,248.805 215.667,246.924 215.632 C 246.002 215.614,245.159 215.742,245.052 215.916 M219.905 228.283 C 220.402 228.379,221.122 228.375,221.505 228.275 C 221.887 228.175,221.480 228.096,220.600 228.101 C 219.720 228.105,219.407 228.187,219.905 228.283 M199.300 234.676 C 199.685 234.776,200.315 234.776,200.700 234.676 C 201.085 234.575,200.770 234.493,200.000 234.493 C 199.230 234.493,198.915 234.575,199.300 234.676 M182.100 241.076 C 182.485 241.176,183.115 241.176,183.500 241.076 C 183.885 240.975,183.570 240.893,182.800 240.893 C 182.030 240.893,181.715 240.975,182.100 241.076 M171.305 247.087 C 171.914 247.179,172.814 247.177,173.305 247.082 C 173.797 246.987,173.300 246.911,172.200 246.914 C 171.100 246.917,170.697 246.995,171.305 247.087 M57.300 251.747 C 56.650 252.488,55.866 253.194,55.559 253.316 C 55.123 253.488,55.139 253.544,55.633 253.568 C 55.981 253.586,56.845 252.880,57.552 252.000 C 59.115 250.055,58.940 249.880,57.300 251.747 M53.309 259.600 C 53.309 260.590,53.387 260.995,53.482 260.500 C 53.578 260.005,53.578 259.195,53.482 258.700 C 53.387 258.205,53.309 258.610,53.309 259.600 M53.314 267.000 C 53.317 268.100,53.395 268.503,53.487 267.895 C 53.579 267.286,53.577 266.386,53.482 265.895 C 53.387 265.403,53.311 265.900,53.314 267.000 M123.700 265.876 C 124.085 265.976,124.715 265.976,125.100 265.876 C 125.485 265.775,125.170 265.693,124.400 265.693 C 123.630 265.693,123.315 265.775,123.700 265.876 M53.320 274.400 C 53.320 275.610,53.395 276.105,53.487 275.500 C 53.578 274.895,53.578 273.905,53.487 273.300 C 53.395 272.695,53.320 273.190,53.320 274.400 M97.905 278.283 C 98.402 278.379,99.122 278.375,99.505 278.275 C 99.887 278.175,99.480 278.096,98.600 278.101 C 97.720 278.105,97.407 278.187,97.905 278.283 M85.381 283.170 C 85.507 283.373,85.293 283.622,84.905 283.723 C 84.485 283.833,84.664 283.926,85.349 283.954 C 86.327 283.993,86.424 283.911,86.000 283.400 C 85.454 282.742,85.017 282.579,85.381 283.170 M46.937 293.800 C 46.939 295.560,47.009 296.230,47.093 295.289 C 47.178 294.349,47.177 292.909,47.091 292.089 C 47.005 291.270,46.936 292.040,46.937 293.800 M46.800 305.071 C 46.800 305.775,46.355 306.539,45.500 307.300 L 44.200 308.458 45.700 307.381 C 47.010 306.442,47.948 304.000,47.000 304.000 C 46.890 304.000,46.800 304.482,46.800 305.071 M40.909 314.400 C 40.909 315.390,40.987 315.795,41.082 315.300 C 41.178 314.805,41.178 313.995,41.082 313.500 C 40.987 313.005,40.909 313.410,40.909 314.400 M40.893 320.000 C 40.893 320.770,40.975 321.085,41.076 320.700 C 41.176 320.315,41.176 319.685,41.076 319.300 C 40.975 318.915,40.893 319.230,40.893 320.000 M40.901 325.400 C 40.905 326.280,40.987 326.593,41.083 326.095 C 41.179 325.598,41.175 324.878,41.075 324.495 C 40.975 324.113,40.896 324.520,40.901 325.400 " stroke="none" fill="#605c5c" fill-rule="evenodd"></path><path id="path4" d="M54.705 65.883 C 55.202 65.979,55.922 65.975,56.305 65.875 C 56.687 65.775,56.280 65.696,55.400 65.701 C 54.520 65.705,54.207 65.787,54.705 65.883 M61.300 65.876 C 61.685 65.976,62.315 65.976,62.700 65.876 C 63.085 65.775,62.770 65.693,62.000 65.693 C 61.230 65.693,60.915 65.775,61.300 65.876 M78.500 72.276 C 78.885 72.376,79.515 72.376,79.900 72.276 C 80.285 72.175,79.970 72.093,79.200 72.093 C 78.430 72.093,78.115 72.175,78.500 72.276 M40.901 74.200 C 40.905 75.080,40.987 75.393,41.083 74.895 C 41.179 74.398,41.175 73.678,41.075 73.295 C 40.975 72.913,40.896 73.320,40.901 74.200 M85.300 78.287 C 85.905 78.378,86.895 78.378,87.500 78.287 C 88.105 78.195,87.610 78.120,86.400 78.120 C 85.190 78.120,84.695 78.195,85.300 78.287 M40.893 79.600 C 40.893 80.370,40.975 80.685,41.076 80.300 C 41.176 79.915,41.176 79.285,41.076 78.900 C 40.975 78.515,40.893 78.830,40.893 79.600 M40.909 85.600 C 40.909 86.590,40.987 86.995,41.082 86.500 C 41.178 86.005,41.178 85.195,41.082 84.700 C 40.987 84.205,40.909 84.610,40.909 85.600 M135.500 97.082 C 135.995 97.178,136.805 97.178,137.300 97.082 C 137.795 96.987,137.390 96.909,136.400 96.909 C 135.410 96.909,135.005 96.987,135.500 97.082 M46.940 106.000 C 46.940 107.870,47.009 108.635,47.093 107.700 C 47.177 106.765,47.177 105.235,47.093 104.300 C 47.009 103.365,46.940 104.130,46.940 106.000 M153.505 103.483 C 154.002 103.579,154.722 103.575,155.105 103.475 C 155.487 103.375,155.080 103.296,154.200 103.301 C 153.320 103.305,153.007 103.387,153.505 103.483 M183.105 115.883 C 183.602 115.979,184.322 115.975,184.705 115.875 C 185.087 115.775,184.680 115.696,183.800 115.701 C 182.920 115.705,182.607 115.787,183.105 115.883 M53.320 125.200 C 53.320 126.410,53.395 126.905,53.487 126.300 C 53.578 125.695,53.578 124.705,53.487 124.100 C 53.395 123.495,53.320 123.990,53.320 125.200 M209.300 128.276 C 209.685 128.376,210.315 128.376,210.700 128.276 C 211.085 128.175,210.770 128.093,210.000 128.093 C 209.230 128.093,208.915 128.175,209.300 128.276 M53.309 132.400 C 53.309 133.390,53.387 133.795,53.482 133.300 C 53.578 132.805,53.578 131.995,53.482 131.500 C 53.387 131.005,53.309 131.410,53.309 132.400 M224.900 134.676 C 225.285 134.776,225.915 134.776,226.300 134.676 C 226.685 134.575,226.370 134.493,225.600 134.493 C 224.830 134.493,224.515 134.575,224.900 134.676 M229.600 134.555 C 229.600 134.640,230.140 134.788,230.800 134.885 C 231.460 134.982,232.000 134.913,232.000 134.731 C 232.000 134.549,231.460 134.400,230.800 134.400 C 230.140 134.400,229.600 134.470,229.600 134.555 M53.309 140.000 C 53.309 140.990,53.387 141.395,53.482 140.900 C 53.578 140.405,53.578 139.595,53.482 139.100 C 53.387 138.605,53.309 139.010,53.309 140.000 M257.705 147.087 C 258.314 147.179,259.214 147.177,259.705 147.082 C 260.197 146.987,259.700 146.911,258.600 146.914 C 257.500 146.917,257.097 146.995,257.705 147.087 M305.300 165.876 C 305.685 165.976,306.315 165.976,306.700 165.876 C 307.085 165.775,306.770 165.693,306.000 165.693 C 305.230 165.693,304.915 165.775,305.300 165.876 M322.500 172.276 C 322.885 172.376,323.515 172.376,323.900 172.276 C 324.285 172.175,323.970 172.093,323.200 172.093 C 322.430 172.093,322.115 172.175,322.500 172.276 M240.893 179.200 C 240.893 179.970,240.975 180.285,241.076 179.900 C 241.176 179.515,241.176 178.885,241.076 178.500 C 240.975 178.115,240.893 178.430,240.893 179.200 M329.091 178.289 C 329.801 178.377,331.061 178.379,331.891 178.292 C 332.721 178.205,332.140 178.133,330.600 178.131 C 329.060 178.129,328.381 178.200,329.091 178.289 M65.731 181.800 C 65.733 183.340,65.805 183.921,65.892 183.091 C 65.979 182.261,65.977 181.001,65.889 180.291 C 65.800 179.581,65.729 180.260,65.731 181.800 M65.728 193.600 C 65.728 195.030,65.801 195.615,65.889 194.900 C 65.978 194.185,65.978 193.015,65.889 192.300 C 65.801 191.585,65.728 192.170,65.728 193.600 M71.197 199.918 L 71.393 203.400 71.515 200.238 C 71.581 198.499,71.493 196.932,71.318 196.756 C 71.143 196.580,71.088 198.003,71.197 199.918 M65.765 204.148 C 65.649 204.449,65.613 205.664,65.684 206.848 L 65.813 209.000 66.007 206.299 C 66.201 203.581,66.152 203.139,65.765 204.148 M65.731 217.800 C 65.733 219.340,65.805 219.921,65.892 219.091 C 65.979 218.261,65.977 217.001,65.889 216.291 C 65.800 215.581,65.729 216.260,65.731 217.800 M245.052 215.916 C 244.944 216.090,245.518 216.167,246.328 216.087 C 248.542 215.869,248.805 215.667,246.924 215.632 C 246.002 215.614,245.159 215.742,245.052 215.916 M219.905 228.283 C 220.402 228.379,221.122 228.375,221.505 228.275 C 221.887 228.175,221.480 228.096,220.600 228.101 C 219.720 228.105,219.407 228.187,219.905 228.283 M199.300 234.676 C 199.685 234.776,200.315 234.776,200.700 234.676 C 201.085 234.575,200.770 234.493,200.000 234.493 C 199.230 234.493,198.915 234.575,199.300 234.676 M182.100 241.076 C 182.485 241.176,183.115 241.176,183.500 241.076 C 183.885 240.975,183.570 240.893,182.800 240.893 C 182.030 240.893,181.715 240.975,182.100 241.076 M171.305 247.087 C 171.914 247.179,172.814 247.177,173.305 247.082 C 173.797 246.987,173.300 246.911,172.200 246.914 C 171.100 246.917,170.697 246.995,171.305 247.087 M57.300 251.747 C 56.650 252.488,55.866 253.194,55.559 253.316 C 55.123 253.488,55.139 253.544,55.633 253.568 C 55.981 253.586,56.845 252.880,57.552 252.000 C 59.115 250.055,58.940 249.880,57.300 251.747 M53.309 259.600 C 53.309 260.590,53.387 260.995,53.482 260.500 C 53.578 260.005,53.578 259.195,53.482 258.700 C 53.387 258.205,53.309 258.610,53.309 259.600 M53.314 267.000 C 53.317 268.100,53.395 268.503,53.487 267.895 C 53.579 267.286,53.577 266.386,53.482 265.895 C 53.387 265.403,53.311 265.900,53.314 267.000 M123.700 265.876 C 124.085 265.976,124.715 265.976,125.100 265.876 C 125.485 265.775,125.170 265.693,124.400 265.693 C 123.630 265.693,123.315 265.775,123.700 265.876 M53.320 274.400 C 53.320 275.610,53.395 276.105,53.487 275.500 C 53.578 274.895,53.578 273.905,53.487 273.300 C 53.395 272.695,53.320 273.190,53.320 274.400 M97.905 278.283 C 98.402 278.379,99.122 278.375,99.505 278.275 C 99.887 278.175,99.480 278.096,98.600 278.101 C 97.720 278.105,97.407 278.187,97.905 278.283 M85.381 283.170 C 85.507 283.373,85.293 283.622,84.905 283.723 C 84.485 283.833,84.664 283.926,85.349 283.954 C 86.327 283.993,86.424 283.911,86.000 283.400 C 85.454 282.742,85.017 282.579,85.381 283.170 M46.937 293.800 C 46.939 295.560,47.009 296.230,47.093 295.289 C 47.178 294.349,47.177 292.909,47.091 292.089 C 47.005 291.270,46.936 292.040,46.937 293.800 M46.800 305.071 C 46.800 305.775,46.355 306.539,45.500 307.300 L 44.200 308.458 45.700 307.381 C 47.010 306.442,47.948 304.000,47.000 304.000 C 46.890 304.000,46.800 304.482,46.800 305.071 M40.909 314.400 C 40.909 315.390,40.987 315.795,41.082 315.300 C 41.178 314.805,41.178 313.995,41.082 313.500 C 40.987 313.005,40.909 313.410,40.909 314.400 M40.893 320.000 C 40.893 320.770,40.975 321.085,41.076 320.700 C 41.176 320.315,41.176 319.685,41.076 319.300 C 40.975 318.915,40.893 319.230,40.893 320.000 M40.901 325.400 C 40.905 326.280,40.987 326.593,41.083 326.095 C 41.179 325.598,41.175 324.878,41.075 324.495 C 40.975 324.113,40.896 324.520,40.901 325.400 " stroke="none" fill="#605c5c" fill-rule="evenodd"></path></g></svg>