<svg id="svg" version="1.1" xmlns="http://www.w3.org/2000/svg" xmlns:xlink="http://www.w3.org/1999/xlink" width="400" height="400" viewBox="0, 0, 400,400"><g id="svgg"><path id="path0" d="M320.200 75.610 C 309.904 76.176,309.526 76.581,308.845 87.771 L 308.600 91.800 304.200 92.130 C 293.349 92.945,292.945 93.349,292.130 104.200 L 291.800 108.600 286.600 108.842 C 276.364 109.320,276.228 109.447,275.567 119.180 C 275.098 126.076,276.076 125.098,269.180 125.567 C 259.447 126.228,259.320 126.364,258.842 136.600 L 258.600 141.800 253.227 142.127 C 243.264 142.734,242.734 143.264,242.127 153.227 L 241.800 158.600 236.600 158.842 C 226.364 159.320,226.228 159.447,225.567 169.180 C 225.098 176.076,226.076 175.098,219.180 175.567 C 209.447 176.228,209.320 176.364,208.842 186.600 L 208.600 191.800 204.200 192.130 C 193.349 192.945,192.945 193.349,192.130 204.200 L 191.800 208.600 187.771 208.845 C 176.507 209.530,176.061 209.951,175.755 220.173 C 175.663 223.238,175.472 225.848,175.330 225.973 C 175.188 226.098,175.201 225.975,175.359 225.700 C 175.702 225.104,175.589 225.103,168.600 225.593 C 159.523 226.231,159.315 226.465,158.842 236.600 L 158.600 241.800 150.100 241.908 L 141.600 242.016 141.600 239.478 C 141.600 235.935,140.494 228.916,139.760 227.795 C 138.780 226.300,134.168 225.453,125.700 225.214 C 125.386 225.205,125.200 224.606,125.200 223.600 C 125.200 222.720,125.047 222.000,124.860 222.000 C 124.674 222.000,124.407 220.335,124.267 218.300 C 123.709 210.165,122.909 209.481,113.335 208.951 L 108.469 208.682 108.248 206.841 C 108.127 205.828,107.856 203.244,107.645 201.097 C 106.799 192.457,103.470 191.227,84.070 192.387 C 79.598 192.654,75.833 192.767,75.703 192.636 C 75.573 192.506,76.262 192.384,77.233 192.365 C 83.391 192.243,82.056 191.707,75.600 191.710 C 68.265 191.712,68.228 191.717,71.400 192.206 C 75.581 192.851,74.194 192.907,67.641 192.359 C 58.451 191.589,58.634 191.408,58.569 201.375 L 58.523 208.549 51.361 208.601 C 42.183 208.668,41.933 208.795,42.057 213.326 C 42.113 215.372,42.117 215.379,42.357 213.800 C 42.491 212.920,42.604 214.900,42.609 218.200 C 42.619 223.960,42.603 224.080,42.209 221.200 L 41.800 218.200 41.685 221.900 C 41.622 223.935,41.622 227.265,41.685 229.300 L 41.800 233.000 42.264 229.600 L 42.729 226.200 42.464 230.800 C 42.100 237.134,42.276 246.320,42.840 250.400 C 43.635 256.160,46.145 257.600,55.389 257.600 C 58.895 257.600,58.610 257.122,59.192 263.985 C 59.933 272.706,60.996 273.654,70.700 274.244 C 73.175 274.394,75.208 274.536,75.219 274.559 C 75.229 274.581,75.396 277.120,75.589 280.200 C 76.007 286.840,76.522 288.681,78.243 289.683 C 79.432 290.376,87.157 291.589,90.421 291.597 L 91.843 291.600 92.273 297.300 C 93.009 307.059,93.116 307.143,106.240 308.256 L 108.679 308.463 109.136 313.900 C 109.905 323.050,111.648 324.400,122.690 324.400 C 124.070 324.400,125.205 324.445,125.211 324.500 C 125.217 324.555,125.383 327.227,125.579 330.438 C 126.256 341.473,126.095 341.402,150.400 341.397 C 172.495 341.392,173.499 341.074,174.239 333.852 C 174.388 332.394,174.666 331.200,174.855 331.200 C 175.045 331.200,175.200 329.927,175.200 328.371 C 175.200 324.995,175.631 324.400,178.082 324.400 C 187.980 324.400,190.129 322.771,190.807 314.755 C 191.381 307.976,191.155 308.400,194.208 308.400 C 195.633 308.400,196.800 308.246,196.800 308.057 C 196.800 307.869,198.198 307.618,199.907 307.501 C 205.850 307.094,207.094 305.850,207.501 299.907 C 207.618 298.198,207.869 296.800,208.057 296.800 C 208.246 296.800,208.400 295.653,208.400 294.251 L 208.400 291.703 211.500 291.470 C 222.638 290.633,223.623 289.992,224.258 283.168 C 224.399 281.646,224.669 280.400,224.857 280.400 C 225.046 280.400,225.200 279.307,225.200 277.971 C 225.200 275.028,225.707 274.400,228.082 274.400 C 237.980 274.400,240.129 272.771,240.807 264.755 C 241.279 259.187,241.452 258.400,242.208 258.400 C 242.533 258.400,242.800 258.220,242.800 258.000 C 242.800 257.778,243.861 257.600,245.184 257.600 C 255.279 257.600,257.600 255.279,257.600 245.184 C 257.600 243.861,257.778 242.800,258.000 242.800 C 258.220 242.800,258.400 242.553,258.400 242.251 C 258.400 241.856,259.263 241.632,261.500 241.450 C 272.751 240.532,273.556 240.014,274.221 233.270 C 274.376 231.691,274.660 230.400,274.852 230.400 C 275.043 230.400,275.200 229.230,275.200 227.800 L 275.200 225.200 277.800 225.200 C 279.230 225.200,280.400 225.043,280.400 224.852 C 280.400 224.660,281.691 224.376,283.270 224.221 C 290.014 223.556,290.532 222.751,291.450 211.500 C 291.632 209.263,291.856 208.400,292.251 208.400 C 292.553 208.400,292.800 208.220,292.800 208.000 C 292.800 207.778,293.861 207.600,295.184 207.600 C 305.279 207.600,307.600 205.279,307.600 195.184 C 307.600 193.861,307.778 192.800,308.000 192.800 C 308.220 192.800,308.400 192.542,308.400 192.227 C 308.400 191.426,309.387 191.190,314.307 190.812 C 322.298 190.199,323.349 189.154,324.109 181.070 C 324.712 174.647,324.647 174.712,331.070 174.109 C 339.154 173.349,340.199 172.298,340.812 164.307 C 341.190 159.387,341.426 158.400,342.227 158.400 C 342.542 158.400,342.800 158.220,342.800 158.000 C 342.800 157.778,343.861 157.600,345.184 157.600 C 355.279 157.600,357.600 155.279,357.600 145.184 C 357.600 143.861,357.778 142.800,358.000 142.800 C 358.220 142.800,358.400 142.542,358.400 142.227 C 358.400 141.426,359.387 141.190,364.307 140.812 C 372.323 140.197,373.375 139.141,374.113 130.956 C 374.359 128.230,374.703 126.000,374.877 126.000 C 375.051 126.000,375.179 120.150,375.161 113.000 C 375.141 105.489,374.974 100.000,374.764 100.000 C 374.564 100.000,374.400 99.730,374.400 99.400 C 374.400 99.070,374.580 98.800,374.800 98.800 C 375.020 98.800,375.200 97.900,375.200 96.800 C 375.200 95.700,375.033 94.800,374.828 94.800 C 374.623 94.800,374.398 94.400,374.328 93.910 C 374.150 92.670,372.587 92.003,370.000 92.063 C 367.917 92.111,367.885 92.127,369.400 92.357 C 370.280 92.491,368.300 92.604,365.000 92.609 C 359.240 92.619,359.120 92.603,362.000 92.209 L 365.000 91.800 361.700 91.684 C 359.485 91.606,358.383 91.409,358.350 91.084 C 358.322 90.818,358.340 89.020,358.390 87.090 C 358.450 84.786,358.313 83.377,357.992 82.990 C 357.650 82.578,357.637 82.400,357.951 82.400 C 358.671 82.400,358.440 78.368,357.642 77.007 C 356.621 75.266,354.680 74.996,347.200 75.552 C 342.833 75.878,339.522 75.896,336.000 75.616 C 330.532 75.181,328.034 75.180,320.200 75.610 M330.707 75.886 C 330.106 75.977,329.026 75.979,328.307 75.890 C 327.588 75.801,328.080 75.726,329.400 75.724 C 330.720 75.722,331.308 75.795,330.707 75.886 M352.700 75.887 C 352.095 75.978,351.105 75.978,350.500 75.887 C 349.895 75.795,350.390 75.720,351.600 75.720 C 352.810 75.720,353.305 75.795,352.700 75.887 M322.000 76.800 C 322.000 77.023,321.068 77.177,319.900 77.147 C 317.947 77.098,317.898 77.074,319.200 76.800 C 321.302 76.358,322.000 76.358,322.000 76.800 M310.283 87.695 C 310.187 88.193,310.105 87.880,310.101 87.000 C 310.096 86.120,310.175 85.713,310.275 86.095 C 310.375 86.478,310.379 87.198,310.283 87.695 M304.700 93.476 C 304.315 93.576,303.685 93.576,303.300 93.476 C 302.915 93.375,303.230 93.293,304.000 93.293 C 304.770 93.293,305.085 93.375,304.700 93.476 M293.476 104.700 C 293.375 105.085,293.293 104.770,293.293 104.000 C 293.293 103.230,293.375 102.915,293.476 103.300 C 293.576 103.685,293.576 104.315,293.476 104.700 M285.600 110.000 C 285.600 110.220,285.015 110.379,284.300 110.353 L 283.000 110.305 284.200 110.000 C 284.860 109.832,285.445 109.673,285.500 109.647 C 285.555 109.621,285.600 109.780,285.600 110.000 M277.028 118.705 C 276.597 119.136,276.495 118.598,276.742 117.200 L 276.989 115.800 277.123 117.138 C 277.196 117.875,277.154 118.580,277.028 118.705 M268.800 126.800 C 268.800 127.020,268.125 127.179,267.300 127.153 C 265.807 127.106,265.806 127.104,267.000 126.800 C 268.732 126.359,268.800 126.359,268.800 126.800 M260.400 134.400 C 260.400 135.060,260.251 135.600,260.069 135.600 C 259.887 135.600,259.818 135.060,259.915 134.400 C 260.012 133.740,260.160 133.200,260.245 133.200 C 260.330 133.200,260.400 133.740,260.400 134.400 M347.862 141.071 C 347.366 141.567,346.825 140.739,347.304 140.218 C 347.719 139.767,347.822 139.776,347.935 140.271 C 348.010 140.596,347.977 140.957,347.862 141.071 M342.757 141.319 C 342.184 141.536,341.525 142.184,341.294 142.757 L 340.873 143.800 340.936 142.800 C 341.021 141.476,341.483 141.008,342.751 140.962 L 343.800 140.923 342.757 141.319 M341.200 147.624 C 341.200 147.831,340.833 148.000,340.384 148.000 C 339.707 148.000,339.656 147.906,340.084 147.442 C 340.616 146.866,341.200 146.961,341.200 147.624 M235.600 160.000 C 235.600 160.220,235.015 160.379,234.300 160.353 L 233.000 160.305 234.200 160.000 C 234.860 159.832,235.445 159.673,235.500 159.647 C 235.555 159.621,235.600 159.780,235.600 160.000 M227.028 168.705 C 226.597 169.136,226.495 168.598,226.742 167.200 L 226.989 165.800 227.123 167.138 C 227.196 167.875,227.154 168.580,227.028 168.705 M218.800 176.800 C 218.800 177.020,218.125 177.179,217.300 177.153 C 215.807 177.106,215.806 177.104,217.000 176.800 C 218.732 176.359,218.800 176.359,218.800 176.800 M210.400 184.400 C 210.400 185.060,210.251 185.600,210.069 185.600 C 209.887 185.600,209.818 185.060,209.915 184.400 C 210.012 183.740,210.160 183.200,210.245 183.200 C 210.330 183.200,210.400 183.740,210.400 184.400 M297.862 191.071 C 297.366 191.567,296.825 190.739,297.304 190.218 C 297.719 189.767,297.822 189.776,297.935 190.271 C 298.010 190.596,297.977 190.957,297.862 191.071 M292.700 191.339 C 292.095 191.567,291.597 192.035,291.594 192.377 C 291.589 192.893,291.527 192.904,291.234 192.441 C 290.755 191.685,291.448 191.009,292.751 190.962 L 293.800 190.923 292.700 191.339 M64.900 192.682 C 64.405 192.778,63.595 192.778,63.100 192.682 C 62.605 192.587,63.010 192.509,64.000 192.509 C 64.990 192.509,65.395 192.587,64.900 192.682 M89.705 192.682 C 89.214 192.777,88.314 192.779,87.705 192.687 C 87.097 192.595,87.500 192.517,88.600 192.514 C 89.700 192.511,90.197 192.587,89.705 192.682 M61.600 193.200 C 61.600 193.420,61.330 193.600,61.000 193.600 C 60.670 193.600,60.400 193.870,60.400 194.200 C 60.400 194.530,60.220 194.800,60.000 194.800 C 59.306 194.800,59.565 194.070,60.489 193.423 C 61.537 192.689,61.600 192.676,61.600 193.200 M204.700 193.476 C 204.315 193.576,203.685 193.576,203.300 193.476 C 202.915 193.375,203.230 193.293,204.000 193.293 C 204.770 193.293,205.085 193.375,204.700 193.476 M290.698 198.063 C 289.989 198.501,289.547 198.024,290.104 197.423 C 290.456 197.043,290.681 197.018,290.879 197.334 C 291.032 197.579,290.951 197.907,290.698 198.063 M59.090 200.893 C 59.001 201.612,58.926 201.120,58.924 199.800 C 58.922 198.480,58.995 197.892,59.086 198.493 C 59.177 199.094,59.179 200.174,59.090 200.893 M193.476 204.700 C 193.375 205.085,193.293 204.770,193.293 204.000 C 193.293 203.230,193.375 202.915,193.476 203.300 C 193.576 203.685,193.576 204.315,193.476 204.700 M278.000 208.522 C 278.000 208.588,277.325 209.263,276.500 210.022 L 275.000 211.400 276.378 209.900 C 277.662 208.504,278.000 208.216,278.000 208.522 M50.707 209.086 C 50.106 209.177,49.026 209.179,48.307 209.090 C 47.588 209.001,48.080 208.926,49.400 208.924 C 50.720 208.922,51.308 208.995,50.707 209.086 M44.800 210.000 C 44.800 210.220,44.530 210.400,44.200 210.400 C 43.870 210.400,43.600 210.670,43.600 211.000 C 43.600 211.330,43.409 211.600,43.176 211.600 C 42.761 211.600,42.941 211.096,43.711 210.100 C 44.175 209.500,44.800 209.443,44.800 210.000 M187.905 210.275 C 187.522 210.375,186.802 210.379,186.305 210.283 C 185.807 210.187,186.120 210.105,187.000 210.101 C 187.880 210.096,188.287 210.175,187.905 210.275 M177.024 221.910 C 176.530 222.404,176.413 221.631,176.699 219.765 L 177.000 217.800 177.124 219.743 C 177.192 220.812,177.147 221.787,177.024 221.910 M259.881 226.717 C 259.067 227.551,258.400 228.451,258.400 228.717 C 258.400 228.983,258.220 229.200,258.000 229.200 C 257.780 229.200,257.600 229.106,257.600 228.991 C 257.600 228.693,260.855 225.200,261.132 225.200 C 261.259 225.200,260.696 225.883,259.881 226.717 M168.800 226.800 C 168.800 227.020,168.125 227.179,167.300 227.153 C 165.807 227.106,165.806 227.104,167.000 226.800 C 168.732 226.359,168.800 226.359,168.800 226.800 M160.400 234.400 C 160.400 235.060,160.251 235.600,160.069 235.600 C 159.887 235.600,159.818 235.060,159.915 234.400 C 160.012 233.740,160.160 233.200,160.245 233.200 C 160.330 233.200,160.400 233.740,160.400 234.400 M42.687 239.095 C 42.595 239.703,42.517 239.300,42.514 238.200 C 42.511 237.100,42.587 236.603,42.682 237.095 C 42.777 237.586,42.779 238.486,42.687 239.095 M58.400 239.739 C 58.400 240.047,56.884 241.600,56.583 241.600 C 56.406 241.600,56.683 241.150,57.200 240.600 C 58.094 239.649,58.400 239.429,58.400 239.739 M58.833 242.285 C 58.470 242.899,58.434 242.859,58.575 242.000 C 58.807 240.599,58.838 240.539,59.060 241.085 C 59.168 241.352,59.066 241.892,58.833 242.285 M43.476 244.700 C 43.375 245.085,43.293 244.770,43.293 244.000 C 43.293 243.230,43.375 242.915,43.476 243.300 C 43.576 243.685,43.576 244.315,43.476 244.700 M240.945 247.400 C 241.102 247.811,240.921 248.000,240.372 248.000 C 239.698 248.000,239.652 247.905,240.084 247.415 C 240.727 246.686,240.671 246.687,240.945 247.400 M60.368 261.100 C 60.334 263.191,60.139 263.022,59.909 260.700 C 59.828 259.875,59.904 259.200,60.080 259.200 C 60.256 259.200,60.386 260.055,60.368 261.100 M77.200 281.800 C 77.200 282.570,77.130 283.200,77.044 283.200 C 76.958 283.200,76.814 282.570,76.724 281.800 C 76.634 281.030,76.704 280.400,76.880 280.400 C 77.056 280.400,77.200 281.030,77.200 281.800 M110.368 311.100 C 110.334 313.191,110.139 313.022,109.909 310.700 C 109.828 309.875,109.904 309.200,110.080 309.200 C 110.256 309.200,110.386 310.055,110.368 311.100 M137.594 324.900 C 137.589 325.628,137.514 325.685,137.200 325.200 C 136.699 324.424,136.699 324.000,137.200 324.000 C 137.420 324.000,137.597 324.405,137.594 324.900 M154.900 324.299 C 152.425 324.369,148.375 324.369,145.900 324.299 C 143.425 324.228,145.450 324.171,150.400 324.171 C 155.350 324.171,157.375 324.228,154.900 324.299 M158.983 325.572 C 159.121 325.796,155.729 325.960,150.438 325.984 C 144.795 326.011,141.572 325.878,141.408 325.613 C 141.236 325.334,144.007 325.200,149.953 325.200 C 154.941 325.200,158.852 325.361,158.983 325.572 M161.279 326.782 C 160.610 327.452,159.922 328.000,159.752 328.000 C 159.582 328.000,160.051 327.373,160.794 326.606 C 161.537 325.839,162.225 325.291,162.321 325.388 C 162.418 325.485,161.949 326.112,161.279 326.782 M159.200 328.785 C 159.200 329.018,155.634 329.216,150.219 329.285 C 145.280 329.348,141.370 329.269,141.531 329.108 C 141.692 328.948,145.688 328.764,150.412 328.700 C 155.135 328.636,159.045 328.542,159.100 328.492 C 159.155 328.441,159.200 328.573,159.200 328.785 M164.400 328.522 C 164.400 328.588,163.725 329.263,162.900 330.022 L 161.400 331.400 162.778 329.900 C 164.062 328.504,164.400 328.216,164.400 328.522 M127.200 332.667 C 127.200 334.381,127.014 334.323,126.667 332.500 C 126.525 331.753,126.586 331.200,126.810 331.200 C 127.025 331.200,127.200 331.860,127.200 332.667 M154.478 333.099 C 151.991 333.169,148.031 333.169,145.678 333.098 C 143.325 333.028,145.360 332.970,150.200 332.970 C 155.040 332.971,156.965 333.029,154.478 333.099 " stroke="none" fill="#5c5c5c" fill-rule="evenodd"></path><path id="path1" d="M337.145 75.659 C 339.716 75.855,343.278 75.854,345.345 75.657 C 348.545 75.352,347.979 75.309,340.800 75.311 C 332.939 75.313,332.788 75.327,337.145 75.659 M328.307 75.890 C 329.026 75.979,330.106 75.977,330.707 75.886 C 331.308 75.795,330.720 75.722,329.400 75.724 C 328.080 75.726,327.588 75.801,328.307 75.890 M350.500 75.887 C 351.105 75.978,352.095 75.978,352.700 75.887 C 353.305 75.795,352.810 75.720,351.600 75.720 C 350.390 75.720,349.895 75.795,350.500 75.887 M319.200 76.800 C 317.898 77.074,317.947 77.098,319.900 77.147 C 321.068 77.177,322.000 77.023,322.000 76.800 C 322.000 76.358,321.302 76.358,319.200 76.800 M310.101 87.000 C 310.105 87.880,310.187 88.193,310.283 87.695 C 310.379 87.198,310.375 86.478,310.275 86.095 C 310.175 85.713,310.096 86.120,310.101 87.000 M360.800 92.363 C 359.810 92.497,361.700 92.607,365.000 92.608 C 368.658 92.609,370.298 92.502,369.200 92.335 C 367.075 92.010,363.324 92.022,360.800 92.363 M303.300 93.476 C 303.685 93.576,304.315 93.576,304.700 93.476 C 305.085 93.375,304.770 93.293,304.000 93.293 C 303.230 93.293,302.915 93.375,303.300 93.476 M374.400 99.400 C 374.400 99.730,374.580 100.000,374.800 100.000 C 375.020 100.000,375.200 99.730,375.200 99.400 C 375.200 99.070,375.020 98.800,374.800 98.800 C 374.580 98.800,374.400 99.070,374.400 99.400 M293.293 104.000 C 293.293 104.770,293.375 105.085,293.476 104.700 C 293.576 104.315,293.576 103.685,293.476 103.300 C 293.375 102.915,293.293 103.230,293.293 104.000 M284.200 110.000 L 283.000 110.305 284.300 110.353 C 285.015 110.379,285.600 110.220,285.600 110.000 C 285.600 109.780,285.555 109.621,285.500 109.647 C 285.445 109.673,284.860 109.832,284.200 110.000 M276.742 117.200 C 276.495 118.598,276.597 119.136,277.028 118.705 C 277.154 118.580,277.196 117.875,277.123 117.138 L 276.989 115.800 276.742 117.200 M267.000 126.800 C 265.806 127.104,265.807 127.106,267.300 127.153 C 268.125 127.179,268.800 127.020,268.800 126.800 C 268.800 126.359,268.732 126.359,267.000 126.800 M259.915 134.400 C 259.818 135.060,259.887 135.600,260.069 135.600 C 260.251 135.600,260.400 135.060,260.400 134.400 C 260.400 133.740,260.330 133.200,260.245 133.200 C 260.160 133.200,260.012 133.740,259.915 134.400 M347.304 140.218 C 346.966 140.586,346.943 140.841,347.231 141.019 C 347.782 141.359,348.106 141.015,347.935 140.271 C 347.822 139.776,347.719 139.767,347.304 140.218 M341.351 141.400 C 341.158 141.620,340.971 142.250,340.936 142.800 L 340.873 143.800 341.294 142.757 C 341.525 142.184,342.184 141.536,342.757 141.319 L 343.800 140.923 342.751 140.962 C 342.175 140.983,341.545 141.180,341.351 141.400 M340.084 147.442 C 339.656 147.906,339.707 148.000,340.384 148.000 C 340.833 148.000,341.200 147.831,341.200 147.624 C 341.200 146.961,340.616 146.866,340.084 147.442 M234.200 160.000 L 233.000 160.305 234.300 160.353 C 235.015 160.379,235.600 160.220,235.600 160.000 C 235.600 159.780,235.555 159.621,235.500 159.647 C 235.445 159.673,234.860 159.832,234.200 160.000 M226.742 167.200 C 226.495 168.598,226.597 169.136,227.028 168.705 C 227.154 168.580,227.196 167.875,227.123 167.138 L 226.989 165.800 226.742 167.200 M217.000 176.800 C 215.806 177.104,215.807 177.106,217.300 177.153 C 218.125 177.179,218.800 177.020,218.800 176.800 C 218.800 176.359,218.732 176.359,217.000 176.800 M209.915 184.400 C 209.818 185.060,209.887 185.600,210.069 185.600 C 210.251 185.600,210.400 185.060,210.400 184.400 C 210.400 183.740,210.330 183.200,210.245 183.200 C 210.160 183.200,210.012 183.740,209.915 184.400 M297.304 190.218 C 296.966 190.586,296.943 190.841,297.231 191.019 C 297.782 191.359,298.106 191.015,297.935 190.271 C 297.822 189.776,297.719 189.767,297.304 190.218 M291.291 191.441 C 291.043 191.707,291.020 192.103,291.234 192.441 C 291.527 192.904,291.589 192.893,291.594 192.377 C 291.597 192.035,292.095 191.567,292.700 191.339 L 293.800 190.923 292.751 190.962 C 292.175 190.983,291.518 191.198,291.291 191.441 M64.000 192.360 C 63.010 192.492,64.990 192.604,68.400 192.608 C 72.262 192.613,73.846 192.513,72.600 192.343 C 70.226 192.019,66.502 192.027,64.000 192.360 M77.600 192.367 C 76.390 192.498,78.820 192.603,83.000 192.602 C 87.349 192.601,89.659 192.489,88.400 192.340 C 85.762 192.027,80.635 192.040,77.600 192.367 M60.489 193.423 C 59.565 194.070,59.306 194.800,60.000 194.800 C 60.220 194.800,60.400 194.530,60.400 194.200 C 60.400 193.870,60.670 193.600,61.000 193.600 C 61.330 193.600,61.600 193.420,61.600 193.200 C 61.600 192.676,61.537 192.689,60.489 193.423 M203.300 193.476 C 203.685 193.576,204.315 193.576,204.700 193.476 C 205.085 193.375,204.770 193.293,204.000 193.293 C 203.230 193.293,202.915 193.375,203.300 193.476 M290.104 197.423 C 289.547 198.024,289.989 198.501,290.698 198.063 C 290.951 197.907,291.032 197.579,290.879 197.334 C 290.681 197.018,290.456 197.043,290.104 197.423 M58.924 199.800 C 58.926 201.120,59.001 201.612,59.090 200.893 C 59.179 200.174,59.177 199.094,59.086 198.493 C 58.995 197.892,58.922 198.480,58.924 199.800 M193.293 204.000 C 193.293 204.770,193.375 205.085,193.476 204.700 C 193.576 204.315,193.576 203.685,193.476 203.300 C 193.375 202.915,193.293 203.230,193.293 204.000 M58.454 207.076 C 58.405 208.244,58.273 208.365,56.900 208.509 L 55.400 208.666 56.913 208.733 C 58.553 208.806,58.988 208.314,58.686 206.729 C 58.549 206.008,58.497 206.086,58.454 207.076 M276.378 209.900 L 275.000 211.400 276.500 210.022 C 277.896 208.738,278.184 208.400,277.878 208.400 C 277.812 208.400,277.137 209.075,276.378 209.900 M48.307 209.090 C 49.026 209.179,50.106 209.177,50.707 209.086 C 51.308 208.995,50.720 208.922,49.400 208.924 C 48.080 208.926,47.588 209.001,48.307 209.090 M43.711 210.100 C 42.941 211.096,42.761 211.600,43.176 211.600 C 43.409 211.600,43.600 211.330,43.600 211.000 C 43.600 210.670,43.870 210.400,44.200 210.400 C 44.530 210.400,44.800 210.220,44.800 210.000 C 44.800 209.443,44.175 209.500,43.711 210.100 M186.305 210.283 C 186.802 210.379,187.522 210.375,187.905 210.275 C 188.287 210.175,187.880 210.096,187.000 210.101 C 186.120 210.105,185.807 210.187,186.305 210.283 M42.191 215.356 C 42.039 216.982,42.073 219.637,42.267 221.256 C 42.587 223.934,42.619 223.667,42.621 218.300 C 42.622 211.571,42.576 211.251,42.191 215.356 M176.699 219.765 C 176.413 221.631,176.530 222.404,177.024 221.910 C 177.147 221.787,177.192 220.812,177.124 219.743 L 177.000 217.800 176.699 219.765 M259.251 226.991 C 257.528 228.861,257.335 229.200,258.000 229.200 C 258.220 229.200,258.400 228.983,258.400 228.717 C 258.400 228.451,259.067 227.551,259.881 226.717 C 260.696 225.883,261.259 225.200,261.132 225.200 C 261.005 225.200,260.159 226.006,259.251 226.991 M42.197 230.100 C 42.045 232.135,42.073 235.240,42.260 237.000 C 42.561 239.830,42.602 239.401,42.621 233.300 C 42.644 225.404,42.584 224.947,42.197 230.100 M167.000 226.800 C 165.806 227.104,165.807 227.106,167.300 227.153 C 168.125 227.179,168.800 227.020,168.800 226.800 C 168.800 226.359,168.732 226.359,167.000 226.800 M159.915 234.400 C 159.818 235.060,159.887 235.600,160.069 235.600 C 160.251 235.600,160.400 235.060,160.400 234.400 C 160.400 233.740,160.330 233.200,160.245 233.200 C 160.160 233.200,160.012 233.740,159.915 234.400 M57.200 240.600 C 56.683 241.150,56.406 241.600,56.583 241.600 C 56.884 241.600,58.400 240.047,58.400 239.739 C 58.400 239.429,58.094 239.649,57.200 240.600 M58.802 240.800 C 58.433 242.004,58.452 242.929,58.833 242.285 C 59.066 241.892,59.168 241.352,59.060 241.085 C 58.952 240.818,58.836 240.690,58.802 240.800 M43.293 244.000 C 43.293 244.770,43.375 245.085,43.476 244.700 C 43.576 244.315,43.576 243.685,43.476 243.300 C 43.375 242.915,43.293 243.230,43.293 244.000 M240.084 247.415 C 239.652 247.905,239.698 248.000,240.372 248.000 C 240.921 248.000,241.102 247.811,240.945 247.400 C 240.671 246.687,240.727 246.686,240.084 247.415 M59.909 260.700 C 60.139 263.022,60.334 263.191,60.368 261.100 C 60.386 260.055,60.256 259.200,60.080 259.200 C 59.904 259.200,59.828 259.875,59.909 260.700 M76.724 281.800 C 76.814 282.570,76.958 283.200,77.044 283.200 C 77.130 283.200,77.200 282.570,77.200 281.800 C 77.200 281.030,77.056 280.400,76.880 280.400 C 76.704 280.400,76.634 281.030,76.724 281.800 M109.909 310.700 C 110.139 313.022,110.334 313.191,110.368 311.100 C 110.386 310.055,110.256 309.200,110.080 309.200 C 109.904 309.200,109.828 309.875,109.909 310.700 M136.806 324.300 C 136.824 325.177,137.588 325.759,137.594 324.900 C 137.597 324.405,137.420 324.000,137.200 324.000 C 136.980 324.000,136.803 324.135,136.806 324.300 M145.900 324.299 C 148.375 324.369,152.425 324.369,154.900 324.299 C 157.375 324.228,155.350 324.171,150.400 324.171 C 145.450 324.171,143.425 324.228,145.900 324.299 M141.408 325.613 C 141.572 325.878,144.795 326.011,150.438 325.984 C 155.729 325.960,159.121 325.796,158.983 325.572 C 158.852 325.361,154.941 325.200,149.953 325.200 C 144.007 325.200,141.236 325.334,141.408 325.613 M160.794 326.606 C 160.051 327.373,159.582 328.000,159.752 328.000 C 160.182 328.000,162.538 325.605,162.321 325.388 C 162.225 325.291,161.537 325.839,160.794 326.606 M150.412 328.700 C 145.688 328.764,141.692 328.948,141.531 329.108 C 141.370 329.269,145.280 329.348,150.219 329.285 C 155.634 329.216,159.200 329.018,159.200 328.785 C 159.200 328.573,159.155 328.441,159.100 328.492 C 159.045 328.542,155.135 328.636,150.412 328.700 M162.778 329.900 L 161.400 331.400 162.900 330.022 C 164.296 328.738,164.584 328.400,164.278 328.400 C 164.212 328.400,163.537 329.075,162.778 329.900 M126.667 332.500 C 127.014 334.323,127.200 334.381,127.200 332.667 C 127.200 331.860,127.025 331.200,126.810 331.200 C 126.586 331.200,126.525 331.753,126.667 332.500 M145.678 333.098 C 148.031 333.169,151.991 333.169,154.478 333.099 C 156.965 333.029,155.040 332.971,150.200 332.970 C 145.360 332.970,143.325 333.028,145.678 333.098 " stroke="none" fill="#605c5c" fill-rule="evenodd"></path><path id="path2" d="M337.145 75.659 C 339.716 75.855,343.278 75.854,345.345 75.657 C 348.545 75.352,347.979 75.309,340.800 75.311 C 332.939 75.313,332.788 75.327,337.145 75.659 M328.307 75.890 C 329.026 75.979,330.106 75.977,330.707 75.886 C 331.308 75.795,330.720 75.722,329.400 75.724 C 328.080 75.726,327.588 75.801,328.307 75.890 M350.500 75.887 C 351.105 75.978,352.095 75.978,352.700 75.887 C 353.305 75.795,352.810 75.720,351.600 75.720 C 350.390 75.720,349.895 75.795,350.500 75.887 M319.200 76.800 C 317.898 77.074,317.947 77.098,319.900 77.147 C 321.068 77.177,322.000 77.023,322.000 76.800 C 322.000 76.358,321.302 76.358,319.200 76.800 M310.101 87.000 C 310.105 87.880,310.187 88.193,310.283 87.695 C 310.379 87.198,310.375 86.478,310.275 86.095 C 310.175 85.713,310.096 86.120,310.101 87.000 M360.800 92.363 C 359.810 92.497,361.700 92.607,365.000 92.608 C 368.658 92.609,370.298 92.502,369.200 92.335 C 367.075 92.010,363.324 92.022,360.800 92.363 M303.300 93.476 C 303.685 93.576,304.315 93.576,304.700 93.476 C 305.085 93.375,304.770 93.293,304.000 93.293 C 303.230 93.293,302.915 93.375,303.300 93.476 M374.400 99.400 C 374.400 99.730,374.580 100.000,374.800 100.000 C 375.020 100.000,375.200 99.730,375.200 99.400 C 375.200 99.070,375.020 98.800,374.800 98.800 C 374.580 98.800,374.400 99.070,374.400 99.400 M293.293 104.000 C 293.293 104.770,293.375 105.085,293.476 104.700 C 293.576 104.315,293.576 103.685,293.476 103.300 C 293.375 102.915,293.293 103.230,293.293 104.000 M284.200 110.000 L 283.000 110.305 284.300 110.353 C 285.015 110.379,285.600 110.220,285.600 110.000 C 285.600 109.780,285.555 109.621,285.500 109.647 C 285.445 109.673,284.860 109.832,284.200 110.000 M276.742 117.200 C 276.495 118.598,276.597 119.136,277.028 118.705 C 277.154 118.580,277.196 117.875,277.123 117.138 L 276.989 115.800 276.742 117.200 M267.000 126.800 C 265.806 127.104,265.807 127.106,267.300 127.153 C 268.125 127.179,268.800 127.020,268.800 126.800 C 268.800 126.359,268.732 126.359,267.000 126.800 M259.915 134.400 C 259.818 135.060,259.887 135.600,260.069 135.600 C 260.251 135.600,260.400 135.060,260.400 134.400 C 260.400 133.740,260.330 133.200,260.245 133.200 C 260.160 133.200,260.012 133.740,259.915 134.400 M347.304 140.218 C 346.966 140.586,346.943 140.841,347.231 141.019 C 347.782 141.359,348.106 141.015,347.935 140.271 C 347.822 139.776,347.719 139.767,347.304 140.218 M341.351 141.400 C 341.158 141.620,340.971 142.250,340.936 142.800 L 340.873 143.800 341.294 142.757 C 341.525 142.184,342.184 141.536,342.757 141.319 L 343.800 140.923 342.751 140.962 C 342.175 140.983,341.545 141.180,341.351 141.400 M340.084 147.442 C 339.656 147.906,339.707 148.000,340.384 148.000 C 340.833 148.000,341.200 147.831,341.200 147.624 C 341.200 146.961,340.616 146.866,340.084 147.442 M234.200 160.000 L 233.000 160.305 234.300 160.353 C 235.015 160.379,235.600 160.220,235.600 160.000 C 235.600 159.780,235.555 159.621,235.500 159.647 C 235.445 159.673,234.860 159.832,234.200 160.000 M226.742 167.200 C 226.495 168.598,226.597 169.136,227.028 168.705 C 227.154 168.580,227.196 167.875,227.123 167.138 L 226.989 165.800 226.742 167.200 M217.000 176.800 C 215.806 177.104,215.807 177.106,217.300 177.153 C 218.125 177.179,218.800 177.020,218.800 176.800 C 218.800 176.359,218.732 176.359,217.000 176.800 M209.915 184.400 C 209.818 185.060,209.887 185.600,210.069 185.600 C 210.251 185.600,210.400 185.060,210.400 184.400 C 210.400 183.740,210.330 183.200,210.245 183.200 C 210.160 183.200,210.012 183.740,209.915 184.400 M297.304 190.218 C 296.966 190.586,296.943 190.841,297.231 191.019 C 297.782 191.359,298.106 191.015,297.935 190.271 C 297.822 189.776,297.719 189.767,297.304 190.218 M291.291 191.441 C 291.043 191.707,291.020 192.103,291.234 192.441 C 291.527 192.904,291.589 192.893,291.594 192.377 C 291.597 192.035,292.095 191.567,292.700 191.339 L 293.800 190.923 292.751 190.962 C 292.175 190.983,291.518 191.198,291.291 191.441 M64.000 192.360 C 63.010 192.492,64.990 192.604,68.400 192.608 C 72.262 192.613,73.846 192.513,72.600 192.343 C 70.226 192.019,66.502 192.027,64.000 192.360 M77.600 192.367 C 76.390 192.498,78.820 192.603,83.000 192.602 C 87.349 192.601,89.659 192.489,88.400 192.340 C 85.762 192.027,80.635 192.040,77.600 192.367 M60.489 193.423 C 59.565 194.070,59.306 194.800,60.000 194.800 C 60.220 194.800,60.400 194.530,60.400 194.200 C 60.400 193.870,60.670 193.600,61.000 193.600 C 61.330 193.600,61.600 193.420,61.600 193.200 C 61.600 192.676,61.537 192.689,60.489 193.423 M203.300 193.476 C 203.685 193.576,204.315 193.576,204.700 193.476 C 205.085 193.375,204.770 193.293,204.000 193.293 C 203.230 193.293,202.915 193.375,203.300 193.476 M290.104 197.423 C 289.547 198.024,289.989 198.501,290.698 198.063 C 290.951 197.907,291.032 197.579,290.879 197.334 C 290.681 197.018,290.456 197.043,290.104 197.423 M58.924 199.800 C 58.926 201.120,59.001 201.612,59.090 200.893 C 59.179 200.174,59.177 199.094,59.086 198.493 C 58.995 197.892,58.922 198.480,58.924 199.800 M193.293 204.000 C 193.293 204.770,193.375 205.085,193.476 204.700 C 193.576 204.315,193.576 203.685,193.476 203.300 C 193.375 202.915,193.293 203.230,193.293 204.000 M58.454 207.076 C 58.405 208.244,58.273 208.365,56.900 208.509 L 55.400 208.666 56.913 208.733 C 58.553 208.806,58.988 208.314,58.686 206.729 C 58.549 206.008,58.497 206.086,58.454 207.076 M276.378 209.900 L 275.000 211.400 276.500 210.022 C 277.896 208.738,278.184 208.400,277.878 208.400 C 277.812 208.400,277.137 209.075,276.378 209.900 M48.307 209.090 C 49.026 209.179,50.106 209.177,50.707 209.086 C 51.308 208.995,50.720 208.922,49.400 208.924 C 48.080 208.926,47.588 209.001,48.307 209.090 M43.711 210.100 C 42.941 211.096,42.761 211.600,43.176 211.600 C 43.409 211.600,43.600 211.330,43.600 211.000 C 43.600 210.670,43.870 210.400,44.200 210.400 C 44.530 210.400,44.800 210.220,44.800 210.000 C 44.800 209.443,44.175 209.500,43.711 210.100 M186.305 210.283 C 186.802 210.379,187.522 210.375,187.905 210.275 C 188.287 210.175,187.880 210.096,187.000 210.101 C 186.120 210.105,185.807 210.187,186.305 210.283 M42.191 215.356 C 42.039 216.982,42.073 219.637,42.267 221.256 C 42.587 223.934,42.619 223.667,42.621 218.300 C 42.622 211.571,42.576 211.251,42.191 215.356 M176.699 219.765 C 176.413 221.631,176.530 222.404,177.024 221.910 C 177.147 221.787,177.192 220.812,177.124 219.743 L 177.000 217.800 176.699 219.765 M259.251 226.991 C 257.528 228.861,257.335 229.200,258.000 229.200 C 258.220 229.200,258.400 228.983,258.400 228.717 C 258.400 228.451,259.067 227.551,259.881 226.717 C 260.696 225.883,261.259 225.200,261.132 225.200 C 261.005 225.200,260.159 226.006,259.251 226.991 M42.197 230.100 C 42.045 232.135,42.073 235.240,42.260 237.000 C 42.561 239.830,42.602 239.401,42.621 233.300 C 42.644 225.404,42.584 224.947,42.197 230.100 M167.000 226.800 C 165.806 227.104,165.807 227.106,167.300 227.153 C 168.125 227.179,168.800 227.020,168.800 226.800 C 168.800 226.359,168.732 226.359,167.000 226.800 M159.915 234.400 C 159.818 235.060,159.887 235.600,160.069 235.600 C 160.251 235.600,160.400 235.060,160.400 234.400 C 160.400 233.740,160.330 233.200,160.245 233.200 C 160.160 233.200,160.012 233.740,159.915 234.400 M57.200 240.600 C 56.683 241.150,56.406 241.600,56.583 241.600 C 56.884 241.600,58.400 240.047,58.400 239.739 C 58.400 239.429,58.094 239.649,57.200 240.600 M58.802 240.800 C 58.433 242.004,58.452 242.929,58.833 242.285 C 59.066 241.892,59.168 241.352,59.060 241.085 C 58.952 240.818,58.836 240.690,58.802 240.800 M43.293 244.000 C 43.293 244.770,43.375 245.085,43.476 244.700 C 43.576 244.315,43.576 243.685,43.476 243.300 C 43.375 242.915,43.293 243.230,43.293 244.000 M240.084 247.415 C 239.652 247.905,239.698 248.000,240.372 248.000 C 240.921 248.000,241.102 247.811,240.945 247.400 C 240.671 246.687,240.727 246.686,240.084 247.415 M59.909 260.700 C 60.139 263.022,60.334 263.191,60.368 261.100 C 60.386 260.055,60.256 259.200,60.080 259.200 C 59.904 259.200,59.828 259.875,59.909 260.700 M76.724 281.800 C 76.814 282.570,76.958 283.200,77.044 283.200 C 77.130 283.200,77.200 282.570,77.200 281.800 C 77.200 281.030,77.056 280.400,76.880 280.400 C 76.704 280.400,76.634 281.030,76.724 281.800 M109.909 310.700 C 110.139 313.022,110.334 313.191,110.368 311.100 C 110.386 310.055,110.256 309.200,110.080 309.200 C 109.904 309.200,109.828 309.875,109.909 310.700 M136.806 324.300 C 136.824 325.177,137.588 325.759,137.594 324.900 C 137.597 324.405,137.420 324.000,137.200 324.000 C 136.980 324.000,136.803 324.135,136.806 324.300 M145.900 324.299 C 148.375 324.369,152.425 324.369,154.900 324.299 C 157.375 324.228,155.350 324.171,150.400 324.171 C 145.450 324.171,143.425 324.228,145.900 324.299 M141.408 325.613 C 141.572 325.878,144.795 326.011,150.438 325.984 C 155.729 325.960,159.121 325.796,158.983 325.572 C 158.852 325.361,154.941 325.200,149.953 325.200 C 144.007 325.200,141.236 325.334,141.408 325.613 M160.794 326.606 C 160.051 327.373,159.582 328.000,159.752 328.000 C 160.182 328.000,162.538 325.605,162.321 325.388 C 162.225 325.291,161.537 325.839,160.794 326.606 M150.412 328.700 C 145.688 328.764,141.692 328.948,141.531 329.108 C 141.370 329.269,145.280 329.348,150.219 329.285 C 155.634 329.216,159.200 329.018,159.200 328.785 C 159.200 328.573,159.155 328.441,159.100 328.492 C 159.045 328.542,155.135 328.636,150.412 328.700 M162.778 329.900 L 161.400 331.400 162.900 330.022 C 164.296 328.738,164.584 328.400,164.278 328.400 C 164.212 328.400,163.537 329.075,162.778 329.900 M126.667 332.500 C 127.014 334.323,127.200 334.381,127.200 332.667 C 127.200 331.860,127.025 331.200,126.810 331.200 C 126.586 331.200,126.525 331.753,126.667 332.500 M145.678 333.098 C 148.031 333.169,151.991 333.169,154.478 333.099 C 156.965 333.029,155.040 332.971,150.200 332.970 C 145.360 332.970,143.325 333.028,145.678 333.098 " stroke="none" fill="#605c5c" fill-rule="evenodd"></path><path id="path3" d="M337.145 75.659 C 339.716 75.855,343.278 75.854,345.345 75.657 C 348.545 75.352,347.979 75.309,340.800 75.311 C 332.939 75.313,332.788 75.327,337.145 75.659 M328.307 75.890 C 329.026 75.979,330.106 75.977,330.707 75.886 C 331.308 75.795,330.720 75.722,329.400 75.724 C 328.080 75.726,327.588 75.801,328.307 75.890 M350.500 75.887 C 351.105 75.978,352.095 75.978,352.700 75.887 C 353.305 75.795,352.810 75.720,351.600 75.720 C 350.390 75.720,349.895 75.795,350.500 75.887 M319.200 76.800 C 317.898 77.074,317.947 77.098,319.900 77.147 C 321.068 77.177,322.000 77.023,322.000 76.800 C 322.000 76.358,321.302 76.358,319.200 76.800 M310.101 87.000 C 310.105 87.880,310.187 88.193,310.283 87.695 C 310.379 87.198,310.375 86.478,310.275 86.095 C 310.175 85.713,310.096 86.120,310.101 87.000 M360.800 92.363 C 359.810 92.497,361.700 92.607,365.000 92.608 C 368.658 92.609,370.298 92.502,369.200 92.335 C 367.075 92.010,363.324 92.022,360.800 92.363 M303.300 93.476 C 303.685 93.576,304.315 93.576,304.700 93.476 C 305.085 93.375,304.770 93.293,304.000 93.293 C 303.230 93.293,302.915 93.375,303.300 93.476 M374.400 99.400 C 374.400 99.730,374.580 100.000,374.800 100.000 C 375.020 100.000,375.200 99.730,375.200 99.400 C 375.200 99.070,375.020 98.800,374.800 98.800 C 374.580 98.800,374.400 99.070,374.400 99.400 M293.293 104.000 C 293.293 104.770,293.375 105.085,293.476 104.700 C 293.576 104.315,293.576 103.685,293.476 103.300 C 293.375 102.915,293.293 103.230,293.293 104.000 M284.200 110.000 L 283.000 110.305 284.300 110.353 C 285.015 110.379,285.600 110.220,285.600 110.000 C 285.600 109.780,285.555 109.621,285.500 109.647 C 285.445 109.673,284.860 109.832,284.200 110.000 M276.742 117.200 C 276.495 118.598,276.597 119.136,277.028 118.705 C 277.154 118.580,277.196 117.875,277.123 117.138 L 276.989 115.800 276.742 117.200 M267.000 126.800 C 265.806 127.104,265.807 127.106,267.300 127.153 C 268.125 127.179,268.800 127.020,268.800 126.800 C 268.800 126.359,268.732 126.359,267.000 126.800 M259.915 134.400 C 259.818 135.060,259.887 135.600,260.069 135.600 C 260.251 135.600,260.400 135.060,260.400 134.400 C 260.400 133.740,260.330 133.200,260.245 133.200 C 260.160 133.200,260.012 133.740,259.915 134.400 M347.304 140.218 C 346.966 140.586,346.943 140.841,347.231 141.019 C 347.782 141.359,348.106 141.015,347.935 140.271 C 347.822 139.776,347.719 139.767,347.304 140.218 M341.351 141.400 C 341.158 141.620,340.971 142.250,340.936 142.800 L 340.873 143.800 341.294 142.757 C 341.525 142.184,342.184 141.536,342.757 141.319 L 343.800 140.923 342.751 140.962 C 342.175 140.983,341.545 141.180,341.351 141.400 M340.084 147.442 C 339.656 147.906,339.707 148.000,340.384 148.000 C 340.833 148.000,341.200 147.831,341.200 147.624 C 341.200 146.961,340.616 146.866,340.084 147.442 M234.200 160.000 L 233.000 160.305 234.300 160.353 C 235.015 160.379,235.600 160.220,235.600 160.000 C 235.600 159.780,235.555 159.621,235.500 159.647 C 235.445 159.673,234.860 159.832,234.200 160.000 M226.742 167.200 C 226.495 168.598,226.597 169.136,227.028 168.705 C 227.154 168.580,227.196 167.875,227.123 167.138 L 226.989 165.800 226.742 167.200 M217.000 176.800 C 215.806 177.104,215.807 177.106,217.300 177.153 C 218.125 177.179,218.800 177.020,218.800 176.800 C 218.800 176.359,218.732 176.359,217.000 176.800 M209.915 184.400 C 209.818 185.060,209.887 185.600,210.069 185.600 C 210.251 185.600,210.400 185.060,210.400 184.400 C 210.400 183.740,210.330 183.200,210.245 183.200 C 210.160 183.200,210.012 183.740,209.915 184.400 M297.304 190.218 C 296.966 190.586,296.943 190.841,297.231 191.019 C 297.782 191.359,298.106 191.015,297.935 190.271 C 297.822 189.776,297.719 189.767,297.304 190.218 M291.291 191.441 C 291.043 191.707,291.020 192.103,291.234 192.441 C 291.527 192.904,291.589 192.893,291.594 192.377 C 291.597 192.035,292.095 191.567,292.700 191.339 L 293.800 190.923 292.751 190.962 C 292.175 190.983,291.518 191.198,291.291 191.441 M64.000 192.360 C 63.010 192.492,64.990 192.604,68.400 192.608 C 72.262 192.613,73.846 192.513,72.600 192.343 C 70.226 192.019,66.502 192.027,64.000 192.360 M77.600 192.367 C 76.390 192.498,78.820 192.603,83.000 192.602 C 87.349 192.601,89.659 192.489,88.400 192.340 C 85.762 192.027,80.635 192.040,77.600 192.367 M60.489 193.423 C 59.565 194.070,59.306 194.800,60.000 194.800 C 60.220 194.800,60.400 194.530,60.400 194.200 C 60.400 193.870,60.670 193.600,61.000 193.600 C 61.330 193.600,61.600 193.420,61.600 193.200 C 61.600 192.676,61.537 192.689,60.489 193.423 M203.300 193.476 C 203.685 193.576,204.315 193.576,204.700 193.476 C 205.085 193.375,204.770 193.293,204.000 193.293 C 203.230 193.293,202.915 193.375,203.300 193.476 M290.104 197.423 C 289.547 198.024,289.989 198.501,290.698 198.063 C 290.951 197.907,291.032 197.579,290.879 197.334 C 290.681 197.018,290.456 197.043,290.104 197.423 M58.924 199.800 C 58.926 201.120,59.001 201.612,59.090 200.893 C 59.179 200.174,59.177 199.094,59.086 198.493 C 58.995 197.892,58.922 198.480,58.924 199.800 M193.293 204.000 C 193.293 204.770,193.375 205.085,193.476 204.700 C 193.576 204.315,193.576 203.685,193.476 203.300 C 193.375 202.915,193.293 203.230,193.293 204.000 M58.454 207.076 C 58.405 208.244,58.273 208.365,56.900 208.509 L 55.400 208.666 56.913 208.733 C 58.553 208.806,58.988 208.314,58.686 206.729 C 58.549 206.008,58.497 206.086,58.454 207.076 M276.378 209.900 L 275.000 211.400 276.500 210.022 C 277.896 208.738,278.184 208.400,277.878 208.400 C 277.812 208.400,277.137 209.075,276.378 209.900 M48.307 209.090 C 49.026 209.179,50.106 209.177,50.707 209.086 C 51.308 208.995,50.720 208.922,49.400 208.924 C 48.080 208.926,47.588 209.001,48.307 209.090 M43.711 210.100 C 42.941 211.096,42.761 211.600,43.176 211.600 C 43.409 211.600,43.600 211.330,43.600 211.000 C 43.600 210.670,43.870 210.400,44.200 210.400 C 44.530 210.400,44.800 210.220,44.800 210.000 C 44.800 209.443,44.175 209.500,43.711 210.100 M186.305 210.283 C 186.802 210.379,187.522 210.375,187.905 210.275 C 188.287 210.175,187.880 210.096,187.000 210.101 C 186.120 210.105,185.807 210.187,186.305 210.283 M42.191 215.356 C 42.039 216.982,42.073 219.637,42.267 221.256 C 42.587 223.934,42.619 223.667,42.621 218.300 C 42.622 211.571,42.576 211.251,42.191 215.356 M176.699 219.765 C 176.413 221.631,176.530 222.404,177.024 221.910 C 177.147 221.787,177.192 220.812,177.124 219.743 L 177.000 217.800 176.699 219.765 M259.251 226.991 C 257.528 228.861,257.335 229.200,258.000 229.200 C 258.220 229.200,258.400 228.983,258.400 228.717 C 258.400 228.451,259.067 227.551,259.881 226.717 C 260.696 225.883,261.259 225.200,261.132 225.200 C 261.005 225.200,260.159 226.006,259.251 226.991 M42.197 230.100 C 42.045 232.135,42.073 235.240,42.260 237.000 C 42.561 239.830,42.602 239.401,42.621 233.300 C 42.644 225.404,42.584 224.947,42.197 230.100 M167.000 226.800 C 165.806 227.104,165.807 227.106,167.300 227.153 C 168.125 227.179,168.800 227.020,168.800 226.800 C 168.800 226.359,168.732 226.359,167.000 226.800 M159.915 234.400 C 159.818 235.060,159.887 235.600,160.069 235.600 C 160.251 235.600,160.400 235.060,160.400 234.400 C 160.400 233.740,160.330 233.200,160.245 233.200 C 160.160 233.200,160.012 233.740,159.915 234.400 M57.200 240.600 C 56.683 241.150,56.406 241.600,56.583 241.600 C 56.884 241.600,58.400 240.047,58.400 239.739 C 58.400 239.429,58.094 239.649,57.200 240.600 M58.802 240.800 C 58.433 242.004,58.452 242.929,58.833 242.285 C 59.066 241.892,59.168 241.352,59.060 241.085 C 58.952 240.818,58.836 240.690,58.802 240.800 M43.293 244.000 C 43.293 244.770,43.375 245.085,43.476 244.700 C 43.576 244.315,43.576 243.685,43.476 243.300 C 43.375 242.915,43.293 243.230,43.293 244.000 M240.084 247.415 C 239.652 247.905,239.698 248.000,240.372 248.000 C 240.921 248.000,241.102 247.811,240.945 247.400 C 240.671 246.687,240.727 246.686,240.084 247.415 M59.909 260.700 C 60.139 263.022,60.334 263.191,60.368 261.100 C 60.386 260.055,60.256 259.200,60.080 259.200 C 59.904 259.200,59.828 259.875,59.909 260.700 M76.724 281.800 C 76.814 282.570,76.958 283.200,77.044 283.200 C 77.130 283.200,77.200 282.570,77.200 281.800 C 77.200 281.030,77.056 280.400,76.880 280.400 C 76.704 280.400,76.634 281.030,76.724 281.800 M109.909 310.700 C 110.139 313.022,110.334 313.191,110.368 311.100 C 110.386 310.055,110.256 309.200,110.080 309.200 C 109.904 309.200,109.828 309.875,109.909 310.700 M136.806 324.300 C 136.824 325.177,137.588 325.759,137.594 324.900 C 137.597 324.405,137.420 324.000,137.200 324.000 C 136.980 324.000,136.803 324.135,136.806 324.300 M145.900 324.299 C 148.375 324.369,152.425 324.369,154.900 324.299 C 157.375 324.228,155.350 324.171,150.400 324.171 C 145.450 324.171,143.425 324.228,145.900 324.299 M141.408 325.613 C 141.572 325.878,144.795 326.011,150.438 325.984 C 155.729 325.960,159.121 325.796,158.983 325.572 C 158.852 325.361,154.941 325.200,149.953 325.200 C 144.007 325.200,141.236 325.334,141.408 325.613 M160.794 326.606 C 160.051 327.373,159.582 328.000,159.752 328.000 C 160.182 328.000,162.538 325.605,162.321 325.388 C 162.225 325.291,161.537 325.839,160.794 326.606 M150.412 328.700 C 145.688 328.764,141.692 328.948,141.531 329.108 C 141.370 329.269,145.280 329.348,150.219 329.285 C 155.634 329.216,159.200 329.018,159.200 328.785 C 159.200 328.573,159.155 328.441,159.100 328.492 C 159.045 328.542,155.135 328.636,150.412 328.700 M162.778 329.900 L 161.400 331.400 162.900 330.022 C 164.296 328.738,164.584 328.400,164.278 328.400 C 164.212 328.400,163.537 329.075,162.778 329.900 M126.667 332.500 C 127.014 334.323,127.200 334.381,127.200 332.667 C 127.200 331.860,127.025 331.200,126.810 331.200 C 126.586 331.200,126.525 331.753,126.667 332.500 M145.678 333.098 C 148.031 333.169,151.991 333.169,154.478 333.099 C 156.965 333.029,155.040 332.971,150.200 332.970 C 145.360 332.970,143.325 333.028,145.678 333.098 " stroke="none" fill="#605c5c" fill-rule="evenodd"></path><path id="path4" d="M337.145 75.659 C 339.716 75.855,343.278 75.854,345.345 75.657 C 348.545 75.352,347.979 75.309,340.800 75.311 C 332.939 75.313,332.788 75.327,337.145 75.659 M328.307 75.890 C 329.026 75.979,330.106 75.977,330.707 75.886 C 331.308 75.795,330.720 75.722,329.400 75.724 C 328.080 75.726,327.588 75.801,328.307 75.890 M350.500 75.887 C 351.105 75.978,352.095 75.978,352.700 75.887 C 353.305 75.795,352.810 75.720,351.600 75.720 C 350.390 75.720,349.895 75.795,350.500 75.887 M319.200 76.800 C 317.898 77.074,317.947 77.098,319.900 77.147 C 321.068 77.177,322.000 77.023,322.000 76.800 C 322.000 76.358,321.302 76.358,319.200 76.800 M310.101 87.000 C 310.105 87.880,310.187 88.193,310.283 87.695 C 310.379 87.198,310.375 86.478,310.275 86.095 C 310.175 85.713,310.096 86.120,310.101 87.000 M360.800 92.363 C 359.810 92.497,361.700 92.607,365.000 92.608 C 368.658 92.609,370.298 92.502,369.200 92.335 C 367.075 92.010,363.324 92.022,360.800 92.363 M303.300 93.476 C 303.685 93.576,304.315 93.576,304.700 93.476 C 305.085 93.375,304.770 93.293,304.000 93.293 C 303.230 93.293,302.915 93.375,303.300 93.476 M374.400 99.400 C 374.400 99.730,374.580 100.000,374.800 100.000 C 375.020 100.000,375.200 99.730,375.200 99.400 C 375.200 99.070,375.020 98.800,374.800 98.800 C 374.580 98.800,374.400 99.070,374.400 99.400 M293.293 104.000 C 293.293 104.770,293.375 105.085,293.476 104.700 C 293.576 104.315,293.576 103.685,293.476 103.300 C 293.375 102.915,293.293 103.230,293.293 104.000 M284.200 110.000 L 283.000 110.305 284.300 110.353 C 285.015 110.379,285.600 110.220,285.600 110.000 C 285.600 109.780,285.555 109.621,285.500 109.647 C 285.445 109.673,284.860 109.832,284.200 110.000 M276.742 117.200 C 276.495 118.598,276.597 119.136,277.028 118.705 C 277.154 118.580,277.196 117.875,277.123 117.138 L 276.989 115.800 276.742 117.200 M267.000 126.800 C 265.806 127.104,265.807 127.106,267.300 127.153 C 268.125 127.179,268.800 127.020,268.800 126.800 C 268.800 126.359,268.732 126.359,267.000 126.800 M259.915 134.400 C 259.818 135.060,259.887 135.600,260.069 135.600 C 260.251 135.600,260.400 135.060,260.400 134.400 C 260.400 133.740,260.330 133.200,260.245 133.200 C 260.160 133.200,260.012 133.740,259.915 134.400 M347.304 140.218 C 346.966 140.586,346.943 140.841,347.231 141.019 C 347.782 141.359,348.106 141.015,347.935 140.271 C 347.822 139.776,347.719 139.767,347.304 140.218 M341.351 141.400 C 341.158 141.620,340.971 142.250,340.936 142.800 L 340.873 143.800 341.294 142.757 C 341.525 142.184,342.184 141.536,342.757 141.319 L 343.800 140.923 342.751 140.962 C 342.175 140.983,341.545 141.180,341.351 141.400 M340.084 147.442 C 339.656 147.906,339.707 148.000,340.384 148.000 C 340.833 148.000,341.200 147.831,341.200 147.624 C 341.200 146.961,340.616 146.866,340.084 147.442 M234.200 160.000 L 233.000 160.305 234.300 160.353 C 235.015 160.379,235.600 160.220,235.600 160.000 C 235.600 159.780,235.555 159.621,235.500 159.647 C 235.445 159.673,234.860 159.832,234.200 160.000 M226.742 167.200 C 226.495 168.598,226.597 169.136,227.028 168.705 C 227.154 168.580,227.196 167.875,227.123 167.138 L 226.989 165.800 226.742 167.200 M217.000 176.800 C 215.806 177.104,215.807 177.106,217.300 177.153 C 218.125 177.179,218.800 177.020,218.800 176.800 C 218.800 176.359,218.732 176.359,217.000 176.800 M209.915 184.400 C 209.818 185.060,209.887 185.600,210.069 185.600 C 210.251 185.600,210.400 185.060,210.400 184.400 C 210.400 183.740,210.330 183.200,210.245 183.200 C 210.160 183.200,210.012 183.740,209.915 184.400 M297.304 190.218 C 296.966 190.586,296.943 190.841,297.231 191.019 C 297.782 191.359,298.106 191.015,297.935 190.271 C 297.822 189.776,297.719 189.767,297.304 190.218 M291.291 191.441 C 291.043 191.707,291.020 192.103,291.234 192.441 C 291.527 192.904,291.589 192.893,291.594 192.377 C 291.597 192.035,292.095 191.567,292.700 191.339 L 293.800 190.923 292.751 190.962 C 292.175 190.983,291.518 191.198,291.291 191.441 M64.000 192.360 C 63.010 192.492,64.990 192.604,68.400 192.608 C 72.262 192.613,73.846 192.513,72.600 192.343 C 70.226 192.019,66.502 192.027,64.000 192.360 M77.600 192.367 C 76.390 192.498,78.820 192.603,83.000 192.602 C 87.349 192.601,89.659 192.489,88.400 192.340 C 85.762 192.027,80.635 192.040,77.600 192.367 M60.489 193.423 C 59.565 194.070,59.306 194.800,60.000 194.800 C 60.220 194.800,60.400 194.530,60.400 194.200 C 60.400 193.870,60.670 193.600,61.000 193.600 C 61.330 193.600,61.600 193.420,61.600 193.200 C 61.600 192.676,61.537 192.689,60.489 193.423 M203.300 193.476 C 203.685 193.576,204.315 193.576,204.700 193.476 C 205.085 193.375,204.770 193.293,204.000 193.293 C 203.230 193.293,202.915 193.375,203.300 193.476 M290.104 197.423 C 289.547 198.024,289.989 198.501,290.698 198.063 C 290.951 197.907,291.032 197.579,290.879 197.334 C 290.681 197.018,290.456 197.043,290.104 197.423 M58.924 199.800 C 58.926 201.120,59.001 201.612,59.090 200.893 C 59.179 200.174,59.177 199.094,59.086 198.493 C 58.995 197.892,58.922 198.480,58.924 199.800 M193.293 204.000 C 193.293 204.770,193.375 205.085,193.476 204.700 C 193.576 204.315,193.576 203.685,193.476 203.300 C 193.375 202.915,193.293 203.230,193.293 204.000 M58.454 207.076 C 58.405 208.244,58.273 208.365,56.900 208.509 L 55.400 208.666 56.913 208.733 C 58.553 208.806,58.988 208.314,58.686 206.729 C 58.549 206.008,58.497 206.086,58.454 207.076 M276.378 209.900 L 275.000 211.400 276.500 210.022 C 277.896 208.738,278.184 208.400,277.878 208.400 C 277.812 208.400,277.137 209.075,276.378 209.900 M48.307 209.090 C 49.026 209.179,50.106 209.177,50.707 209.086 C 51.308 208.995,50.720 208.922,49.400 208.924 C 48.080 208.926,47.588 209.001,48.307 209.090 M43.711 210.100 C 42.941 211.096,42.761 211.600,43.176 211.600 C 43.409 211.600,43.600 211.330,43.600 211.000 C 43.600 210.670,43.870 210.400,44.200 210.400 C 44.530 210.400,44.800 210.220,44.800 210.000 C 44.800 209.443,44.175 209.500,43.711 210.100 M186.305 210.283 C 186.802 210.379,187.522 210.375,187.905 210.275 C 188.287 210.175,187.880 210.096,187.000 210.101 C 186.120 210.105,185.807 210.187,186.305 210.283 M42.191 215.356 C 42.039 216.982,42.073 219.637,42.267 221.256 C 42.587 223.934,42.619 223.667,42.621 218.300 C 42.622 211.571,42.576 211.251,42.191 215.356 M176.699 219.765 C 176.413 221.631,176.530 222.404,177.024 221.910 C 177.147 221.787,177.192 220.812,177.124 219.743 L 177.000 217.800 176.699 219.765 M259.251 226.991 C 257.528 228.861,257.335 229.200,258.000 229.200 C 258.220 229.200,258.400 228.983,258.400 228.717 C 258.400 228.451,259.067 227.551,259.881 226.717 C 260.696 225.883,261.259 225.200,261.132 225.200 C 261.005 225.200,260.159 226.006,259.251 226.991 M42.197 230.100 C 42.045 232.135,42.073 235.240,42.260 237.000 C 42.561 239.830,42.602 239.401,42.621 233.300 C 42.644 225.404,42.584 224.947,42.197 230.100 M167.000 226.800 C 165.806 227.104,165.807 227.106,167.300 227.153 C 168.125 227.179,168.800 227.020,168.800 226.800 C 168.800 226.359,168.732 226.359,167.000 226.800 M159.915 234.400 C 159.818 235.060,159.887 235.600,160.069 235.600 C 160.251 235.600,160.400 235.060,160.400 234.400 C 160.400 233.740,160.330 233.200,160.245 233.200 C 160.160 233.200,160.012 233.740,159.915 234.400 M57.200 240.600 C 56.683 241.150,56.406 241.600,56.583 241.600 C 56.884 241.600,58.400 240.047,58.400 239.739 C 58.400 239.429,58.094 239.649,57.200 240.600 M58.802 240.800 C 58.433 242.004,58.452 242.929,58.833 242.285 C 59.066 241.892,59.168 241.352,59.060 241.085 C 58.952 240.818,58.836 240.690,58.802 240.800 M43.293 244.000 C 43.293 244.770,43.375 245.085,43.476 244.700 C 43.576 244.315,43.576 243.685,43.476 243.300 C 43.375 242.915,43.293 243.230,43.293 244.000 M240.084 247.415 C 239.652 247.905,239.698 248.000,240.372 248.000 C 240.921 248.000,241.102 247.811,240.945 247.400 C 240.671 246.687,240.727 246.686,240.084 247.415 M59.909 260.700 C 60.139 263.022,60.334 263.191,60.368 261.100 C 60.386 260.055,60.256 259.200,60.080 259.200 C 59.904 259.200,59.828 259.875,59.909 260.700 M76.724 281.800 C 76.814 282.570,76.958 283.200,77.044 283.200 C 77.130 283.200,77.200 282.570,77.200 281.800 C 77.200 281.030,77.056 280.400,76.880 280.400 C 76.704 280.400,76.634 281.030,76.724 281.800 M109.909 310.700 C 110.139 313.022,110.334 313.191,110.368 311.100 C 110.386 310.055,110.256 309.200,110.080 309.200 C 109.904 309.200,109.828 309.875,109.909 310.700 M136.806 324.300 C 136.824 325.177,137.588 325.759,137.594 324.900 C 137.597 324.405,137.420 324.000,137.200 324.000 C 136.980 324.000,136.803 324.135,136.806 324.300 M145.900 324.299 C 148.375 324.369,152.425 324.369,154.900 324.299 C 157.375 324.228,155.350 324.171,150.400 324.171 C 145.450 324.171,143.425 324.228,145.900 324.299 M141.408 325.613 C 141.572 325.878,144.795 326.011,150.438 325.984 C 155.729 325.960,159.121 325.796,158.983 325.572 C 158.852 325.361,154.941 325.200,149.953 325.200 C 144.007 325.200,141.236 325.334,141.408 325.613 M160.794 326.606 C 160.051 327.373,159.582 328.000,159.752 328.000 C 160.182 328.000,162.538 325.605,162.321 325.388 C 162.225 325.291,161.537 325.839,160.794 326.606 M150.412 328.700 C 145.688 328.764,141.692 328.948,141.531 329.108 C 141.370 329.269,145.280 329.348,150.219 329.285 C 155.634 329.216,159.200 329.018,159.200 328.785 C 159.200 328.573,159.155 328.441,159.100 328.492 C 159.045 328.542,155.135 328.636,150.412 328.700 M162.778 329.900 L 161.400 331.400 162.900 330.022 C 164.296 328.738,164.584 328.400,164.278 328.400 C 164.212 328.400,163.537 329.075,162.778 329.900 M126.667 332.500 C 127.014 334.323,127.200 334.381,127.200 332.667 C 127.200 331.860,127.025 331.200,126.810 331.200 C 126.586 331.200,126.525 331.753,126.667 332.500 M145.678 333.098 C 148.031 333.169,151.991 333.169,154.478 333.099 C 156.965 333.029,155.040 332.971,150.200 332.970 C 145.360 332.970,143.325 333.028,145.678 333.098 " stroke="none" fill="#605c5c" fill-rule="evenodd"></path></g></svg>